<?xml version="1.0" encoding="UTF-8" standalone="no"?>
<svg
   width="210"
   height="379.99997"
   version="1.1"
   xml:space="preserve"
   style="clip-rule:evenodd;fill-rule:evenodd;stroke-linecap:round;stroke-linejoin:round;stroke-miterlimit:1.41420996"
   id="svg257"
   sodipodi:docname="Cycles.svg"
   inkscape:version="1.3 (0e150ed6c4, 2023-07-21)"
   xmlns:inkscape="http://www.inkscape.org/namespaces/inkscape"
   xmlns:sodipodi="http://sodipodi.sourceforge.net/DTD/sodipodi-0.dtd"
   xmlns="http://www.w3.org/2000/svg"
   xmlns:svg="http://www.w3.org/2000/svg"
   xmlns:rdf="http://www.w3.org/1999/02/22-rdf-syntax-ns#"
   xmlns:cc="http://creativecommons.org/ns#"
   xmlns:dc="http://purl.org/dc/elements/1.1/"><metadata
   id="metadata263"><rdf:RDF><cc:Work
       rdf:about=""><dc:format>image/svg+xml</dc:format><dc:type
         rdf:resource="http://purl.org/dc/dcmitype/StillImage" /><dc:title /></cc:Work></rdf:RDF></metadata><defs
   id="defs261" /><sodipodi:namedview
   pagecolor="#ffffff"
   bordercolor="#666666"
   borderopacity="1"
   objecttolerance="10"
   gridtolerance="10"
   guidetolerance="10"
   inkscape:pageopacity="0"
   inkscape:pageshadow="2"
   inkscape:window-width="1366"
   inkscape:window-height="715"
   id="namedview259"
   showgrid="false"
   units="px"
   inkscape:document-units="mm"
   inkscape:zoom="1.0944197"
   inkscape:cx="73.098102"
   inkscape:cy="199.64919"
   inkscape:window-x="-8"
   inkscape:window-y="-8"
   inkscape:window-maximized="1"
   inkscape:current-layer="svg257"
   inkscape:showpageshadow="2"
   inkscape:pagecheckerboard="0"
   inkscape:deskcolor="#d1d1d1" />&#10;    <g
   id="Panel">&#10;        <rect
   id="Background"
   x="0"
   y="0.013"
   width="210"
   height="380"
   style="fill:#000000" />&#10;        <g
   id="CURVES">&#10;            <g
   id="g53">&#10;                <path
   d="m 48.237,-16.949 c -10.134,53.253 1.485,95.689 16.789,137.765 15.831,43.529 3.58,66.178 -13.919,143.666 -17.5,77.489 20.17,144.36 20.17,144.36"
   style="fill:none;stroke:#ffc190;stroke-width:1px"
   id="path21"
   inkscape:connector-curvature="0" />&#10;                <path
   d="m 63.045,-16.949 c -10.134,53.253 1.485,95.689 16.789,137.765 15.831,43.529 3.58,66.178 -13.92,143.666 -17.499,77.489 20.17,144.36 20.17,144.36"
   style="fill:none;stroke:#bbbbbb;stroke-width:1px"
   id="path23"
   inkscape:connector-curvature="0" />&#10;                <path
   d="m 55.707,-16.949 c -10.134,53.253 1.485,95.689 16.789,137.765 15.832,43.529 3.58,66.178 -13.919,143.666 -17.5,77.489 20.17,144.36 20.17,144.36"
   style="fill:none;stroke:#bbbbbb;stroke-width:1px"
   id="path25"
   inkscape:connector-curvature="0" />&#10;                <path
   d="M 70.515,-16.949 C 60.381,36.304 72,78.74 87.304,120.816 c 15.831,43.529 3.58,66.178 -13.919,143.666 -17.5,77.489 20.17,144.36 20.17,144.36"
   style="fill:none;stroke:#bbbbbb;stroke-width:1px"
   id="path27"
   inkscape:connector-curvature="0" />&#10;                <path
   d="m 18.357,-16.949 c -10.134,53.253 1.485,95.689 16.788,137.765 15.832,43.529 3.581,66.178 -13.919,143.666 -17.5,77.489 20.17,144.36 20.17,144.36"
   style="fill:none;stroke:#ffc190;stroke-width:1px"
   id="path29"
   inkscape:connector-curvature="0" />&#10;                <path
   d="m 33.164,-16.949 c -10.133,53.253 1.486,95.689 16.789,137.765 15.832,43.529 3.58,66.178 -13.919,143.666 -17.5,77.489 20.17,144.36 20.17,144.36"
   style="fill:none;stroke:#bbbbbb;stroke-width:1px"
   id="path31"
   inkscape:connector-curvature="0" />&#10;                <path
   d="m 25.827,-16.949 c -10.134,53.253 1.485,95.689 16.788,137.765 15.832,43.529 3.581,66.178 -13.919,143.666 -17.499,77.489 20.17,144.36 20.17,144.36"
   style="fill:none;stroke:#bbbbbb;stroke-width:1px"
   id="path33"
   inkscape:connector-curvature="0" />&#10;                <path
   d="m 40.635,-16.949 c -10.134,53.253 1.485,95.689 16.788,137.765 15.832,43.529 3.581,66.178 -13.919,143.666 -17.5,77.489 20.17,144.36 20.17,144.36"
   style="fill:none;stroke:#bbbbbb;stroke-width:1px"
   id="path35"
   inkscape:connector-curvature="0" />&#10;                <path
   d="m -10.694,-16.949 c -10.134,53.253 1.485,95.689 16.789,137.765 15.831,43.529 3.58,66.178 -13.92,143.666 -17.499,77.489 20.171,144.36 20.171,144.36"
   style="fill:none;stroke:#ffc190;stroke-width:1px"
   id="path37"
   inkscape:connector-curvature="0" />&#10;                <path
   d="M 4.114,-16.949 C -6.02,36.304 5.599,78.74 20.902,120.816 c 15.832,43.529 3.581,66.178 -13.919,143.666 -17.499,77.489 20.17,144.36 20.17,144.36"
   style="fill:none;stroke:#bbbbbb;stroke-width:1px"
   id="path39"
   inkscape:connector-curvature="0" />&#10;                <path
   d="m -3.224,-16.949 c -10.134,53.253 1.485,95.689 16.789,137.765 15.832,43.529 3.58,66.178 -13.919,143.666 -17.5,77.489 20.17,144.36 20.17,144.36"
   style="fill:none;stroke:#bbbbbb;stroke-width:1px"
   id="path41"
   inkscape:connector-curvature="0" />&#10;                <path
   d="M 11.584,-16.949 C 1.45,36.304 13.069,78.74 28.373,120.816 c 15.831,43.529 3.58,66.178 -13.92,143.666 -17.499,77.489 20.171,144.36 20.171,144.36"
   style="fill:none;stroke:#bbbbbb;stroke-width:1px"
   id="path43"
   inkscape:connector-curvature="0" />&#10;                <path
   d="m -24.937,-16.949 c -10.133,53.253 1.485,95.689 16.789,137.765 15.832,43.529 3.58,66.178 -13.919,143.666 -17.5,77.489 20.17,144.36 20.17,144.36"
   style="fill:none;stroke:#bbbbbb;stroke-width:1px"
   id="path45"
   inkscape:connector-curvature="0" />&#10;                <path
   d="m -17.466,-16.949 c -10.134,53.253 1.485,95.689 16.788,137.765 15.832,43.529 3.58,66.178 -13.919,143.666 -17.5,77.489 20.17,144.36 20.17,144.36"
   style="fill:none;stroke:#bbbbbb;stroke-width:1px"
   id="path47"
   inkscape:connector-curvature="0" />&#10;                <path
   d="M 147.803,256.877 -7.451,60.993 -78.489,117.297 76.765,313.18 Z"
   style="fill:#000000;stroke:#000000;stroke-width:1px"
   id="path49"
   inkscape:connector-curvature="0" />&#10;                <path
   d="M 225.088,368.887 -14.509,66.588 l -59.531,47.183 239.597,302.3 z"
   style="fill:#000000;stroke:#ffffff;stroke-width:1px"
   id="path51"
   inkscape:connector-curvature="0" />&#10;            </g>&#10;        </g>&#10;        <g
   id="Lines">&#10;            <path
   d="M 66.567,86.506 90.5,86.481"
   style="fill:none;stroke:#ffffff;stroke-width:1px"
   id="path56"
   inkscape:connector-curvature="0" />&#10;            <path
   d="m 119.848,86.462 42.121,-0.036"
   style="fill:none;stroke:#ffffff;stroke-width:1px"
   id="path58"
   inkscape:connector-curvature="0" />&#10;            <path
   d="M 56.865,66.577 49.625,66.45"
   style="fill:none;stroke:#ffffff;stroke-width:1px"
   id="path60"
   inkscape:connector-curvature="0" />&#10;            <path
   d="m 57.459,107.433 -8.88,-0.002"
   style="fill:none;stroke:#ffffff;stroke-width:1px"
   id="path62"
   inkscape:connector-curvature="0" />&#10;        </g>&#10;        <g
   id="Syms">&#10;            <path
   d="m 150.36,106.487 h 5.354"
   style="fill:none;stroke:#ffffff;stroke-width:1px"
   id="path65"
   inkscape:connector-curvature="0" />&#10;            <path
   d="m 196.495,106.512 h 6.133"
   style="fill:none;stroke:#ffffff;stroke-width:1px"
   id="path67"
   inkscape:connector-curvature="0" />&#10;            <path
   d="m 199.503,103.44 0.026,6.101"
   style="fill:none;stroke:#ffffff;stroke-width:1px"
   id="path69"
   inkscape:connector-curvature="0" />&#10;        </g>&#10;        <g
   id="Layer1">&#10;            <path
   d="m 191.941,304.327 c 0,-2.365 -1.919,-4.285 -4.284,-4.285 H 57.495 c -2.365,0 -4.284,1.92 -4.284,4.285 v 36.296 c 0,2.364 1.919,4.284 4.284,4.284 h 130.162 c 2.365,0 4.284,-1.92 4.284,-4.284 z"
   style="fill:#ffffff"
   id="path72"
   inkscape:connector-curvature="0" />&#10;            <path
   d="m 188.652,305.962 c 0,-2.099 -1.704,-3.803 -3.803,-3.803 H 59.646 c -2.099,0 -3.803,1.704 -3.803,3.803 v 32.22 c 0,2.099 1.704,3.803 3.803,3.803 h 125.203 c 2.099,0 3.803,-1.704 3.803,-3.803 z"
   style="fill:#99764b"
   id="path74"
   inkscape:connector-curvature="0" />&#10;        </g>&#10;        <g
   id="TEXT">&#10;            <path
   d="M 10.576,60.046 H 9.463 L 9.021,58.895 H 6.995 L 6.577,60.046 H 5.492 L 7.465,54.979 H 8.547 Z M 8.693,58.041 7.994,56.161 7.31,58.041 Z"
   style="fill:#ffffff;fill-rule:nonzero"
   id="path77"
   inkscape:connector-curvature="0" />&#10;            <path
   d="m 11.116,54.979 h 1.87 c 0.421,0 0.743,0.032 0.964,0.096 0.297,0.088 0.552,0.243 0.764,0.467 0.212,0.224 0.373,0.497 0.484,0.821 0.11,0.324 0.166,0.723 0.166,1.198 0,0.417 -0.052,0.776 -0.156,1.078 -0.127,0.369 -0.307,0.667 -0.542,0.895 -0.178,0.173 -0.418,0.308 -0.719,0.405 -0.226,0.071 -0.528,0.107 -0.906,0.107 h -1.925 z m 1.023,0.857 v 3.356 h 0.764 c 0.285,0 0.492,-0.016 0.618,-0.048 0.166,-0.042 0.304,-0.112 0.413,-0.211 0.11,-0.099 0.199,-0.262 0.268,-0.489 0.069,-0.227 0.104,-0.537 0.104,-0.928 0,-0.392 -0.035,-0.693 -0.104,-0.902 -0.069,-0.21 -0.166,-0.374 -0.29,-0.491 -0.124,-0.118 -0.282,-0.197 -0.474,-0.239 -0.142,-0.032 -0.422,-0.048 -0.84,-0.048 z"
   style="fill:#ffffff;fill-rule:nonzero"
   id="path79"
   inkscape:connector-curvature="0" />&#10;            <path
   d="m 22.113,46.593 c -0.18,0 -0.355,-0.01 -0.527,-0.03 C 21.415,46.544 21.244,46.511 21.073,46.464 20.725,46.376 20.4,46.246 20.1,46.074 v -1.506 c 0.357,0.277 0.701,0.482 1.031,0.617 0.337,0.135 0.661,0.203 0.973,0.203 0.331,0 0.587,-0.082 0.771,-0.247 0.18,-0.161 0.27,-0.389 0.27,-0.682 0,-0.227 -0.06,-0.421 -0.18,-0.582 -0.063,-0.086 -0.139,-0.161 -0.228,-0.225 -0.088,-0.064 -0.187,-0.119 -0.295,-0.165 l -0.653,-0.272 c -0.345,-0.145 -0.629,-0.291 -0.851,-0.437 -0.223,-0.147 -0.392,-0.296 -0.509,-0.447 -0.238,-0.3 -0.356,-0.713 -0.356,-1.24 0,-0.671 0.195,-1.196 0.585,-1.575 0.394,-0.382 0.928,-0.573 1.604,-0.573 0.333,0 0.645,0.036 0.935,0.109 0.29,0.072 0.595,0.189 0.916,0.35 v 1.423 c -0.576,-0.451 -1.159,-0.677 -1.747,-0.677 -0.325,0 -0.569,0.071 -0.735,0.212 -0.171,0.142 -0.256,0.343 -0.256,0.603 0,0.207 0.063,0.377 0.189,0.509 0.06,0.065 0.149,0.133 0.268,0.202 0.118,0.069 0.289,0.15 0.511,0.242 l 0.572,0.237 c 0.544,0.221 0.942,0.507 1.194,0.859 0.255,0.359 0.383,0.822 0.383,1.388 0,0.728 -0.201,1.274 -0.604,1.64 -0.402,0.369 -0.994,0.553 -1.775,0.553 z"
   style="fill:#ffffff;fill-rule:nonzero"
   id="path81"
   inkscape:connector-curvature="0" />&#10;            <path
   d="m 25.663,39.076 h 1.329 v 2.81 h 1.662 v -2.81 h 1.329 v 7.374 h -1.329 v -3.28 h -1.662 v 3.28 h -1.329 z"
   style="fill:#ffffff;fill-rule:nonzero"
   id="path83"
   inkscape:connector-curvature="0" />&#10;            <path
   d="m 32.564,39.076 h 1.626 l 1.815,7.374 h -1.329 l -0.414,-1.823 h -1.779 l -0.406,1.823 h -1.328 z m 1.441,4.351 -0.63,-3.017 -0.626,3.017 z"
   style="fill:#ffffff;fill-rule:nonzero"
   id="path85"
   inkscape:connector-curvature="0" />&#10;            <path
   d="m 36.902,39.076 h 1.824 c 0.925,0 1.593,0.181 2.005,0.544 0.405,0.359 0.608,0.946 0.608,1.763 0,0.816 -0.203,1.404 -0.608,1.763 -0.412,0.362 -1.08,0.543 -2.005,0.543 h -0.495 v 2.761 h -1.329 z m 1.874,3.388 c 0.438,0 0.744,-0.08 0.919,-0.242 0.174,-0.161 0.261,-0.441 0.261,-0.839 0,-0.399 -0.087,-0.679 -0.261,-0.84 -0.175,-0.161 -0.481,-0.242 -0.919,-0.242 h -0.545 v 2.163 z"
   style="fill:#ffffff;fill-rule:nonzero"
   id="path87"
   inkscape:connector-curvature="0" />&#10;            <path
   d="m 42.465,39.076 h 4.189 v 1.284 h -2.86 v 1.591 h 2.59 v 1.284 h -2.59 v 1.931 h 2.86 v 1.284 h -4.189 z"
   style="fill:#ffffff;fill-rule:nonzero"
   id="path89"
   inkscape:connector-curvature="0" />&#10;            <path
   d="m 19.789,209.485 1.157,-0.127 c 0.07,0.438 0.211,0.76 0.424,0.965 0.213,0.206 0.5,0.308 0.862,0.308 0.383,0 0.672,-0.091 0.866,-0.274 0.194,-0.183 0.291,-0.396 0.291,-0.641 0,-0.157 -0.041,-0.291 -0.122,-0.401 -0.082,-0.11 -0.225,-0.206 -0.428,-0.288 -0.139,-0.054 -0.457,-0.151 -0.952,-0.29 -0.638,-0.178 -1.085,-0.397 -1.342,-0.657 -0.362,-0.365 -0.543,-0.811 -0.543,-1.337 0,-0.338 0.085,-0.654 0.255,-0.949 0.17,-0.294 0.415,-0.519 0.736,-0.673 0.32,-0.154 0.706,-0.231 1.159,-0.231 0.739,0 1.296,0.183 1.669,0.548 0.374,0.366 0.57,0.854 0.589,1.464 l -1.189,0.059 C 23.17,206.62 23.06,206.374 22.893,206.225 22.726,206.075 22.475,206 22.14,206 c -0.346,0 -0.616,0.08 -0.812,0.241 -0.126,0.102 -0.189,0.24 -0.189,0.412 0,0.157 0.059,0.291 0.177,0.403 0.15,0.142 0.514,0.29 1.093,0.444 0.578,0.154 1.006,0.314 1.284,0.478 0.277,0.165 0.494,0.39 0.651,0.675 0.156,0.286 0.235,0.639 0.235,1.059 0,0.38 -0.094,0.737 -0.282,1.069 -0.187,0.332 -0.452,0.579 -0.795,0.741 -0.343,0.161 -0.77,0.242 -1.282,0.242 -0.745,0 -1.317,-0.194 -1.716,-0.582 -0.399,-0.388 -0.637,-0.954 -0.715,-1.697 z"
   style="fill:#ffffff;fill-rule:nonzero"
   id="path91"
   inkscape:connector-curvature="0" />&#10;            <path
   d="m 25.583,211.646 v -6.643 h 1.19 v 2.615 h 2.33 v -2.615 h 1.189 v 6.643 h -1.189 v -2.904 h -2.33 v 2.904 z"
   style="fill:#ffffff;fill-rule:nonzero"
   id="path93"
   inkscape:connector-curvature="0" />&#10;            <path
   d="M 36.834,211.646 H 35.54 l -0.514,-1.509 h -2.355 l -0.486,1.509 h -1.262 l 2.295,-6.643 h 1.257 z m -2.19,-2.628 -0.812,-2.465 -0.795,2.465 z"
   style="fill:#ffffff;fill-rule:nonzero"
   id="path95"
   inkscape:connector-curvature="0" />&#10;            <path
   d="m 37.465,211.646 v -6.643 h 1.908 c 0.724,0 1.195,0.034 1.415,0.1 0.337,0.1 0.62,0.317 0.847,0.65 0.228,0.334 0.342,0.765 0.342,1.294 0,0.408 -0.066,0.751 -0.197,1.029 -0.131,0.278 -0.298,0.496 -0.5,0.654 -0.202,0.159 -0.408,0.264 -0.617,0.315 -0.284,0.064 -0.695,0.096 -1.233,0.096 h -0.776 v 2.505 z m 1.189,-5.519 v 1.885 h 0.651 c 0.469,0 0.782,-0.034 0.94,-0.104 0.158,-0.069 0.282,-0.178 0.372,-0.326 0.09,-0.148 0.134,-0.32 0.134,-0.517 0,-0.241 -0.062,-0.441 -0.188,-0.598 -0.126,-0.157 -0.286,-0.255 -0.479,-0.294 -0.142,-0.031 -0.427,-0.046 -0.855,-0.046 z"
   style="fill:#ffffff;fill-rule:nonzero"
   id="path97"
   inkscape:connector-curvature="0" />&#10;            <path
   d="m 42.953,211.646 v -6.643 h 4.368 v 1.124 H 44.143 V 207.6 H 47.1 v 1.119 h -2.957 v 1.808 h 3.291 v 1.119 z"
   style="fill:#ffffff;fill-rule:nonzero"
   id="path99"
   inkscape:connector-curvature="0" />&#10;            <path
   d="m 26.404,266.731 v -5.282 h -1.737 v -1.076 h 4.65 v 1.076 h -1.732 v 5.282 z"
   style="fill:#ffffff;fill-rule:nonzero"
   id="path101"
   inkscape:connector-curvature="0" />&#10;            <path
   d="m 30.084,266.731 v -6.358 h 2.486 c 0.626,0 1.08,0.057 1.364,0.171 0.283,0.115 0.51,0.318 0.68,0.61 0.17,0.292 0.256,0.626 0.256,1.002 0,0.477 -0.13,0.871 -0.388,1.181 -0.258,0.311 -0.644,0.507 -1.157,0.588 0.255,0.162 0.466,0.34 0.632,0.533 0.167,0.194 0.391,0.538 0.673,1.033 l 0.715,1.24 h -1.413 l -0.855,-1.384 c -0.303,-0.494 -0.511,-0.806 -0.622,-0.934 -0.112,-0.129 -0.23,-0.217 -0.356,-0.265 -0.125,-0.047 -0.323,-0.071 -0.594,-0.071 h -0.24 v 2.654 z m 1.181,-3.669 h 0.874 c 0.567,0 0.921,-0.026 1.062,-0.078 0.141,-0.052 0.252,-0.142 0.331,-0.269 0.08,-0.127 0.12,-0.286 0.12,-0.477 0,-0.214 -0.052,-0.387 -0.158,-0.518 -0.105,-0.132 -0.253,-0.215 -0.445,-0.25 -0.095,-0.014 -0.383,-0.021 -0.862,-0.021 h -0.922 z"
   style="fill:#ffffff;fill-rule:nonzero"
   id="path103"
   inkscape:connector-curvature="0" />&#10;            <rect
   x="35.946999"
   y="260.37299"
   width="1.181"
   height="6.3579998"
   style="fill:#ffffff;fill-rule:nonzero"
   id="rect105" />&#10;            <path
   d="m 40.976,264.393 v -1.071 h 2.547 v 2.533 c -0.247,0.26 -0.606,0.489 -1.076,0.687 -0.469,0.198 -0.945,0.297 -1.427,0.297 -0.612,0 -1.145,-0.139 -1.6,-0.418 -0.455,-0.279 -0.797,-0.678 -1.026,-1.197 -0.229,-0.519 -0.343,-1.084 -0.343,-1.694 0,-0.662 0.127,-1.25 0.383,-1.765 0.255,-0.514 0.629,-0.909 1.121,-1.184 0.376,-0.211 0.843,-0.316 1.401,-0.316 0.727,0 1.294,0.165 1.703,0.496 0.408,0.331 0.671,0.789 0.788,1.373 l -1.173,0.238 c -0.083,-0.312 -0.238,-0.558 -0.465,-0.739 -0.228,-0.181 -0.512,-0.271 -0.853,-0.271 -0.516,0 -0.926,0.178 -1.231,0.533 -0.305,0.356 -0.457,0.884 -0.457,1.583 0,0.755 0.154,1.321 0.463,1.698 0.309,0.377 0.713,0.566 1.214,0.566 0.247,0 0.495,-0.053 0.744,-0.158 0.249,-0.106 0.462,-0.234 0.641,-0.384 v -0.807 z"
   style="fill:#ffffff;fill-rule:nonzero"
   id="path107"
   inkscape:connector-curvature="0" />&#10;            <path
   d="m 24.728,308.393 1.013,0.395 c -0.155,0.694 -0.414,1.209 -0.775,1.546 -0.361,0.337 -0.82,0.505 -1.375,0.505 -0.687,0 -1.252,-0.288 -1.695,-0.865 -0.442,-0.577 -0.663,-1.365 -0.663,-2.366 0,-1.058 0.222,-1.88 0.667,-2.465 0.445,-0.586 1.03,-0.878 1.755,-0.878 0.633,0 1.147,0.23 1.542,0.689 0.236,0.272 0.412,0.662 0.53,1.171 l -1.035,0.304 c -0.061,-0.33 -0.188,-0.59 -0.383,-0.781 -0.194,-0.191 -0.43,-0.286 -0.707,-0.286 -0.384,0 -0.695,0.169 -0.934,0.507 -0.239,0.339 -0.358,0.886 -0.358,1.644 0,0.804 0.117,1.376 0.353,1.717 0.235,0.341 0.541,0.512 0.917,0.512 0.278,0 0.517,-0.108 0.717,-0.325 0.2,-0.217 0.344,-0.558 0.431,-1.024 z"
   style="fill:#ffffff;fill-rule:nonzero"
   id="path109"
   inkscape:connector-curvature="0" />&#10;            <path
   d="m 26.666,310.731 v -6.306 h 1.045 v 5.235 h 2.598 v 1.071 z"
   style="fill:#ffffff;fill-rule:nonzero"
   id="path111"
   inkscape:connector-curvature="0" />&#10;            <path
   d="m 30.842,307.591 c 0,-0.648 0.079,-1.191 0.236,-1.631 0.118,-0.323 0.279,-0.614 0.482,-0.871 0.204,-0.258 0.427,-0.448 0.669,-0.573 0.323,-0.167 0.695,-0.251 1.116,-0.251 0.762,0 1.372,0.29 1.83,0.871 0.458,0.582 0.687,1.39 0.687,2.425 0,1.026 -0.227,1.829 -0.682,2.409 -0.454,0.579 -1.061,0.869 -1.821,0.869 -0.77,0 -1.382,-0.288 -1.836,-0.865 -0.454,-0.577 -0.681,-1.371 -0.681,-2.383 z m 1.077,-0.043 c 0,0.72 0.135,1.265 0.406,1.637 0.27,0.371 0.614,0.557 1.03,0.557 0.417,0 0.759,-0.184 1.026,-0.553 0.267,-0.369 0.401,-0.921 0.401,-1.659 0,-0.728 -0.13,-1.272 -0.391,-1.63 -0.26,-0.359 -0.605,-0.538 -1.036,-0.538 -0.43,0 -0.777,0.181 -1.041,0.544 -0.264,0.363 -0.395,0.91 -0.395,1.642 z"
   style="fill:#ffffff;fill-rule:nonzero"
   id="path113"
   inkscape:connector-curvature="0" />&#10;            <path
   d="m 39.989,308.393 1.013,0.395 c -0.156,0.694 -0.414,1.209 -0.775,1.546 -0.361,0.337 -0.82,0.505 -1.375,0.505 -0.687,0 -1.252,-0.288 -1.695,-0.865 -0.442,-0.577 -0.663,-1.365 -0.663,-2.366 0,-1.058 0.222,-1.88 0.667,-2.465 0.445,-0.586 1.03,-0.878 1.754,-0.878 0.633,0 1.148,0.23 1.543,0.689 0.235,0.272 0.412,0.662 0.53,1.171 l -1.035,0.304 c -0.061,-0.33 -0.189,-0.59 -0.383,-0.781 -0.194,-0.191 -0.43,-0.286 -0.708,-0.286 -0.383,0 -0.694,0.169 -0.933,0.507 -0.239,0.339 -0.359,0.886 -0.359,1.644 0,0.804 0.118,1.376 0.353,1.717 0.236,0.341 0.542,0.512 0.918,0.512 0.278,0 0.517,-0.108 0.717,-0.325 0.2,-0.217 0.343,-0.558 0.431,-1.024 z"
   style="fill:#ffffff;fill-rule:nonzero"
   id="path115"
   inkscape:connector-curvature="0" />&#10;            <path
   d="m 41.912,310.731 v -6.358 h 1.045 v 2.823 l 2.111,-2.823 h 1.405 l -1.948,2.476 2.054,3.882 h -1.352 l -1.422,-2.984 -0.848,1.063 v 1.921 z"
   style="fill:#ffffff;fill-rule:nonzero"
   id="path117"
   inkscape:connector-curvature="0" />&#10;            <path
   d="m 59.499,310.912 v -5.744 H 60.7 v 2.261 h 2.354 v -2.261 h 1.202 v 5.744 h -1.202 v -2.511 H 60.7 v 2.511 z"
   style="fill:#000000;fill-rule:nonzero"
   id="path119"
   inkscape:connector-curvature="0" />&#10;            <rect
   x="65.460999"
   y="305.168"
   width="1.201"
   height="5.7449999"
   style="fill:#000000;fill-rule:nonzero"
   id="rect121" />&#10;            <path
   d="m 70.574,308.8 v -0.968 h 2.59 v 2.289 c -0.252,0.235 -0.616,0.442 -1.094,0.621 -0.478,0.179 -0.961,0.268 -1.451,0.268 -0.622,0 -1.165,-0.126 -1.627,-0.378 -0.463,-0.252 -0.811,-0.612 -1.043,-1.081 -0.233,-0.469 -0.349,-0.979 -0.349,-1.531 0,-0.598 0.13,-1.129 0.389,-1.594 0.26,-0.465 0.64,-0.822 1.141,-1.07 0.381,-0.191 0.856,-0.286 1.424,-0.286 0.739,0 1.316,0.149 1.731,0.448 0.415,0.3 0.683,0.713 0.802,1.241 l -1.194,0.215 c -0.083,-0.282 -0.241,-0.505 -0.472,-0.668 -0.232,-0.163 -0.521,-0.245 -0.867,-0.245 -0.525,0 -0.942,0.161 -1.252,0.482 -0.31,0.321 -0.465,0.798 -0.465,1.43 0,0.682 0.157,1.194 0.471,1.535 0.314,0.34 0.725,0.511 1.234,0.511 0.252,0 0.504,-0.048 0.757,-0.143 0.253,-0.095 0.47,-0.211 0.651,-0.347 V 308.8 Z"
   style="fill:#000000;fill-rule:nonzero"
   id="path123"
   inkscape:connector-curvature="0" />&#10;            <path
   d="m 74.276,310.912 v -5.744 h 1.201 v 2.261 h 2.354 v -2.261 h 1.201 v 5.744 h -1.201 v -2.511 h -2.354 v 2.511 z"
   style="fill:#000000;fill-rule:nonzero"
   id="path125"
   inkscape:connector-curvature="0" />&#10;            <path
   d="m 95.528,310.912 v -5.697 h 1.201 v 4.729 h 2.987 v 0.968 z"
   style="fill:#000000;fill-rule:nonzero"
   id="path127"
   inkscape:connector-curvature="0" />&#10;            <path
   d="m 100.329,308.075 c 0,-0.585 0.09,-1.076 0.272,-1.473 0.135,-0.293 0.319,-0.555 0.553,-0.788 0.235,-0.232 0.491,-0.405 0.77,-0.517 0.37,-0.151 0.798,-0.227 1.282,-0.227 0.877,0 1.578,0.262 2.104,0.787 0.527,0.526 0.79,1.256 0.79,2.191 0,0.927 -0.261,1.653 -0.784,2.177 -0.522,0.523 -1.22,0.785 -2.094,0.785 -0.884,0 -1.588,-0.26 -2.11,-0.781 -0.522,-0.522 -0.783,-1.239 -0.783,-2.154 z m 1.237,-0.039 c 0,0.651 0.156,1.144 0.467,1.479 0.311,0.336 0.706,0.504 1.185,0.504 0.479,0 0.872,-0.167 1.179,-0.5 0.307,-0.333 0.461,-0.832 0.461,-1.499 0,-0.658 -0.15,-1.149 -0.449,-1.473 -0.299,-0.324 -0.696,-0.486 -1.191,-0.486 -0.495,0 -0.894,0.164 -1.197,0.492 -0.303,0.328 -0.455,0.822 -0.455,1.483 z"
   style="fill:#000000;fill-rule:nonzero"
   id="path129"
   inkscape:connector-curvature="0" />&#10;            <path
   d="m 107.881,310.912 -1.42,-5.744 h 1.23 l 0.896,3.946 1.088,-3.946 h 1.429 l 1.043,4.012 0.913,-4.012 h 1.209 l -1.445,5.744 h -1.274 l -1.185,-4.294 -1.181,4.294 z"
   style="fill:#000000;fill-rule:nonzero"
   id="path131"
   inkscape:connector-curvature="0" />&#10;            <path
   d="m 133.513,305.168 h 1.252 v 3.111 c 0,0.494 0.016,0.814 0.047,0.96 0.054,0.235 0.181,0.424 0.383,0.566 0.202,0.143 0.478,0.214 0.828,0.214 0.355,0 0.623,-0.067 0.804,-0.202 0.18,-0.134 0.289,-0.3 0.326,-0.496 0.036,-0.196 0.055,-0.521 0.055,-0.975 v -3.178 h 1.253 v 3.017 c 0,0.69 -0.034,1.177 -0.102,1.462 -0.068,0.284 -0.193,0.525 -0.375,0.721 -0.182,0.196 -0.425,0.352 -0.73,0.468 -0.304,0.116 -0.702,0.174 -1.193,0.174 -0.593,0 -1.042,-0.063 -1.348,-0.19 -0.307,-0.126 -0.549,-0.291 -0.726,-0.493 -0.178,-0.203 -0.295,-0.415 -0.352,-0.637 -0.081,-0.329 -0.122,-0.815 -0.122,-1.458 z"
   style="fill:#000000;fill-rule:nonzero"
   id="path133"
   inkscape:connector-curvature="0" />&#10;            <path
   d="m 139.794,310.912 v -5.744 h 1.219 l 2.539,3.836 v -3.836 h 1.164 v 5.744 h -1.257 l -2.501,-3.746 v 3.746 z"
   style="fill:#000000;fill-rule:nonzero"
   id="path135"
   inkscape:connector-curvature="0" />&#10;            <rect
   x="146.00301"
   y="305.168"
   width="1.253"
   height="5.7449999"
   style="fill:#000000;fill-rule:nonzero"
   id="rect137" />&#10;            <path
   d="m 172.457,305.168 h 2.211 c 0.438,0 0.765,0.019 0.98,0.057 0.215,0.037 0.407,0.116 0.577,0.237 0.17,0.12 0.312,0.28 0.425,0.48 0.113,0.2 0.17,0.424 0.17,0.672 0,0.269 -0.07,0.516 -0.21,0.74 -0.139,0.225 -0.329,0.393 -0.568,0.506 0.337,0.102 0.597,0.275 0.778,0.521 0.181,0.246 0.271,0.534 0.271,0.866 0,0.261 -0.058,0.515 -0.175,0.762 -0.117,0.247 -0.277,0.444 -0.479,0.592 -0.203,0.147 -0.453,0.238 -0.75,0.272 -0.186,0.021 -0.635,0.034 -1.347,0.039 h -1.883 z m 1.117,0.956 v 1.328 h 0.732 c 0.435,0 0.706,-0.006 0.811,-0.019 0.192,-0.024 0.342,-0.092 0.451,-0.206 0.11,-0.114 0.165,-0.263 0.165,-0.449 0,-0.177 -0.048,-0.322 -0.142,-0.433 -0.094,-0.111 -0.235,-0.178 -0.421,-0.202 -0.11,-0.013 -0.429,-0.019 -0.955,-0.019 z m 0,2.284 v 1.536 h 1.034 c 0.403,0 0.658,-0.011 0.766,-0.035 0.166,-0.031 0.301,-0.108 0.406,-0.229 0.104,-0.122 0.156,-0.284 0.156,-0.488 0,-0.172 -0.04,-0.319 -0.12,-0.439 -0.081,-0.12 -0.197,-0.207 -0.349,-0.262 -0.153,-0.055 -0.483,-0.083 -0.991,-0.083 z"
   style="fill:#000000;fill-rule:nonzero"
   id="path139"
   inkscape:connector-curvature="0" />&#10;            <rect
   x="178.00101"
   y="305.168"
   width="1.117"
   height="5.7449999"
   style="fill:#000000;fill-rule:nonzero"
   id="rect141" />&#10;            <path
   d="m 54.725,267.091 v -6.358 h 3.834 v 1.076 h -2.705 v 1.505 h 2.335 v 1.075 h -2.335 v 2.702 z"
   style="fill:#ffffff;fill-rule:nonzero"
   id="path143"
   inkscape:connector-curvature="0" />&#10;            <path
   d="m 59.494,267.091 v -6.358 h 2.377 c 0.598,0 1.032,0.057 1.303,0.172 0.271,0.114 0.488,0.317 0.651,0.609 0.162,0.292 0.244,0.626 0.244,1.002 0,0.477 -0.124,0.871 -0.37,1.181 -0.247,0.311 -0.616,0.507 -1.107,0.588 0.244,0.162 0.446,0.34 0.605,0.534 0.159,0.193 0.373,0.537 0.643,1.032 l 0.683,1.24 h -1.351 l -0.816,-1.383 c -0.29,-0.495 -0.489,-0.806 -0.596,-0.935 -0.106,-0.129 -0.22,-0.217 -0.339,-0.265 -0.12,-0.047 -0.309,-0.071 -0.569,-0.071 h -0.228 v 2.654 z m 1.13,-3.669 h 0.835 c 0.542,0 0.88,-0.026 1.015,-0.078 0.135,-0.052 0.24,-0.142 0.317,-0.269 0.076,-0.127 0.114,-0.286 0.114,-0.477 0,-0.214 -0.05,-0.387 -0.151,-0.518 -0.1,-0.132 -0.242,-0.215 -0.425,-0.25 -0.092,-0.014 -0.366,-0.021 -0.824,-0.021 h -0.881 z"
   style="fill:#ffffff;fill-rule:nonzero"
   id="path145"
   inkscape:connector-curvature="0" />&#10;            <path
   d="m 65.133,267.091 v -6.358 h 4.148 v 1.076 h -3.018 v 1.409 h 2.808 v 1.071 h -2.808 v 1.731 h 3.124 v 1.071 z"
   style="fill:#ffffff;fill-rule:nonzero"
   id="path147"
   inkscape:connector-curvature="0" />&#10;            <path
   d="m 70.345,267.091 v -6.358 h 4.147 v 1.076 h -3.018 v 1.409 h 2.809 v 1.071 h -2.809 v 1.731 h 3.125 v 1.071 z"
   style="fill:#ffffff;fill-rule:nonzero"
   id="path149"
   inkscape:connector-curvature="0" />&#10;            <path
   d="m 75.072,267.091 v -1.158 l 2.938,-4.124 h -2.606 v -1.076 h 4.094 v 0.998 l -3.064,4.289 h 3.182 v 1.071 z"
   style="fill:#ffffff;fill-rule:nonzero"
   id="path151"
   inkscape:connector-curvature="0" />&#10;            <path
   d="m 80.33,267.091 v -6.358 h 4.147 v 1.076 h -3.018 v 1.409 h 2.808 v 1.071 h -2.808 v 1.731 h 3.125 v 1.071 z"
   style="fill:#ffffff;fill-rule:nonzero"
   id="path153"
   inkscape:connector-curvature="0" />&#10;            <path
   d="m 95.175,267.515 v -6.239 h 3.795 v 1.056 h -2.677 v 1.476 h 2.311 v 1.056 h -2.311 v 2.651 z"
   style="fill:#ffffff;fill-rule:nonzero"
   id="path155"
   inkscape:connector-curvature="0" />&#10;            <path
   d="m 99.896,267.515 v -6.239 h 2.352 c 0.592,0 1.022,0.056 1.29,0.168 0.268,0.112 0.483,0.312 0.644,0.598 0.161,0.287 0.242,0.614 0.242,0.983 0,0.468 -0.122,0.855 -0.367,1.16 -0.244,0.305 -0.609,0.497 -1.095,0.577 0.242,0.158 0.441,0.333 0.599,0.523 0.157,0.19 0.369,0.528 0.636,1.013 l 0.676,1.217 h -1.337 l -0.808,-1.358 c -0.287,-0.485 -0.483,-0.79 -0.589,-0.917 -0.106,-0.126 -0.218,-0.212 -0.336,-0.259 -0.119,-0.047 -0.306,-0.071 -0.563,-0.071 h -0.227 v 2.605 z m 1.117,-3.6 h 0.828 c 0.536,0 0.871,-0.026 1.004,-0.077 0.133,-0.051 0.238,-0.139 0.314,-0.264 0.075,-0.125 0.113,-0.281 0.113,-0.468 0,-0.21 -0.05,-0.379 -0.149,-0.508 -0.1,-0.13 -0.24,-0.211 -0.421,-0.245 -0.091,-0.014 -0.363,-0.021 -0.816,-0.021 h -0.873 z"
   style="fill:#ffffff;fill-rule:nonzero"
   id="path157"
   inkscape:connector-curvature="0" />&#10;            <path
   d="m 105.477,267.515 v -6.239 h 4.105 v 1.056 h -2.987 v 1.383 h 2.78 v 1.051 h -2.78 v 1.698 h 3.093 v 1.051 z"
   style="fill:#ffffff;fill-rule:nonzero"
   id="path159"
   inkscape:connector-curvature="0" />&#10;            <path
   d="m 115.092,266.723 c 0.275,0.222 0.573,0.398 0.895,0.528 l -0.411,0.889 c -0.169,-0.056 -0.334,-0.134 -0.495,-0.234 -0.035,-0.019 -0.283,-0.204 -0.744,-0.553 -0.363,0.179 -0.764,0.268 -1.205,0.268 -0.851,0 -1.517,-0.282 -1.999,-0.847 -0.483,-0.564 -0.724,-1.357 -0.724,-2.378 0,-1.019 0.242,-1.811 0.725,-2.377 0.484,-0.566 1.14,-0.849 1.968,-0.849 0.821,0 1.471,0.283 1.952,0.849 0.481,0.566 0.722,1.358 0.722,2.377 0,0.539 -0.067,1.012 -0.2,1.421 -0.101,0.312 -0.262,0.614 -0.484,0.906 z m -0.899,-0.71 c 0.144,-0.19 0.251,-0.42 0.323,-0.69 0.072,-0.269 0.108,-0.578 0.108,-0.927 0,-0.721 -0.141,-1.259 -0.423,-1.615 -0.282,-0.357 -0.651,-0.535 -1.107,-0.535 -0.455,0 -0.825,0.179 -1.108,0.537 -0.283,0.357 -0.425,0.895 -0.425,1.613 0,0.729 0.142,1.274 0.425,1.636 0.283,0.362 0.641,0.542 1.074,0.542 0.162,0 0.314,-0.029 0.457,-0.089 -0.226,-0.167 -0.457,-0.298 -0.691,-0.391 l 0.314,-0.72 c 0.367,0.142 0.718,0.355 1.053,0.639 z"
   style="fill:#ffffff;fill-rule:nonzero"
   id="path161"
   inkscape:connector-curvature="0" />&#10;            <path
   d="m 135.21,267.515 v -6.239 h 4.026 v 1.056 h -2.84 v 1.476 h 2.452 v 1.056 h -2.452 v 2.651 z"
   style="fill:#ffffff;fill-rule:nonzero"
   id="path163"
   inkscape:connector-curvature="0" />&#10;            <path
   d="m 140.198,267.515 v -6.239 h 1.775 l 1.066,4.256 1.053,-4.256 h 1.779 v 6.239 h -1.101 v -4.911 l -1.166,4.911 h -1.142 l -1.162,-4.911 v 4.911 z"
   style="fill:#ffffff;fill-rule:nonzero"
   id="path165"
   inkscape:connector-curvature="0" />&#10;            <path
   d="m 164.211,267.441 v -6.436 h 1.143 v 5.343 h 2.843 v 1.093 z"
   style="fill:#ffffff;fill-rule:nonzero"
   id="path167"
   inkscape:connector-curvature="0" />&#10;            <path
   d="m 169.011,267.441 v -6.489 h 4.198 v 1.098 h -3.055 v 1.438 h 2.843 v 1.094 h -2.843 v 1.766 h 3.163 v 1.093 z"
   style="fill:#ffffff;fill-rule:nonzero"
   id="path169"
   inkscape:connector-curvature="0" />&#10;            <path
   d="m 175.731,267.441 -2.024,-6.489 h 1.24 l 1.433,4.803 1.386,-4.803 h 1.213 l -2.028,6.489 z"
   style="fill:#ffffff;fill-rule:nonzero"
   id="path171"
   inkscape:connector-curvature="0" />&#10;            <path
   d="m 179.562,267.441 v -6.489 h 4.198 v 1.098 h -3.055 v 1.438 h 2.842 v 1.094 h -2.842 v 1.766 h 3.163 v 1.093 z"
   style="fill:#ffffff;fill-rule:nonzero"
   id="path173"
   inkscape:connector-curvature="0" />&#10;            <path
   d="m 184.868,267.441 v -6.436 h 1.143 v 5.343 h 2.842 v 1.093 z"
   style="fill:#ffffff;fill-rule:nonzero"
   id="path175"
   inkscape:connector-curvature="0" />&#10;            <path
   d="m 91.032,209.494 1.191,-0.068 c 0.017,0.414 0.082,0.693 0.195,0.838 0.183,0.236 0.521,0.354 1.013,0.354 0.41,0 0.706,-0.08 0.889,-0.24 0.183,-0.161 0.274,-0.354 0.274,-0.58 0,-0.197 -0.075,-0.363 -0.224,-0.499 -0.105,-0.1 -0.394,-0.261 -0.866,-0.485 -0.472,-0.223 -0.817,-0.41 -1.034,-0.559 -0.217,-0.15 -0.388,-0.344 -0.513,-0.583 -0.124,-0.238 -0.186,-0.518 -0.186,-0.838 0,-0.559 0.185,-1.022 0.556,-1.391 0.371,-0.369 0.908,-0.553 1.611,-0.553 0.714,0 1.267,0.183 1.659,0.548 0.391,0.366 0.606,0.852 0.645,1.46 l -1.2,0.058 c -0.03,-0.317 -0.135,-0.56 -0.315,-0.729 -0.18,-0.169 -0.446,-0.254 -0.797,-0.254 -0.346,0 -0.593,0.067 -0.742,0.2 -0.148,0.132 -0.222,0.3 -0.222,0.503 0,0.19 0.068,0.347 0.204,0.471 0.135,0.127 0.436,0.3 0.901,0.521 0.7,0.329 1.146,0.597 1.337,0.802 0.285,0.302 0.427,0.69 0.427,1.164 0,0.587 -0.212,1.087 -0.637,1.503 -0.425,0.415 -1.017,0.623 -1.775,0.623 -0.523,0 -0.976,-0.096 -1.36,-0.288 -0.383,-0.192 -0.654,-0.459 -0.811,-0.8 -0.158,-0.341 -0.232,-0.734 -0.22,-1.178 z"
   style="fill:#ffffff;fill-rule:nonzero"
   id="path177"
   inkscape:connector-curvature="0" />&#10;            <path
   d="m 96.545,211.646 1.275,-6.643 h 1.25 l -1.059,5.533 h 3.097 l -0.211,1.11 z"
   style="fill:#ffffff;fill-rule:nonzero"
   id="path179"
   inkscape:connector-curvature="0" />&#10;            <path
   d="m 102.101,209.041 c 0,-0.393 0.054,-0.807 0.162,-1.242 0.141,-0.583 0.356,-1.089 0.645,-1.518 0.289,-0.429 0.654,-0.768 1.094,-1.017 0.44,-0.249 0.941,-0.374 1.503,-0.374 0.753,0 1.361,0.255 1.825,0.766 0.464,0.511 0.696,1.187 0.696,2.03 0,0.701 -0.151,1.379 -0.453,2.035 -0.302,0.655 -0.711,1.16 -1.229,1.513 -0.518,0.353 -1.103,0.53 -1.756,0.53 -0.568,0 -1.044,-0.14 -1.429,-0.421 -0.384,-0.281 -0.657,-0.629 -0.818,-1.045 -0.16,-0.415 -0.24,-0.834 -0.24,-1.257 z m 1.237,-0.027 c 0,0.456 0.127,0.838 0.382,1.146 0.255,0.308 0.589,0.462 1.005,0.462 0.337,0 0.662,-0.121 0.973,-0.364 0.312,-0.244 0.569,-0.612 0.773,-1.106 0.203,-0.494 0.305,-0.975 0.305,-1.443 0,-0.523 -0.129,-0.933 -0.386,-1.231 -0.258,-0.297 -0.586,-0.446 -0.984,-0.446 -0.612,0 -1.11,0.311 -1.493,0.934 -0.383,0.622 -0.575,1.305 -0.575,2.048 z"
   style="fill:#ffffff;fill-rule:nonzero"
   id="path181"
   inkscape:connector-curvature="0" />&#10;            <path
   d="m 109.57,211.646 h -1.254 l 1.275,-6.643 h 2.474 c 0.44,0 0.789,0.057 1.045,0.17 0.256,0.114 0.458,0.301 0.608,0.562 0.149,0.262 0.224,0.573 0.224,0.936 0,0.335 -0.059,0.662 -0.178,0.979 -0.12,0.317 -0.266,0.571 -0.439,0.761 -0.173,0.19 -0.359,0.335 -0.558,0.433 -0.199,0.098 -0.468,0.173 -0.805,0.224 -0.197,0.03 -0.565,0.045 -1.105,0.045 h -0.801 z m 0.693,-3.634 h 0.387 c 0.661,0 1.103,-0.045 1.324,-0.136 0.221,-0.09 0.396,-0.235 0.523,-0.435 0.127,-0.199 0.191,-0.418 0.191,-0.657 0,-0.16 -0.032,-0.291 -0.097,-0.394 -0.065,-0.103 -0.157,-0.177 -0.274,-0.224 -0.118,-0.047 -0.38,-0.07 -0.787,-0.07 h -0.897 z"
   style="fill:#ffffff;fill-rule:nonzero"
   id="path183"
   inkscape:connector-curvature="0" />&#10;            <path
   d="m 113.992,211.646 1.27,-6.643 h 4.514 l -0.212,1.111 h -3.259 l -0.291,1.509 h 3.151 l -0.212,1.11 h -3.151 l -0.382,1.803 h 3.542 l -0.216,1.11 z"
   style="fill:#ffffff;fill-rule:nonzero"
   id="path185"
   inkscape:connector-curvature="0" />&#10;            <path
   d="m 157.457,211.947 v -1.348 c 0.659,0.354 1.222,0.531 1.691,0.531 0.327,0 0.586,-0.094 0.775,-0.282 0.188,-0.187 0.283,-0.442 0.283,-0.764 0,-0.255 -0.06,-0.47 -0.178,-0.645 -0.119,-0.176 -0.343,-0.383 -0.674,-0.624 l -0.409,-0.292 c -0.548,-0.397 -0.935,-0.776 -1.161,-1.139 -0.226,-0.363 -0.339,-0.787 -0.339,-1.271 0,-0.648 0.185,-1.169 0.556,-1.561 0.37,-0.393 0.86,-0.59 1.469,-0.59 0.488,0 1.037,0.091 1.649,0.271 v 1.258 c -0.625,-0.301 -1.12,-0.451 -1.484,-0.451 -0.281,0 -0.506,0.081 -0.676,0.242 -0.169,0.161 -0.254,0.372 -0.254,0.634 0,0.216 0.06,0.405 0.178,0.568 0.118,0.163 0.342,0.363 0.67,0.6 l 0.438,0.313 c 0.589,0.425 0.996,0.816 1.219,1.174 0.223,0.357 0.335,0.792 0.335,1.306 0,0.729 -0.211,1.3 -0.633,1.715 -0.421,0.414 -1.003,0.621 -1.744,0.621 -0.49,0 -1.061,-0.089 -1.711,-0.266 z"
   style="fill:#ffffff;fill-rule:nonzero"
   id="path187"
   inkscape:connector-curvature="0" />&#10;            <path
   d="m 162.636,212.016 v -7.857 h 1.686 l 1.472,5.527 1.517,-5.527 h 1.479 v 7.857 h -1.174 v -5.93 l -1.492,5.405 h -1.025 l -1.463,-5.485 v 6.01 z"
   style="fill:#ffffff;fill-rule:nonzero"
   id="path189"
   inkscape:connector-curvature="0" />&#10;            <path
   d="m 173.002,212.213 c -0.929,0 -1.671,-0.375 -2.228,-1.126 -0.556,-0.75 -0.835,-1.75 -0.835,-2.999 0,-1.264 0.28,-2.267 0.839,-3.011 0.56,-0.743 1.315,-1.115 2.265,-1.115 0.945,0 1.698,0.372 2.259,1.115 0.561,0.744 0.841,1.742 0.841,2.995 0,1.281 -0.28,2.291 -0.841,3.031 -0.561,0.74 -1.327,1.11 -2.3,1.11 z m 0.017,-1.083 c 0.545,0 0.977,-0.276 1.295,-0.826 0.319,-0.55 0.478,-1.296 0.478,-2.238 0,-0.913 -0.16,-1.646 -0.48,-2.198 -0.319,-0.552 -0.742,-0.828 -1.269,-0.828 -0.531,0 -0.956,0.276 -1.275,0.828 -0.318,0.552 -0.477,1.29 -0.477,2.214 0,0.917 0.158,1.654 0.475,2.211 0.317,0.558 0.735,0.837 1.253,0.837 z"
   style="fill:#ffffff;fill-rule:nonzero"
   id="path191"
   inkscape:connector-curvature="0" />&#10;            <path
   d="m 179.971,212.213 c -0.929,0 -1.672,-0.375 -2.228,-1.126 -0.557,-0.75 -0.835,-1.75 -0.835,-2.999 0,-1.264 0.28,-2.267 0.839,-3.011 0.559,-0.743 1.314,-1.115 2.265,-1.115 0.945,0 1.698,0.372 2.259,1.115 0.56,0.744 0.841,1.742 0.841,2.995 0,1.281 -0.281,2.291 -0.841,3.031 -0.561,0.74 -1.328,1.11 -2.3,1.11 z m 0.016,-1.083 c 0.546,0 0.978,-0.276 1.296,-0.826 0.318,-0.55 0.477,-1.296 0.477,-2.238 0,-0.913 -0.16,-1.646 -0.479,-2.198 -0.32,-0.552 -0.743,-0.828 -1.269,-0.828 -0.532,0 -0.957,0.276 -1.275,0.828 -0.318,0.552 -0.478,1.29 -0.478,2.214 0,0.917 0.159,1.654 0.476,2.211 0.317,0.558 0.734,0.837 1.252,0.837 z"
   style="fill:#ffffff;fill-rule:nonzero"
   id="path193"
   inkscape:connector-curvature="0" />&#10;            <path
   d="m 185.774,212.016 v -6.78 h -2.191 v -1.077 h 5.658 v 1.077 h -2.19 v 6.78 z"
   style="fill:#ffffff;fill-rule:nonzero"
   id="path195"
   inkscape:connector-curvature="0" />&#10;            <path
   d="m 190.097,212.016 v -7.857 h 1.273 v 3.191 h 2.53 v -3.191 h 1.273 v 7.857 H 193.9 v -3.583 h -2.53 v 3.583 z"
   style="fill:#ffffff;fill-rule:nonzero"
   id="path197"
   inkscape:connector-curvature="0" />&#10;            <path
   d="m 6.57,68.609 v -5.026 h 1.023 v 4.172 h 2.544 v 0.854 z"
   style="fill:#ffffff;fill-rule:nonzero"
   id="path199"
   inkscape:connector-curvature="0" />&#10;            <path
   d="m 10.866,68.609 v -5.068 h 1.642 c 0.622,0 1.028,0.026 1.217,0.076 0.29,0.076 0.533,0.242 0.729,0.496 0.196,0.255 0.294,0.584 0.294,0.987 0,0.311 -0.056,0.573 -0.169,0.785 -0.113,0.212 -0.257,0.378 -0.431,0.499 -0.174,0.121 -0.35,0.201 -0.53,0.241 -0.244,0.048 -0.598,0.072 -1.061,0.072 H 11.89 v 1.912 z m 1.024,-4.21 v 1.437 h 0.56 c 0.403,0 0.672,-0.026 0.808,-0.079 0.136,-0.053 0.243,-0.136 0.32,-0.249 0.077,-0.113 0.116,-0.244 0.116,-0.394 0,-0.184 -0.054,-0.336 -0.163,-0.456 -0.108,-0.12 -0.245,-0.195 -0.411,-0.225 -0.122,-0.023 -0.367,-0.034 -0.736,-0.034 z"
   style="fill:#ffffff;fill-rule:nonzero"
   id="path201"
   inkscape:connector-curvature="0" />&#10;            <path
   d="m 6.546,76.609 v -5.068 h 1.023 v 1.995 h 2.005 v -1.995 h 1.023 v 5.068 H 9.574 V 74.393 H 7.569 v 2.216 z"
   style="fill:#ffffff;fill-rule:nonzero"
   id="path203"
   inkscape:connector-curvature="0" />&#10;            <path
   d="m 11.651,71.541 h 1.87 c 0.422,0 0.743,0.033 0.964,0.097 0.298,0.088 0.552,0.243 0.764,0.467 0.212,0.223 0.374,0.497 0.484,0.821 0.111,0.323 0.166,0.723 0.166,1.197 0,0.417 -0.052,0.777 -0.155,1.079 -0.127,0.369 -0.308,0.667 -0.543,0.895 -0.177,0.173 -0.417,0.308 -0.719,0.405 -0.226,0.071 -0.528,0.107 -0.906,0.107 h -1.925 z m 1.023,0.858 v 3.356 h 0.764 c 0.286,0 0.492,-0.016 0.619,-0.049 0.166,-0.041 0.303,-0.111 0.413,-0.21 0.109,-0.099 0.199,-0.262 0.268,-0.489 0.069,-0.227 0.103,-0.537 0.103,-0.929 0,-0.391 -0.034,-0.692 -0.103,-0.902 -0.069,-0.209 -0.166,-0.373 -0.291,-0.491 -0.124,-0.117 -0.282,-0.197 -0.473,-0.238 -0.143,-0.032 -0.423,-0.048 -0.84,-0.048 z"
   style="fill:#ffffff;fill-rule:nonzero"
   id="path205"
   inkscape:connector-curvature="0" />&#10;            <path
   d="m 6.57,101.609 v -5.026 h 1.023 v 4.172 h 2.544 v 0.854 z"
   style="fill:#ffffff;fill-rule:nonzero"
   id="path207"
   inkscape:connector-curvature="0" />&#10;            <path
   d="m 10.659,99.106 c 0,-0.516 0.077,-0.949 0.232,-1.3 0.115,-0.258 0.272,-0.489 0.471,-0.694 0.2,-0.205 0.418,-0.358 0.655,-0.457 0.316,-0.133 0.68,-0.2 1.093,-0.2 0.746,0 1.344,0.232 1.792,0.695 0.448,0.463 0.672,1.107 0.672,1.932 0,0.818 -0.222,1.458 -0.667,1.92 -0.445,0.462 -1.039,0.693 -1.783,0.693 -0.754,0 -1.353,-0.23 -1.798,-0.69 -0.445,-0.459 -0.667,-1.092 -0.667,-1.899 z m 1.054,-0.034 c 0,0.573 0.133,1.008 0.398,1.304 0.265,0.297 0.601,0.445 1.009,0.445 0.408,0 0.743,-0.147 1.004,-0.441 0.262,-0.294 0.393,-0.735 0.393,-1.322 0,-0.581 -0.128,-1.014 -0.382,-1.3 -0.255,-0.286 -0.593,-0.429 -1.015,-0.429 -0.422,0 -0.761,0.145 -1.02,0.434 -0.258,0.289 -0.387,0.726 -0.387,1.309 z"
   style="fill:#ffffff;fill-rule:nonzero"
   id="path209"
   inkscape:connector-curvature="0" />&#10;            <path
   d="m 5.909,109.501 v -5.067 h 1.532 l 0.919,3.456 0.909,-3.456 h 1.535 v 5.067 H 9.853 v -3.989 l -1.005,3.989 H 7.862 L 6.86,105.512 v 3.989 z"
   style="fill:#ffffff;fill-rule:nonzero"
   id="path211"
   inkscape:connector-curvature="0" />&#10;            <path
   d="m 11.817,104.434 h 1.87 c 0.421,0 0.743,0.032 0.964,0.096 0.297,0.088 0.552,0.244 0.764,0.467 0.212,0.224 0.373,0.497 0.484,0.821 0.111,0.324 0.166,0.723 0.166,1.198 0,0.417 -0.052,0.776 -0.156,1.078 -0.126,0.369 -0.307,0.667 -0.542,0.895 -0.178,0.173 -0.417,0.308 -0.719,0.405 -0.226,0.071 -0.528,0.107 -0.906,0.107 h -1.925 z m 1.023,0.857 v 3.356 h 0.764 c 0.286,0 0.492,-0.016 0.618,-0.048 0.166,-0.042 0.304,-0.112 0.414,-0.211 0.109,-0.099 0.198,-0.262 0.267,-0.489 0.07,-0.227 0.104,-0.536 0.104,-0.928 0,-0.392 -0.034,-0.693 -0.104,-0.902 -0.069,-0.21 -0.165,-0.374 -0.29,-0.491 -0.124,-0.118 -0.282,-0.197 -0.473,-0.239 -0.143,-0.032 -0.423,-0.048 -0.84,-0.048 z"
   style="fill:#ffffff;fill-rule:nonzero"
   id="path213"
   inkscape:connector-curvature="0" />&#10;            <path
   d="m 7.337,117.882 v -5.068 H 8.36 v 1.995 h 2.005 v -1.995 h 1.023 v 5.068 h -1.023 v -2.216 H 8.36 v 2.216 z"
   style="fill:#ffffff;fill-rule:nonzero"
   id="path215"
   inkscape:connector-curvature="0" />&#10;            <rect
   x="12.415"
   y="112.814"
   width="1.023"
   height="5.0669999"
   style="fill:#ffffff;fill-rule:nonzero"
   id="rect217" />&#10;            <path
   d="m 19.945,133.175 v -7.361 h 2.424 c 0.609,0 1.052,0.066 1.328,0.199 0.276,0.132 0.497,0.367 0.663,0.705 0.166,0.338 0.249,0.725 0.249,1.16 0,0.552 -0.126,1.008 -0.377,1.368 -0.252,0.36 -0.628,0.587 -1.128,0.68 0.249,0.188 0.454,0.394 0.616,0.618 0.162,0.224 0.381,0.622 0.655,1.195 l 0.697,1.436 h -1.377 l -0.833,-1.602 c -0.295,-0.572 -0.497,-0.933 -0.606,-1.082 -0.109,-0.149 -0.225,-0.251 -0.346,-0.306 -0.122,-0.055 -0.315,-0.083 -0.58,-0.083 h -0.233 v 3.073 z m 1.152,-4.248 h 0.851 c 0.553,0 0.898,-0.03 1.035,-0.09 0.137,-0.06 0.245,-0.164 0.323,-0.311 0.078,-0.148 0.117,-0.332 0.117,-0.553 0,-0.247 -0.052,-0.447 -0.154,-0.6 -0.103,-0.152 -0.247,-0.248 -0.434,-0.288 -0.093,-0.017 -0.373,-0.025 -0.84,-0.025 h -0.898 z"
   style="fill:#ffffff;fill-rule:nonzero"
   id="path219"
   inkscape:connector-curvature="0" />&#10;            <path
   d="m 30.836,133.175 h -1.253 l -0.498,-1.672 h -2.279 l -0.47,1.672 h -1.222 l 2.221,-7.361 h 1.218 z m -2.12,-2.912 -0.786,-2.732 -0.77,2.732 z"
   style="fill:#ffffff;fill-rule:nonzero"
   id="path221"
   inkscape:connector-curvature="0" />&#10;            <path
   d="m 31.458,133.175 v -7.361 h 1.12 l 2.334,4.916 v -4.916 h 1.069 v 7.361 h -1.155 l -2.298,-4.8 v 4.8 z"
   style="fill:#ffffff;fill-rule:nonzero"
   id="path223"
   inkscape:connector-curvature="0" />&#10;            <path
   d="m 39.851,130.469 v -1.241 h 2.482 v 2.933 c -0.241,0.301 -0.591,0.566 -1.049,0.795 -0.457,0.23 -0.921,0.344 -1.39,0.344 -0.596,0 -1.116,-0.161 -1.56,-0.484 -0.443,-0.323 -0.776,-0.785 -0.999,-1.386 C 37.112,130.829 37,130.176 37,129.469 c 0,-0.766 0.125,-1.447 0.374,-2.043 0.249,-0.596 0.613,-1.053 1.093,-1.371 0.365,-0.244 0.82,-0.366 1.365,-0.366 0.708,0 1.261,0.191 1.659,0.575 0.398,0.383 0.654,0.913 0.768,1.589 l -1.144,0.276 c -0.08,-0.362 -0.231,-0.647 -0.453,-0.856 -0.222,-0.209 -0.498,-0.314 -0.83,-0.314 -0.503,0 -0.903,0.206 -1.2,0.618 -0.297,0.411 -0.445,1.022 -0.445,1.832 0,0.874 0.15,1.529 0.451,1.966 0.301,0.437 0.695,0.655 1.182,0.655 0.241,0 0.483,-0.061 0.725,-0.183 0.243,-0.122 0.451,-0.27 0.625,-0.445 v -0.933 z"
   style="fill:#ffffff;fill-rule:nonzero"
   id="path225"
   inkscape:connector-curvature="0" />&#10;            <path
   d="m 43.394,133.175 v -7.361 h 4.228 v 1.246 h -3.076 v 1.631 h 2.862 v 1.24 h -2.862 v 2.004 h 3.185 v 1.24 z"
   style="fill:#ffffff;fill-rule:nonzero"
   id="path227"
   inkscape:connector-curvature="0" />&#10;            <path
   d="m 91.226,131.91 v -9.185 h 5.061 v 1.554 h -3.571 v 2.174 h 3.083 v 1.554 h -3.083 v 3.903 z"
   style="fill:#ffffff;fill-rule:nonzero"
   id="path229"
   inkscape:connector-curvature="0" />&#10;            <path
   d="m 97.521,131.91 v -9.185 h 3.138 c 0.789,0 1.362,0.082 1.72,0.247 0.357,0.165 0.644,0.459 0.858,0.881 0.215,0.422 0.323,0.904 0.323,1.447 0,0.689 -0.163,1.258 -0.489,1.707 -0.325,0.449 -0.812,0.732 -1.46,0.849 0.322,0.234 0.588,0.491 0.798,0.771 0.21,0.28 0.493,0.777 0.849,1.491 l 0.901,1.792 h -1.783 l -1.078,-1.999 c -0.382,-0.714 -0.644,-1.164 -0.785,-1.35 -0.141,-0.186 -0.291,-0.313 -0.449,-0.382 -0.157,-0.069 -0.407,-0.103 -0.75,-0.103 h -0.302 v 3.834 z m 1.491,-5.301 h 1.103 c 0.715,0 1.162,-0.037 1.34,-0.112 0.177,-0.075 0.317,-0.205 0.418,-0.389 0.1,-0.184 0.151,-0.413 0.151,-0.689 0,-0.309 -0.067,-0.559 -0.199,-0.749 -0.133,-0.19 -0.32,-0.31 -0.562,-0.36 -0.121,-0.021 -0.483,-0.031 -1.088,-0.031 h -1.163 z"
   style="fill:#ffffff;fill-rule:nonzero"
   id="path231"
   inkscape:connector-curvature="0" />&#10;            <path
   d="m 104.965,131.91 v -9.185 h 5.474 v 1.554 h -3.983 v 2.036 h 3.706 v 1.548 h -3.706 v 2.499 h 4.124 v 1.548 z"
   style="fill:#ffffff;fill-rule:nonzero"
   id="path233"
   inkscape:connector-curvature="0" />&#10;            <path
   d="m 117.787,130.745 c 0.366,0.326 0.764,0.584 1.194,0.777 l -0.549,1.309 c -0.225,-0.083 -0.445,-0.198 -0.66,-0.344 -0.047,-0.03 -0.377,-0.301 -0.992,-0.815 -0.483,0.263 -1.019,0.395 -1.606,0.395 -1.135,0 -2.024,-0.416 -2.667,-1.247 -0.643,-0.831 -0.965,-1.999 -0.965,-3.503 0,-1.499 0.323,-2.666 0.967,-3.499 0.645,-0.833 1.52,-1.25 2.624,-1.25 1.095,0 1.963,0.417 2.604,1.25 0.641,0.833 0.962,2 0.962,3.499 0,0.794 -0.089,1.492 -0.267,2.093 -0.134,0.46 -0.349,0.904 -0.645,1.335 z m -1.198,-1.047 c 0.191,-0.28 0.335,-0.618 0.43,-1.015 0.096,-0.396 0.144,-0.852 0.144,-1.366 0,-1.06 -0.188,-1.853 -0.564,-2.377 -0.376,-0.525 -0.868,-0.787 -1.476,-0.787 -0.607,0 -1.1,0.264 -1.478,0.79 -0.378,0.526 -0.567,1.318 -0.567,2.374 0,1.074 0.189,1.877 0.567,2.41 0.378,0.532 0.855,0.798 1.433,0.798 0.215,0 0.418,-0.043 0.609,-0.131 -0.302,-0.247 -0.609,-0.439 -0.921,-0.577 l 0.418,-1.058 c 0.49,0.208 0.958,0.522 1.405,0.939 z"
   style="fill:#ffffff;fill-rule:nonzero"
   id="path235"
   inkscape:connector-curvature="0" />&#10;            <path
   d="m 169.679,125.193 v -8.044 h 4.767 v 1.361 h -3.363 v 1.904 h 2.903 v 1.361 h -2.903 v 3.418 z"
   style="fill:#ffffff;fill-rule:nonzero"
   id="path237"
   inkscape:connector-curvature="0" />&#10;            <path
   d="m 175.585,125.193 v -8.044 h 2.101 l 1.262,5.487 1.247,-5.487 h 2.106 v 8.044 h -1.304 v -6.332 l -1.381,6.332 h -1.351 l -1.376,-6.332 v 6.332 z"
   style="fill:#ffffff;fill-rule:nonzero"
   id="path239"
   inkscape:connector-curvature="0" />&#10;            <g
   id="g251">&#10;                <path
   d="m 75.771,21.496 1.935,-0.413 v 0.57 c 0,2.303 -0.462,3.791 -1.386,4.466 -0.924,0.675 -2.968,1.012 -6.132,1.012 -3.59,0 -5.799,-0.533 -6.625,-1.6 -0.827,-1.066 -1.24,-3.918 -1.24,-8.556 0,-2.731 0.56,-4.527 1.68,-5.388 1.12,-0.86 3.461,-1.29 7.025,-1.29 2.595,0 4.328,0.353 5.199,1.06 0.871,0.707 1.306,2.111 1.306,4.212 l 0.013,0.376 -2.051,-0.173 -1.415,-0.252 c 0,-1.082 -0.224,-1.775 -0.673,-2.078 -0.449,-0.303 -1.473,-0.455 -3.072,-0.455 -2.142,0 -2.913,1.274 -3.344,1.751 -0.431,0.476 -0.671,1.779 -0.671,4.131 0,3.167 0.556,3.624 1.055,4.114 0.514,0.504 0.671,1.458 2.786,1.458 1.715,0 2.829,-0.162 3.34,-0.485 0.511,-0.323 0.766,-1.034 0.766,-2.133 z"
   style="fill:#b89562;fill-rule:nonzero"
   id="path241"
   inkscape:connector-curvature="0" />&#10;                <path
   d="m 95.864,10.442 -7.725,10.229 0.275,6.416 -3.007,-0.05 0.169,-6.366 -7.489,-10.229 h 2.835 l 5.391,7.838 1.358,-0.01 5.403,-7.844 z"
   style="fill:#b89562;fill-rule:nonzero"
   id="path243"
   inkscape:connector-curvature="0" />&#10;                <path
   d="m 117.378,10.367 -0.574,13.807 h 8.531 v 2.812 h -11.984 l 0.626,-15.122 z"
   style="fill:#b89562;fill-rule:nonzero"
   id="path245"
   inkscape:connector-curvature="0" />&#10;                <path
   d="m 130.174,13.084 v 2.337 l 8.531,0.513 v 2.058 l -8.531,-0.463 v 6.815 h 9.078 v 2.642 H 126.721 V 10.442 h 12.451 v 2.642 z"
   style="fill:#b89562;fill-rule:nonzero"
   id="path247"
   inkscape:connector-curvature="0" />&#10;                <path
   d="m 155.328,15.266 c 0,0 -3.399,-0.267 -3.399,-0.34 -0.08,-0.929 -0.307,-1.512 -0.68,-1.751 -0.373,-0.238 -1.253,-0.357 -2.639,-0.357 -1.635,0 -1.955,0.137 -2.457,0.412 -0.502,0.274 -0.753,0.852 -0.753,1.733 0,1.042 0.204,1.668 0.613,1.878 0.409,0.21 1.01,0.372 3.303,0.485 2.711,0.138 4.464,0.489 5.259,1.055 0.795,0.565 1.193,1.741 1.193,3.526 0,2.198 -0.467,3.618 -1.4,4.261 -0.933,0.642 -2.99,0.963 -6.172,0.963 -2.861,0 -4.761,-0.315 -5.698,-0.945 -0.938,-0.63 -1.407,-1.907 -1.407,-3.83 l -0.013,-0.606 3.373,0.351 c 0,1.156 0.222,1.863 0.666,2.121 0.445,0.259 1.658,0.388 3.639,0.388 1.547,0 1.633,-0.149 2.059,-0.448 0.427,-0.299 0.64,-0.99 0.64,-2.073 0,-0.8 -0.162,-1.331 -0.487,-1.593 -0.324,-0.263 -0.123,-0.423 -1.199,-0.479 l -1.906,-0.109 c -2.879,-0.154 -4.719,-0.517 -5.519,-1.091 -0.799,-0.574 -1.199,-1.806 -1.199,-3.697 0,-1.931 0.482,-3.217 1.446,-3.86 0.964,-0.642 2.891,-0.963 5.779,-0.963 2.737,0 4.581,0.295 5.532,0.884 0.951,0.59 1.426,1.742 1.426,3.455 z"
   style="fill:#b89562;fill-rule:nonzero"
   id="path249"
   inkscape:connector-curvature="0" />&#10;            </g>&#10;            <path
   d="m 108.771,21.496 1.935,-0.413 v 0.57 c 0,2.303 -0.462,3.791 -1.386,4.466 -0.924,0.675 -2.968,1.012 -6.132,1.012 -3.59,0 -5.799,-0.533 -6.625,-1.6 -0.827,-1.066 -1.24,-3.918 -1.24,-8.556 0,-2.731 0.56,-4.527 1.68,-5.388 1.12,-0.86 3.461,-1.29 7.025,-1.29 2.595,0 4.328,0.353 5.199,1.06 0.871,0.707 1.306,2.111 1.306,4.212 l 0.013,0.376 -2.051,-0.173 -1.415,-0.252 c 0,-1.082 -0.224,-1.775 -0.673,-2.078 -0.449,-0.303 -1.473,-0.455 -3.072,-0.455 -2.142,0 -2.913,1.274 -3.344,1.751 -0.431,0.476 -0.671,1.779 -0.671,4.131 0,3.167 0.556,3.624 1.055,4.114 0.514,0.504 0.671,1.458 2.786,1.458 1.715,0 2.829,-0.162 3.34,-0.485 0.511,-0.323 0.766,-1.034 0.766,-2.133 z"
   style="fill:#b89562;fill-rule:nonzero"
   id="path253"
   inkscape:connector-curvature="0" />&#10;        </g>&#10;    </g>&#10;</svg>
