<?xml version="1.0" encoding="UTF-8" standalone="no"?>
<!-- Generator: Adobe Illustrator 16.0.3, SVG Export Plug-In . SVG Version: 6.00 Build 0)  -->

<svg
   version="1.1"
   x="0px"
   y="0px"
   width="150px"
   height="380px"
   viewBox="0 0 150 380"
   enable-background="new 0 0 150 380"
   xml:space="preserve"
   id="svg466"
   sodipodi:docname="Tapeworm.svg"
   inkscape:version="1.3 (0e150ed6c4, 2023-07-21)"
   xmlns:inkscape="http://www.inkscape.org/namespaces/inkscape"
   xmlns:sodipodi="http://sodipodi.sourceforge.net/DTD/sodipodi-0.dtd"
   xmlns="http://www.w3.org/2000/svg"
   xmlns:svg="http://www.w3.org/2000/svg"
   xmlns:rdf="http://www.w3.org/1999/02/22-rdf-syntax-ns#"
   xmlns:cc="http://creativecommons.org/ns#"
   xmlns:dc="http://purl.org/dc/elements/1.1/"><metadata
   id="metadata472"><rdf:RDF><cc:Work
       rdf:about=""><dc:format>image/svg+xml</dc:format><dc:type
         rdf:resource="http://purl.org/dc/dcmitype/StillImage" /></cc:Work></rdf:RDF></metadata><defs
   id="defs470" /><sodipodi:namedview
   pagecolor="#ffffff"
   bordercolor="#666666"
   borderopacity="1"
   objecttolerance="10"
   gridtolerance="10"
   guidetolerance="10"
   inkscape:pageopacity="0"
   inkscape:pageshadow="2"
   inkscape:window-width="1366"
   inkscape:window-height="715"
   id="namedview468"
   showgrid="true"
   inkscape:zoom="3.5206474"
   inkscape:cx="74.986208"
   inkscape:cy="38.487239"
   inkscape:window-x="-8"
   inkscape:window-y="-8"
   inkscape:window-maximized="1"
   inkscape:current-layer="faceplate"
   inkscape:showpageshadow="2"
   inkscape:pagecheckerboard="0"
   inkscape:deskcolor="#d1d1d1"><inkscape:grid
     id="grid1"
     units="px"
     originx="0"
     originy="0"
     spacingx="1"
     spacingy="1"
     empcolor="#3f3fff"
     empopacity="0.25098039"
     color="#3f3fff"
     opacity="0.1254902"
     empspacing="5"
     dotted="false"
     gridanglex="30"
     gridanglez="30"
     visible="true" /></sodipodi:namedview>&#10;<g
   id="faceplate">&#10;	<rect
   id="background"
   fill="#E6E6E6"
   width="150"
   height="380" />&#10;	&#10;	&#10;	&#10;	&#10;	&#10;	&#10;	&#10;	&#10;	<g
   id="g39">&#10;		<path
   fill="#D83559"
   d="M70.739,183.862H37.125c-1.627,0-2.958,1.331-2.958,2.957v5.917c0,1.626,1.331,2.956,2.958,2.956h33.614    c1.627,0,2.958-1.33,2.958-2.956v-5.917C73.697,185.192,72.366,183.862,70.739,183.862z M39.037,192.749h-1.159v-5.939h1.159    V192.749z M44.969,192.749h-1.035l-2.352-3.645v3.645h-1.159v-5.939h1.034l2.352,3.637v-3.637h1.16V192.749z M50.177,187.845    h-1.552v4.904h-1.159v-4.904h-1.552v-1.035h4.263V187.845z M52.239,192.749h-1.243v-1.234h1.243V192.749z M59.032,192.148    c-0.417,0.417-0.927,0.651-1.602,0.651c-0.676,0-1.194-0.234-1.61-0.651c-0.6-0.6-0.584-1.343-0.584-2.369    c0-1.026-0.016-1.768,0.584-2.369c0.417-0.417,0.934-0.651,1.61-0.651c0.675,0,1.184,0.234,1.602,0.651    c0.6,0.601,0.591,1.343,0.591,2.369C59.623,190.805,59.632,191.549,59.032,192.148z M62.446,192.8    c-0.901,0-1.585-0.191-2.169-0.784l0.751-0.75c0.376,0.375,0.884,0.499,1.434,0.499c0.684,0,1.052-0.259,1.052-0.733    c0-0.208-0.058-0.383-0.185-0.501c-0.116-0.108-0.25-0.167-0.525-0.208l-0.718-0.1c-0.508-0.075-0.883-0.234-1.15-0.493    c-0.284-0.283-0.425-0.667-0.425-1.167c0-1.06,0.783-1.802,2.068-1.802c0.817,0,1.41,0.201,1.918,0.693l-0.734,0.725    c-0.375-0.358-0.825-0.408-1.217-0.408c-0.618,0-0.918,0.342-0.918,0.75c0,0.15,0.051,0.309,0.175,0.425    c0.117,0.109,0.31,0.201,0.55,0.234l0.701,0.1c0.542,0.075,0.884,0.225,1.135,0.458c0.317,0.301,0.458,0.735,0.458,1.261    C64.648,192.148,63.688,192.8,62.446,192.8z M66.995,191.457c0.175,0.208,0.426,0.308,0.742,0.308c0.56,0,0.876-0.334,1.001-0.841    h1.177c-0.201,1.208-1.051,1.876-2.187,1.876c-0.633,0-1.167-0.218-1.602-0.651c-0.259-0.257-0.417-0.559-0.483-0.893    c-0.067-0.333-0.101-0.825-0.101-1.476c0-0.65,0.034-1.142,0.101-1.476c0.066-0.342,0.224-0.634,0.483-0.893    c0.434-0.434,0.968-0.651,1.602-0.651c1.143,0,1.986,0.667,2.187,1.877h-1.177c-0.125-0.509-0.442-0.842-1.001-0.842    c-0.316,0-0.566,0.1-0.742,0.309c-0.242,0.258-0.292,0.525-0.292,1.676C66.703,190.932,66.753,191.198,66.995,191.457z"
   id="path35" />&#10;		<path
   fill="#D83559"
   d="M57.431,187.795c-0.318,0-0.584,0.124-0.751,0.317c-0.224,0.25-0.283,0.525-0.283,1.667    c0,1.144,0.059,1.418,0.283,1.669c0.167,0.191,0.434,0.315,0.751,0.315c0.316,0,0.575-0.124,0.742-0.315    c0.225-0.251,0.292-0.526,0.292-1.669c0-1.142-0.066-1.418-0.292-1.667C58.005,187.919,57.747,187.795,57.431,187.795z"
   id="path37" />&#10;	</g>&#10;	<g
   id="g53">&#10;		<path
   fill="#1D1D1B"
   d="M102.142,221.797v4.905h-1.16v-4.905h-1.55v-1.035h4.262v1.035H102.142z"
   id="path41" />&#10;		<path
   fill="#1D1D1B"
   d="M104.639,226.702v-5.94h1.159v5.94H104.639z"
   id="path43" />&#10;		<path
   fill="#1D1D1B"
   d="M111.404,226.702v-3.462l-1.134,2.253h-0.784l-1.143-2.253v3.462h-1.159v-5.94h1.142l1.552,3.214    l1.543-3.214h1.143v5.94H111.404z"
   id="path45" />&#10;		<path
   fill="#1D1D1B"
   d="M116.438,226.702h-2.485v-5.94h2.385c1.16,0,1.836,0.652,1.836,1.669c0,0.66-0.435,1.084-0.733,1.227    c0.358,0.167,0.816,0.542,0.816,1.335C118.256,226.101,117.497,226.702,116.438,226.702z M116.245,221.797h-1.134v1.367h1.134    c0.493,0,0.769-0.274,0.769-0.683C117.014,222.072,116.738,221.797,116.245,221.797z M116.32,224.208h-1.209v1.461h1.209    c0.526,0,0.776-0.335,0.776-0.736C117.097,224.534,116.847,224.208,116.32,224.208z"
   id="path47" />&#10;		<path
   fill="#1D1D1B"
   d="M122.597,226.702l-1.16-2.368h-0.833v2.368h-1.159v-5.94h2.327c1.209,0,1.926,0.828,1.926,1.82    c0,0.833-0.508,1.351-1.084,1.559l1.326,2.562H122.597z M121.695,221.797h-1.092v1.569h1.092c0.51,0,0.843-0.326,0.843-0.784    C122.538,222.123,122.205,221.797,121.695,221.797z"
   id="path49" />&#10;		<path
   fill="#1D1D1B"
   d="M124.901,226.702v-5.94h3.912v1.035h-2.752v1.395h2.344v1.032h-2.344v1.445h2.752v1.033H124.901z"
   id="path51" />&#10;	</g>&#10;	<rect
   x="6.479"
   y="351.541"
   fill="#C6C6C5"
   width="136.679"
   height="2.091"
   id="rect55" />&#10;	&#10;	<g
   id="g241">&#10;		<path
   fill="#1D1D1B"
   d="M55.812,163.545l-0.351-1.052h-2.11l-0.358,1.052h-1.21l2.161-5.939h0.91l2.168,5.939H55.812z     M54.427,159.358l-0.75,2.16h1.476L54.427,159.358z"
   id="path223" />&#10;		<path
   fill="#1D1D1B"
   d="M57.759,163.545v-5.939h1.16v4.905h2.693v1.034H57.759z"
   id="path225" />&#10;		<path
   fill="#1D1D1B"
   d="M66.003,162.92c-0.459,0.466-1.011,0.675-1.677,0.675c-0.634,0-1.168-0.217-1.602-0.651    c-0.259-0.258-0.418-0.559-0.484-0.893c-0.066-0.333-0.101-0.825-0.101-1.476c0-0.65,0.035-1.142,0.101-1.477    c0.066-0.342,0.225-0.633,0.484-0.892c0.434-0.434,0.968-0.651,1.602-0.651c1.351,0,2.076,0.868,2.235,1.902h-1.167    c-0.143-0.576-0.493-0.867-1.067-0.867c-0.31,0-0.56,0.108-0.743,0.317c-0.217,0.275-0.285,0.492-0.285,1.668    c0,1.168,0.051,1.402,0.285,1.677c0.175,0.209,0.425,0.309,0.743,0.309c0.342,0,0.617-0.109,0.825-0.334    c0.175-0.2,0.267-0.467,0.267-0.792v-0.225h-1.092v-0.968h2.243v0.867C66.569,161.978,66.41,162.486,66.003,162.92z"
   id="path227" />&#10;		<path
   fill="#1D1D1B"
   d="M71.251,162.944c-0.417,0.417-0.926,0.651-1.602,0.651c-0.676,0-1.193-0.233-1.609-0.651    c-0.601-0.6-0.585-1.343-0.585-2.369s-0.016-1.768,0.585-2.369c0.417-0.417,0.933-0.651,1.609-0.651    c0.676,0,1.184,0.234,1.602,0.651c0.601,0.601,0.592,1.343,0.592,2.369S71.853,162.344,71.251,162.944z M70.392,158.908    c-0.166-0.192-0.425-0.317-0.742-0.317c-0.318,0-0.584,0.125-0.75,0.317c-0.225,0.25-0.284,0.526-0.284,1.668    c0,1.143,0.059,1.418,0.284,1.668c0.166,0.192,0.433,0.317,0.75,0.317c0.317,0,0.576-0.125,0.742-0.317    c0.227-0.25,0.292-0.525,0.292-1.668C70.684,159.434,70.618,159.157,70.392,158.908z"
   id="path229" />&#10;		<path
   fill="#1D1D1B"
   d="M76.185,163.545l-1.159-2.369H74.19v2.369h-1.16v-5.939h2.328c1.209,0,1.927,0.826,1.927,1.818    c0,0.834-0.51,1.352-1.084,1.56l1.326,2.562H76.185z M75.283,158.641H74.19v1.568h1.093c0.508,0,0.843-0.325,0.843-0.785    C76.126,158.966,75.792,158.641,75.283,158.641z"
   id="path231" />&#10;		<path
   fill="#1D1D1B"
   d="M78.489,163.545v-5.939h1.159v5.939H78.489z"
   id="path233" />&#10;		<path
   fill="#1D1D1B"
   d="M83.304,158.641v4.905h-1.159v-4.905h-1.553v-1.035h4.263v1.035H83.304z"
   id="path235" />&#10;		<path
   fill="#1D1D1B"
   d="M88.971,163.545v-2.486h-2.012v2.486H85.8v-5.939h1.159v2.428h2.012v-2.428h1.159v5.939H88.971z"
   id="path237" />&#10;		<path
   fill="#1D1D1B"
   d="M95.737,163.545v-3.462l-1.134,2.252h-0.784l-1.143-2.252v3.462h-1.159v-5.939h1.143l1.551,3.212    l1.544-3.212h1.142v5.939H95.737z"
   id="path239" />&#10;	</g>&#10;	<path
   fill="none"
   stroke="#AF2053"
   stroke-width="0.7087"
   stroke-linecap="round"
   stroke-miterlimit="10"
   d="M14.32,231.616   c-2.284-2.388-3.686-5.626-3.686-9.191c0-7.346,5.954-13.301,13.301-13.301c7.346,0,13.301,5.955,13.301,13.301   c0,3.563-1.399,6.8-3.682,9.188"
   id="path243" />&#10;	<path
   fill="none"
   stroke="#287C7D"
   stroke-width="0.7087"
   stroke-linecap="round"
   stroke-miterlimit="10"
   d="M52.813,231.616   c-2.284-2.388-3.686-5.626-3.686-9.191c0-7.346,5.954-13.301,13.301-13.301c7.345,0,13.301,5.955,13.301,13.301   c0,3.563-1.4,6.8-3.682,9.188"
   id="path245" />&#10;	<path
   fill="#D83559"
   d="M14.32,231.616c0,0-0.164-0.18-0.471-0.516c-0.319-0.324-0.728-0.854-1.216-1.553   c-0.453-0.719-0.996-1.615-1.391-2.744c-0.417-1.117-0.754-2.443-0.817-3.925c-0.079-1.469,0.062-3.093,0.562-4.739   c0.494-1.636,1.345-3.274,2.548-4.723c1.199-1.449,2.75-2.702,4.54-3.589c1.786-0.888,3.811-1.396,5.857-1.444   c0.562,0.019,0.983,0.017,1.499,0.049c0.517,0.073,1.055,0.112,1.558,0.223c1.001,0.212,1.991,0.501,2.917,0.923   c1.865,0.817,3.521,2.031,4.834,3.48c1.318,1.444,2.291,3.121,2.893,4.826c0.607,1.718,0.839,3.415,0.827,5.043   c-0.018,0.375,0.002,0.693-0.047,1.093c-0.049,0.396-0.097,0.782-0.144,1.159c-0.155,0.717-0.273,1.397-0.5,2.011   c-0.375,1.251-0.922,2.26-1.387,3.073c-0.499,0.794-0.927,1.399-1.263,1.776c-0.324,0.387-0.497,0.593-0.497,0.593   c-0.524,0.628-1.457,0.709-2.083,0.186c-0.625-0.525-0.709-1.457-0.185-2.084c0.012-0.015,0.025-0.029,0.039-0.045l0.092-0.1   c0,0,0.146-0.159,0.418-0.457c0.288-0.287,0.65-0.76,1.087-1.379c0.401-0.641,0.892-1.433,1.242-2.438   c0.214-0.486,0.329-1.049,0.488-1.615c0.05-0.279,0.101-0.566,0.154-0.86c0.059-0.289,0.06-0.687,0.095-1.035   c0.069-1.275-0.05-2.755-0.491-4.205c-0.437-1.459-1.192-2.922-2.264-4.218c-1.069-1.296-2.452-2.421-4.049-3.216   c-0.792-0.409-1.649-0.7-2.526-0.933c-0.435-0.118-0.866-0.165-1.303-0.257c-0.448-0.053-0.999-0.077-1.404-0.114   c-1.835-0.045-3.681,0.324-5.349,1.058c-1.671,0.728-3.159,1.813-4.341,3.109c-1.186,1.296-2.062,2.797-2.604,4.325   c-0.547,1.524-0.757,3.075-0.752,4.51c-0.008,1.432,0.258,2.738,0.613,3.849c0.333,1.125,0.826,2.031,1.24,2.765   c0.449,0.714,0.831,1.262,1.135,1.602C14.165,231.429,14.32,231.616,14.32,231.616z"
   id="path247" />&#10;	<path
   fill="#0094A0"
   d="M52.783,231.616c0,0-0.164-0.18-0.471-0.516c-0.319-0.324-0.729-0.854-1.216-1.553   c-0.454-0.719-0.997-1.615-1.391-2.744c-0.417-1.117-0.754-2.443-0.817-3.925c-0.078-1.469,0.062-3.093,0.562-4.739   c0.494-1.636,1.345-3.274,2.548-4.723c1.199-1.449,2.75-2.702,4.54-3.589c1.786-0.888,3.81-1.396,5.857-1.444   c0.562,0.019,0.983,0.017,1.499,0.049c0.517,0.073,1.054,0.112,1.558,0.223c1.001,0.212,1.991,0.501,2.918,0.923   c1.864,0.817,3.521,2.031,4.834,3.48c1.318,1.444,2.292,3.121,2.893,4.826c0.607,1.718,0.84,3.415,0.827,5.043   c-0.018,0.375,0.003,0.693-0.047,1.093c-0.049,0.396-0.097,0.782-0.144,1.159c-0.154,0.717-0.272,1.397-0.5,2.011   c-0.375,1.251-0.922,2.26-1.386,3.073c-0.5,0.794-0.927,1.399-1.264,1.776c-0.324,0.387-0.497,0.593-0.497,0.593   c-0.523,0.628-1.457,0.709-2.083,0.186c-0.625-0.525-0.709-1.457-0.184-2.084c0.012-0.015,0.025-0.029,0.039-0.045l0.092-0.1   c0,0,0.146-0.159,0.417-0.457c0.289-0.287,0.65-0.76,1.087-1.379c0.402-0.641,0.892-1.433,1.242-2.438   c0.214-0.486,0.329-1.049,0.488-1.615c0.05-0.279,0.101-0.566,0.154-0.86c0.059-0.289,0.06-0.687,0.095-1.035   c0.069-1.275-0.05-2.755-0.491-4.205c-0.437-1.459-1.192-2.922-2.264-4.218c-1.069-1.296-2.453-2.421-4.049-3.216   c-0.792-0.409-1.649-0.7-2.527-0.933c-0.435-0.118-0.866-0.165-1.303-0.257c-0.448-0.053-1-0.077-1.404-0.114   c-1.835-0.045-3.681,0.324-5.349,1.058c-1.671,0.728-3.159,1.813-4.341,3.109c-1.186,1.296-2.062,2.797-2.604,4.325   c-0.547,1.524-0.757,3.075-0.751,4.51c-0.008,1.432,0.257,2.738,0.613,3.849c0.333,1.125,0.826,2.031,1.24,2.765   c0.449,0.714,0.83,1.262,1.135,1.602C52.628,231.429,52.783,231.616,52.783,231.616z"
   id="path249" />&#10;	<path
   fill="#D83559"
   d="M32.983,257.772H9.068c-1.627,0-2.958,1.331-2.958,2.957v5.915c0,1.628,1.331,2.958,2.958,2.958h23.915   c1.627,0,2.958-1.33,2.958-2.958v-5.915C35.94,259.104,34.61,257.772,32.983,257.772z M13.299,266.898H9.446v-5.939h1.159v4.906   h2.694V266.898z M18.157,261.994h-2.753v1.394h2.344v1.033h-2.344v1.444h2.753v1.033h-3.912v-5.939h3.912V261.994z M21.454,266.898   h-0.867l-1.96-5.939h1.201l1.193,3.872l1.193-3.872h1.209L21.454,266.898z M28.055,261.994h-2.752v1.394h2.343v1.033h-2.343v1.444   h2.752v1.033h-3.912v-5.939h3.912V261.994z M33.045,266.898h-3.853v-5.939h1.159v4.906h2.694V266.898z"
   id="path251" />&#10;	<path
   fill="#0094A0"
   d="M68.736,257.772H44.821c-1.627,0-2.958,1.331-2.958,2.957v5.915c0,1.628,1.331,2.958,2.958,2.958h23.915   c1.627,0,2.958-1.33,2.958-2.958v-5.915C71.694,259.104,70.363,257.772,68.736,257.772z M49.052,266.898h-3.854v-5.939h1.16v4.906   h2.694V266.898z M53.91,261.994h-2.753v1.394H53.5v1.033h-2.343v1.444h2.753v1.033h-3.912v-5.939h3.912V261.994z M57.207,266.898   h-0.868l-1.96-5.939h1.202l1.192,3.872l1.193-3.872h1.209L57.207,266.898z M63.808,261.994h-2.753v1.394h2.344v1.033h-2.344v1.444   h2.753v1.033h-3.912v-5.939h3.912V261.994z M68.798,266.898h-3.854v-5.939h1.159v4.906h2.695V266.898z"
   id="path253" />&#10;	<g
   id="g267">&#10;		<path
   fill="#1D1D1B"
   d="M116.072,261.98v4.904h-1.159v-4.904h-1.551v-1.035h4.263v1.035H116.072z"
   id="path255" />&#10;		<path
   fill="#1D1D1B"
   d="M118.569,266.885v-5.939h1.159v5.939H118.569z"
   id="path257" />&#10;		<path
   fill="#1D1D1B"
   d="M125.335,266.885v-3.462l-1.134,2.253h-0.784l-1.143-2.253v3.462h-1.159v-5.939h1.142l1.552,3.213    l1.544-3.213h1.142v5.939H125.335z"
   id="path259" />&#10;		<path
   fill="#1D1D1B"
   d="M130.368,266.885h-2.485v-5.939h2.385c1.16,0,1.836,0.651,1.836,1.668c0,0.661-0.434,1.084-0.733,1.228    c0.358,0.167,0.817,0.542,0.817,1.334C132.188,266.283,131.428,266.885,130.368,266.885z M130.176,261.98h-1.134v1.367h1.134    c0.493,0,0.769-0.275,0.769-0.683C130.944,262.255,130.669,261.98,130.176,261.98z M130.251,264.391h-1.209v1.461h1.209    c0.526,0,0.776-0.334,0.776-0.735C131.027,264.717,130.777,264.391,130.251,264.391z"
   id="path261" />&#10;		<path
   fill="#1D1D1B"
   d="M136.527,266.885l-1.159-2.368h-0.834v2.368h-1.159v-5.939h2.327c1.209,0,1.927,0.827,1.927,1.819    c0,0.833-0.509,1.351-1.084,1.559l1.325,2.562H136.527z M135.627,261.98h-1.093v1.568h1.093c0.509,0,0.842-0.326,0.842-0.784    C136.469,262.306,136.136,261.98,135.627,261.98z"
   id="path263" />&#10;		<path
   fill="#1D1D1B"
   d="M138.833,266.885v-5.939h3.912v1.035h-2.753v1.394h2.344v1.033h-2.344v1.444h2.753v1.033H138.833z"
   id="path265" />&#10;	</g>&#10;	<rect
   x="6.479"
   y="244.643"
   fill="#C6C6C5"
   width="136.679"
   height="2.088"
   id="rect269" />&#10;	<g
   id="g279">&#10;		<path
   fill="#1D1D1B"
   d="M86.367,266.898l-0.351-1.051h-2.109l-0.358,1.051h-1.211l2.161-5.939h0.909l2.168,5.939H86.367z     M84.982,262.712l-0.75,2.159h1.476L84.982,262.712z"
   id="path271" />&#10;		<path
   fill="#1D1D1B"
   d="M88.314,266.898v-5.939h1.159v4.906h2.693v1.033H88.314z"
   id="path273" />&#10;		<path
   fill="#1D1D1B"
   d="M96.559,266.273c-0.46,0.467-1.011,0.677-1.678,0.677c-0.633,0-1.167-0.219-1.601-0.652    c-0.259-0.257-0.418-0.559-0.484-0.893c-0.066-0.332-0.101-0.825-0.101-1.476c0-0.649,0.034-1.143,0.101-1.477    c0.066-0.343,0.226-0.634,0.484-0.893c0.434-0.435,0.968-0.65,1.601-0.65c1.352,0,2.077,0.868,2.235,1.901h-1.167    c-0.143-0.574-0.493-0.866-1.068-0.866c-0.31,0-0.559,0.108-0.742,0.316c-0.217,0.274-0.284,0.492-0.284,1.668    c0,1.168,0.051,1.402,0.284,1.678c0.175,0.207,0.425,0.308,0.742,0.308c0.343,0,0.618-0.108,0.825-0.335    c0.176-0.199,0.268-0.466,0.268-0.79v-0.227h-1.093v-0.968h2.244v0.868C97.125,265.332,96.966,265.839,96.559,266.273z"
   id="path275" />&#10;		<path
   fill="#1D1D1B"
   d="M101.807,266.298c-0.417,0.418-0.926,0.652-1.602,0.652s-1.192-0.234-1.609-0.652    c-0.601-0.6-0.585-1.343-0.585-2.368c0-1.026-0.016-1.769,0.585-2.369c0.417-0.416,0.934-0.65,1.609-0.65s1.185,0.234,1.602,0.65    c0.602,0.601,0.592,1.343,0.592,2.369C102.398,264.955,102.408,265.698,101.807,266.298z M100.947,262.262    c-0.166-0.192-0.425-0.316-0.742-0.316s-0.584,0.124-0.75,0.316c-0.226,0.25-0.285,0.525-0.285,1.668    c0,1.144,0.06,1.419,0.285,1.669c0.166,0.191,0.433,0.316,0.75,0.316s0.576-0.125,0.742-0.316c0.226-0.25,0.292-0.525,0.292-1.669    C101.239,262.787,101.173,262.512,100.947,262.262z"
   id="path277" />&#10;	</g>&#10;	<g
   id="g285">&#10;		<polygon
   fill="#D83559"
   points="21.175,306.951 20.953,306.917 20.778,306.917 20.43,306.917 20.312,306.951 20.265,307.024     20.265,307.685 20.297,307.771 20.405,307.817 20.753,307.817 20.953,307.817 21.206,307.817 21.257,307.795 21.257,307.735     21.257,307.024 21.212,306.988   "
   id="polygon281" />&#10;		<path
   fill="#D83559"
   d="M21.024,304.183c-2.879,0-5.214,2.335-5.214,5.216s2.335,5.216,5.214,5.216    c2.881,0,5.216-2.335,5.216-5.216S23.906,304.183,21.024,304.183z M22.221,312.33h-0.964v-3.861h-0.518    c-0.204,0-0.391-0.021-0.568-0.071c-0.171-0.042-0.334-0.124-0.489-0.233c-0.152-0.11-0.261-0.232-0.334-0.367    c-0.069-0.133-0.11-0.273-0.11-0.418c0-0.13,0.041-0.259,0.11-0.383c0.073-0.129,0.175-0.244,0.32-0.351    c0.139-0.105,0.295-0.188,0.479-0.24c0.102-0.024,0.202-0.045,0.283-0.058c0.096-0.018,0.198-0.021,0.31-0.021    c0.139,0,0.238,0.002,0.297,0.01c0.063,0.008,0.169,0.034,0.32,0.081c0.153,0.045,0.295,0.114,0.43,0.212    c0.139,0.094,0.25,0.206,0.322,0.337c0.076,0.13,0.112,0.267,0.112,0.411V312.33z"
   id="path283" />&#10;	</g>&#10;	<path
   fill="#0094A0"
   d="M56.779,304.183c-2.881,0-5.216,2.335-5.216,5.216s2.335,5.216,5.216,5.216s5.216-2.335,5.216-5.216   S59.66,304.183,56.779,304.183z M58.374,309.41c0,0.146-0.047,0.283-0.136,0.422c-0.092,0.114-0.226,0.219-0.396,0.306   c-0.169,0.094-0.365,0.165-0.583,0.219c-0.216,0.055-0.453,0.081-0.711,0.081l1.146,1.579l-0.711,0.477l-1.756-2.307l0.583-0.546   l0.898,0.191h0.32c0.114-0.014,0.206-0.036,0.273-0.062c0.069-0.026,0.118-0.058,0.149-0.088l0.065-0.148v-2.295   c-0.02-0.055-0.037-0.087-0.057-0.105c-0.039-0.039-0.088-0.071-0.157-0.103l-0.057-0.012l-0.055-0.024h-0.059l-0.055-0.022h-0.151   h-0.146c-0.145,0-0.249,0-0.31,0c-0.084,0-0.155,0.015-0.22,0.041c-0.069,0.028-0.118,0.062-0.157,0.102l-0.041,0.139v1.078h-0.866   v-1.07c0-0.12,0.039-0.236,0.118-0.342c0.075-0.106,0.189-0.208,0.348-0.304c0.149-0.096,0.293-0.161,0.434-0.193   c0.149-0.037,0.267-0.062,0.358-0.076c0.102-0.016,0.208-0.022,0.322-0.022c0.22,0,0.426,0.022,0.617,0.067   c0.188,0.047,0.363,0.114,0.52,0.206c0.155,0.092,0.269,0.193,0.347,0.308c0.037,0.053,0.067,0.112,0.089,0.173   c0.022,0.062,0.037,0.127,0.037,0.196V309.41z"
   id="path287" />&#10;	<g
   id="g297">&#10;		<polygon
   fill="#6F6F6E"
   points="122.379,310.588 123.855,310.588 123.13,308.429   "
   id="polygon289" />&#10;		<polygon
   fill="#6F6F6E"
   points="87.054,306.914 86.816,306.876 86.616,306.876 86.24,306.876 86.103,306.914 86.053,306.992     86.053,307.722 86.091,307.813 86.206,307.864 86.591,307.864 86.809,307.864 87.091,307.864 87.142,307.838 87.142,307.774     87.142,306.99 87.092,306.951   "
   id="polygon291" />&#10;		<path
   fill="#6F6F6E"
   d="M140.24,303.324H80.75c-1.627,0-2.958,1.331-2.958,2.957v35.547c0,1.628,1.331,2.959,2.958,2.959h59.49    c1.627,0,2.958-1.331,2.958-2.959v-35.547C143.198,304.655,141.867,303.324,140.24,303.324z M88.206,312.821h-1.064v-4.244h-0.563    c-0.225,0-0.434-0.024-0.625-0.075c-0.193-0.049-0.372-0.137-0.539-0.257c-0.166-0.122-0.29-0.257-0.369-0.403    s-0.119-0.3-0.119-0.461c0-0.141,0.04-0.283,0.119-0.42c0.079-0.138,0.195-0.267,0.351-0.385c0.154-0.116,0.332-0.206,0.531-0.265    c0.109-0.024,0.214-0.045,0.313-0.062c0.101-0.018,0.213-0.026,0.338-0.026c0.151,0,0.259,0.004,0.326,0.013    c0.066,0.008,0.184,0.038,0.351,0.09c0.167,0.049,0.325,0.126,0.476,0.231c0.149,0.104,0.267,0.229,0.351,0.371    c0.083,0.141,0.125,0.291,0.125,0.452V312.821z M92.454,312.54c-1.58,0-2.864-1.283-2.864-2.864c0-1.579,1.284-2.865,2.864-2.865    c1.581,0,2.865,1.286,2.865,2.865C95.319,311.257,94.035,312.54,92.454,312.54z M100.265,309.612c0,0.161-0.05,0.315-0.15,0.465    c-0.101,0.126-0.244,0.238-0.433,0.34c-0.188,0.1-0.4,0.18-0.638,0.238c-0.238,0.06-0.498,0.088-0.782,0.088l1.258,1.736    l-0.782,0.521l-1.929-2.533l0.639-0.601l0.989,0.214h0.351c0.126-0.019,0.226-0.041,0.301-0.071    c0.074-0.028,0.129-0.062,0.162-0.094l0.075-0.165v-2.522c-0.024-0.06-0.046-0.096-0.062-0.114    c-0.041-0.041-0.101-0.079-0.175-0.114l-0.063-0.012l-0.062-0.024h-0.063l-0.062-0.027h-0.163h-0.161c-0.159,0-0.272,0-0.339,0    c-0.093,0-0.173,0.017-0.244,0.045c-0.071,0.031-0.128,0.067-0.169,0.11l-0.05,0.155v1.182h-0.952v-1.172    c0-0.135,0.044-0.261,0.132-0.379c0.087-0.116,0.215-0.229,0.382-0.332c0.167-0.106,0.327-0.178,0.481-0.214    c0.155-0.039,0.287-0.065,0.395-0.082c0.109-0.018,0.226-0.026,0.351-0.026c0.242,0,0.468,0.026,0.677,0.075    c0.208,0.052,0.398,0.127,0.569,0.227s0.299,0.214,0.382,0.338c0.042,0.06,0.074,0.123,0.1,0.189    c0.025,0.067,0.038,0.139,0.038,0.212V309.612z M124.515,312.615l-0.351-1.051h-2.109l-0.359,1.051h-1.21l2.161-5.939h0.909    l2.168,5.939H124.515z M130.74,310.58c0,1.262-0.968,2.087-2.187,2.087c-1.216,0-2.184-0.825-2.184-2.087v-3.904h1.159v3.863    c0,0.685,0.399,1.093,1.024,1.093c0.626,0,1.035-0.408,1.035-1.093v-3.863h1.151V310.58z M135.006,312.615l-1.151-2.067    l-1.142,2.067h-1.326l1.843-3.044l-1.727-2.896h1.317l1.034,1.92l1.043-1.92h1.31l-1.727,2.896l1.851,3.044H135.006z"
   id="path293" />&#10;		<path
   fill="#6F6F6E"
   d="M92.454,307.846c-1.008,0-1.829,0.821-1.829,1.83c0,1.008,0.821,1.829,1.829,1.829    c1.009,0,1.83-0.821,1.83-1.829C94.284,308.667,93.463,307.846,92.454,307.846z M92.932,310.884l-0.478-0.477l-0.477,0.477    l-0.731-0.731l0.477-0.477l-0.477-0.475l0.731-0.732l0.476,0.476l0.478-0.478l0.731,0.731l-0.476,0.478l0.477,0.477    L92.932,310.884z"
   id="path295" />&#10;	</g>&#10;	<g
   id="g301">&#10;		<path
   fill="#1D1D1B"
   d="M23.999,180.849c-0.289,0-0.521-0.233-0.521-0.521v-0.521c0-0.289,0.233-0.521,0.521-0.521    c0.288,0,0.521,0.233,0.521,0.521v0.521C24.52,180.616,24.287,180.849,23.999,180.849z M23.999,178.241    c-0.289,0-0.521-0.233-0.521-0.521v-0.522c0-0.288,0.233-0.521,0.521-0.521c0.288,0,0.521,0.233,0.521,0.521v0.522    C24.52,178.007,24.287,178.241,23.999,178.241z"
   id="path299" />&#10;	</g>&#10;	<path
   fill="none"
   stroke="#000000"
   stroke-linecap="round"
   stroke-miterlimit="10"
   stroke-dasharray="0.5,2"
   d="M23.963,170.797"
   id="path303" />&#10;	&#10;	<g
   id="g329">&#10;		&#10;	</g>&#10;	&#10;	&#10;	&#10;	&#10;	&#10;	&#10;	&#10;	&#10;<g
   id="g1"
   transform="matrix(1,0,0,0.88044775,0,0.35865667)"><g
     id="SvgjsG1507"
     featurekey="UqkkrJ-0"
     transform="matrix(0.46000436,0,0,0.69878001,-1.8000431,-8.1804599)"
     fill="#8e0b0b"><g
       transform="translate(0,-952.36218)"
       id="g2"><path
         d="m 33,968.36215 c -2.752701,0 -5,2.2473 -5,5 v 58.00005 c 0,2.7527 2.247299,5 5,5 h 34 c 2.752701,0 5,-2.2473 5,-5 v -58.00005 c 0,-2.7527 -2.247299,-5 -5,-5 z m 0,2 h 34 c 1.679301,0 3,1.3207 3,3 v 58.00005 c 0,1.6793 -1.320699,3 -3,3 H 33 c -1.6793,0 -3,-1.3207 -3,-3 v -58.00005 c 0,-1.6793 1.3207,-3 3,-3 z m 17,8 c 6.63927,0 12,5.36073 12,12 0,6.63926 -5.36073,12.00005 -12,12.00005 -6.63928,0 -12,-5.36079 -12,-12.00005 0,-6.63927 5.36072,-12 12,-12 z m 0,3 c -4.95872,0 -9,4.04128 -9,9 0,4.95872 4.04128,9 9,9 4.95872,0 9,-4.04128 9,-9 0,-4.95872 -4.04128,-9 -9,-9 z m -32,2 c -5,0 -8.0000005,12 -8.0000005,19.00005 0,6.9999 3.0000005,19 8.0000005,19 -3,-2 -5,-14.0001 -5,-19 0,-5.00005 2,-17.00005 5,-19.00005 z m 32,0 c 3.87782,0 7,3.12216 7,7 0,3.87784 -3.12218,7 -7,7 -3.877809,0 -7,-3.12216 -7,-7 0,-3.87784 3.122191,-7 7,-7 z m 32,0 c 3,2 5,14 5,19.00005 0,4.9999 -2,17 -5,19 5,0 8,-12.0001 8,-19 0,-7.00005 -3,-19.00005 -8,-19.00005 z m -57,6 c -3,10e-6 -6,8 -6,13.00005 0,4.9999 3,12.9999 6,12.9999 -2,-2 -3,-9 -3,-12.9999 0,-4.00005 1,-11.00005 3,-13.00005 z m 50,0 c 2,2 3,9 3,13.00005 0,3.9999 -1,10.9999 -3,12.9999 3,0 6,-8 6,-12.9999 0,-5.00005 -3,-13.00004 -6,-13.00005 z m -25,24.99995 c -3.854159,0 -7,3.1459 -7,7.0001 0,3.8541 3.145841,7 7,7 3.85416,0 7,-3.1459 7,-7 0,-3.8542 -3.14584,-7.0001 -7,-7.0001 z m 0,2.0001 c 2.77328,0 5,2.2267 5,5 0,2.7733 -2.22672,5 -5,5 -2.77328,0 -5,-2.2267 -5,-5 0,-2.7733 2.22672,-5 5,-5 z m 0,2 c -1.65685,0 -3,1.3431 -3,3 0,1.6568 1.34315,3 3,3 1.656851,0 3,-1.3432 3,-3 0,-1.6569 -1.343149,-3 -3,-3 z"
         style="text-indent:0;text-transform:none;direction:ltr;baseline-shift:baseline;enable-background:accumulate"
         fill="#8e0b0b"
         fill-opacity="1"
         stroke="none"
         marker="none"
         visibility="visible"
         display="inline"
         overflow="visible"
         id="path1" /></g></g><g
     id="SvgjsG1509"
     featurekey="Nh6iBa-0"
     transform="matrix(0.34573523,0,0,1.0396473,45.487214,28.529435)"
     fill="#000000"><path
       d="m 4.04,6 c 2.2,0 3.28,1.22 3.28,3.46 v 1.82 c 0,2.24 -1.08,3.46 -3.28,3.46 H 3 V 20 H 0.8 V 6 Z m 0,2 H 3 v 4.74 h 1.04 c 0.7,0 1.08,-0.32 1.08,-1.32 V 9.32 C 5.12,8.32 4.74,8 4.04,8 Z m 17.947937,-2 2.24,14 h -2.22 l -0.38,-2.54 h -2.7 l -0.38,2.54 h -2.02 L 18.767938,6 Z m -1.74,2.48 -1.04,7.08 h 2.12 L 20.287938,8.48 Z M 41.115875,20 h -2.24 c -0.12,-0.36 -0.2,-0.58 -0.2,-1.72 v -2.2 c 0,-1.3 -0.44,-1.78 -1.44,-1.78 h -0.76 V 20 h -2.2 V 6 h 3.32 c 2.28,0 3.26,1.06 3.26,3.22 v 1.1 c 0,1.44 -0.46,2.36 -1.44,2.82 v 0.04 c 1.1,0.46 1.46,1.5 1.46,2.96 v 2.16 c 0,0.68 0.02,1.18 0.24,1.7 z m -3.58,-12 h -1.06 v 4.3 h 0.86 c 0.82,0 1.32,-0.36 1.32,-1.48 V 9.44 c 0,-1 -0.34,-1.44 -1.12,-1.44 z m 18.687937,-2 2.240001,14 h -2.22 l -0.38,-2.54 h -2.700001 l -0.38,2.54 h -2.02 l 2.24,-14 z m -1.74,2.48 -1.04,7.08 h 2.12 l -1.04,-7.08 z M 68.23175,9.36 c 0,-2.24 1.1,-3.52 3.24,-3.52 2.14,0 3.24,1.28 3.24,3.52 V 9.8 h -2.08 V 9.22 c 0,-1 -0.4,-1.38 -1.1,-1.38 -0.7,0 -1.1,0.38 -1.1,1.38 0,1.02 0.44,1.78 1.88,3.04 1.84,1.62 2.42,2.78 2.42,4.38 0,2.24 -1.12,3.52 -3.28,3.52 -2.16,0 -3.28,-1.28 -3.28,-3.52 v -0.86 h 2.08 v 1 c 0,1 0.44,1.36 1.14,1.36 0.7,0 1.14,-0.36 1.14,-1.36 0,-1.02 -0.44,-1.78 -1.88,-3.04 -1.84,-1.62 -2.42,-2.78 -2.42,-4.38 z M 85.019687,20 V 6 h 2.2 V 20 Z M 97.207625,8 V 6 h 6.799995 v 2 h -2.3 V 20 H 99.507625 V 8 Z M 113.99556,20 V 6 h 2.2 v 14 z m 17.12794,-5.22 h 2.08 v 1.86 c 0,2.24 -1.12,3.52 -3.28,3.52 -2.16,0 -3.28,-1.28 -3.28,-3.52 V 9.36 c 0,-2.24 1.12,-3.52 3.28,-3.52 2.16,0 3.28,1.28 3.28,3.52 v 1.36 h -2.08 v -1.5 c 0,-1 -0.44,-1.38 -1.14,-1.38 -0.7,0 -1.14,0.38 -1.14,1.38 v 7.56 c 0,1 0.44,1.36 1.14,1.36 0.7,0 1.14,-0.36 1.14,-1.36 z M 155.69937,20 V 6 h 3.48 c 2.2,0 3.28,1.22 3.28,3.46 v 7.08 c 0,2.24 -1.08,3.46 -3.28,3.46 z m 3.44,-12 h -1.24 v 10 h 1.24 c 0.7,0 1.12,-0.36 1.12,-1.36 V 9.36 c 0,-1 -0.41999,-1.36 -1.12,-1.36 z m 15.94794,0 v 3.9 h 3.02 v 2 h -3.02 V 18 h 3.8 v 2 h -6 V 6 h 6 v 2 z m 14.18794,12 V 6 h 2.2 v 12 h 3.62 v 2 z m 20.68794,-14 2.24,14 h -2.22 l -0.38,-2.54 h -2.7 l -0.38,2.54 h -2.02 l 2.24,-14 z m -1.74,2.48 -1.04,7.08 h 2.12 l -1.04,-7.08 z M 224.31112,20 v -4.64 l -2.78,-9.36 h 2.30001 l 1.65999,6.38 h 0.04 l 1.66,-6.38 h 2.1 l -2.78,9.36 V 20 Z"
       id="path3" /></g><path
     d="M 64.452495,6.5665075 H 60.380754 V 22.025698 H 57.964557 V 6.5665075 H 53.892816 V 4.1279377 H 64.452495 Z M 81.679089,22.025698 h -2.572803 l -1.812148,-5.011373 h -6.801149 l -1.812148,5.011373 H 66.085666 L 72.573604,4.1279377 h 2.617547 z M 76.39925,14.575755 73.893564,7.6851175 71.387877,14.575755 Z m 18.680792,-3.422946 -2.572803,2.528058 H 85.90744 v 8.344831 H 83.468871 V 4.1279377 h 9.038368 l 2.572803,2.5504308 z M 92.6191,10.123687 V 7.6851175 l -1.096237,-1.11861 H 85.90744 v 4.6757895 h 5.615423 z m 13.80366,11.902011 H 97.071177 V 4.1279377 h 9.351583 v 2.4385698 h -6.913014 v 5.0561175 h 5.279844 v 2.460942 h -5.279844 v 5.503561 h 6.913014 z M 130.09252,4.1279377 125.30487,22.025698 h -2.52805 l -3.57956,-13.2219705 -3.5348,13.2219705 h -2.50569 L 108.34675,4.1279377 h 2.52805 l 3.53481,13.2219703 3.53481,-13.2219703 h 2.52806 l 3.55718,13.1995983 3.53481,-13.1995983 z m 17.94252,15.3697013 -2.55043,2.528059 h -10.26884 l -2.55043,-2.528059 V 6.6559963 l 2.55043,-2.5280586 h 10.26884 l 2.55043,2.5280586 z M 145.59647,18.49089 V 7.6627453 l -1.09624,-1.0962378 h -8.30009 l -1.09623,1.0962378 V 18.49089 l 1.09623,1.096238 h 8.30009 z m 18.56894,-7.338081 -2.55043,2.528058 h -2.70704 l 4.81002,8.344831 h -2.48331 l -4.81003,-8.344831 h -3.04261 v 8.344831 h -2.43857 V 4.1279377 h 10.67154 l 2.55043,2.5504308 z m -2.43857,-1.029122 V 7.6851175 l -1.09624,-1.11861 h -7.24859 v 4.6757895 h 7.24859 z m 18.994,11.902011 h -2.43857 v -11.79015 l -3.66904,11.79015 h -1.52131 l -3.66904,-11.79015 v 11.79015 h -2.43857 V 4.1279377 h 2.95313 l 3.91513,12.1257323 3.91514,-12.1257323 h 2.95313 z"
     id="text1"
     style="font-size:22.3722px;line-height:1.25;font-family:Tapeworm;-inkscape-font-specification:Tapeworm;letter-spacing:0px;word-spacing:0px;stroke-width:0.838959"
     transform="scale(0.78659443,1.2713032)"
     aria-label="Tapeworm" /></g></g>&#10;<g
   id="decoupe"
   display="none">&#10;	&#10;		<path
   display="inline"
   fill="none"
   stroke="#E42320"
   stroke-width="0.2835"
   stroke-linecap="round"
   stroke-linejoin="round"
   stroke-miterlimit="10"
   d="   M17.414,371.108c0.07,2.6,2.19,4.719,4.805,4.719s4.733-2.119,4.733-4.733s-2.119-4.731-4.733-4.731s-4.734,2.117-4.734,4.731"
   id="path408" />&#10;	&#10;		<path
   display="inline"
   fill="none"
   stroke="#E42320"
   stroke-width="0.2835"
   stroke-linecap="round"
   stroke-linejoin="round"
   stroke-miterlimit="10"
   d="   M17.414,8.768c0.07,2.602,2.19,4.721,4.805,4.721s4.733-2.119,4.733-4.732c0-2.614-2.119-4.733-4.733-4.733   s-4.734,2.119-4.734,4.733"
   id="path410" />&#10;	&#10;		<path
   display="inline"
   fill="none"
   stroke="#E42320"
   stroke-width="0.2835"
   stroke-linecap="round"
   stroke-linejoin="round"
   stroke-miterlimit="10"
   d="   M63.519,98.695c0.107,6.105,5.074,11.071,11.203,11.071c6.128,0,11.095-4.966,11.095-11.092c0-6.126-4.967-11.092-11.095-11.092   c-6.129,0-11.096,4.966-11.096,11.092"
   id="path412" />&#10;	&#10;		<path
   display="inline"
   fill="none"
   stroke="#E42320"
   stroke-width="0.2835"
   stroke-linecap="round"
   stroke-linejoin="round"
   stroke-miterlimit="10"
   d="   M14.409,222.689c0.117,5.147,4.355,9.386,9.584,9.386c5.229,0,9.469-4.238,9.469-9.465c0-5.229-4.239-9.467-9.469-9.467   c-5.229,0-9.467,4.238-9.467,9.467"
   id="path414" />&#10;	&#10;		<path
   display="inline"
   fill="none"
   stroke="#E42320"
   stroke-width="0.2835"
   stroke-linecap="round"
   stroke-linejoin="round"
   stroke-miterlimit="10"
   d="   M52.871,222.689c0.118,5.147,4.357,9.386,9.585,9.386c5.231,0,9.47-4.238,9.47-9.465c0-5.229-4.238-9.467-9.47-9.467   c-5.228,0-9.467,4.238-9.467,9.467"
   id="path416" />&#10;	&#10;		<path
   display="inline"
   fill="none"
   stroke="#E42320"
   stroke-width="0.2835"
   stroke-linecap="round"
   stroke-linejoin="round"
   stroke-miterlimit="10"
   d="   M103.108,193.381c0.03,6.072,4.999,11.038,11.126,11.038c6.128,0,11.097-4.966,11.097-11.093c0-6.126-4.969-11.092-11.097-11.092   c-6.127,0-11.096,4.966-11.096,11.092"
   id="path418" />&#10;	&#10;		<path
   display="inline"
   fill="none"
   stroke="#E42320"
   stroke-width="0.2835"
   stroke-linecap="round"
   stroke-linejoin="round"
   stroke-miterlimit="10"
   d="   M67.153,70.389c0.024,4.056,3.4,7.433,7.568,7.433c4.166,0,7.545-3.377,7.545-7.542c0-4.166-3.379-7.542-7.545-7.542   c-4.168,0-7.544,3.377-7.544,7.542"
   id="path420" />&#10;	&#10;		<path
   display="inline"
   fill="none"
   stroke="#E42320"
   stroke-width="0.2835"
   stroke-linecap="round"
   stroke-linejoin="round"
   stroke-miterlimit="10"
   d="   M16.298,189.875c0.015,4.149,3.459,7.593,7.707,7.593c4.25,0,7.693-3.443,7.693-7.691c0-4.247-3.443-7.69-7.693-7.69   c-4.248,0-7.692,3.443-7.692,7.69"
   id="path422" />&#10;	&#10;		<path
   display="inline"
   fill="none"
   stroke="#E42320"
   stroke-width="0.2835"
   stroke-linecap="round"
   stroke-linejoin="round"
   stroke-miterlimit="10"
   d="   M19.294,170.962c0.113,2.416,2.167,4.469,4.699,4.469c2.534,0,4.587-2.053,4.587-4.585c0-2.532-2.053-4.584-4.587-4.584   c-2.533,0-4.586,2.053-4.586,4.584"
   id="path424" />&#10;	&#10;		<path
   display="inline"
   fill="none"
   stroke="#E42320"
   stroke-width="0.2835"
   stroke-linecap="round"
   stroke-linejoin="round"
   stroke-miterlimit="10"
   d="   M11.401,285.438c0.018,5.186,4.323,9.491,9.632,9.491c5.312,0,9.616-4.306,9.616-9.613c0-5.31-4.304-9.613-9.616-9.613   c-5.31,0-9.614,4.304-9.614,9.613"
   id="path426" />&#10;	&#10;		<path
   display="inline"
   fill="none"
   stroke="#E42320"
   stroke-width="0.2835"
   stroke-linecap="round"
   stroke-linejoin="round"
   stroke-miterlimit="10"
   d="   M47.106,285.438c0.113,5.186,4.417,9.491,9.729,9.491c5.31,0,9.615-4.306,9.615-9.613c0-5.31-4.305-9.613-9.615-9.613   c-5.312,0-9.616,4.304-9.616,9.613"
   id="path428" />&#10;	&#10;		<path
   display="inline"
   fill="none"
   stroke="#E42320"
   stroke-width="0.2835"
   stroke-linecap="round"
   stroke-linejoin="round"
   stroke-miterlimit="10"
   d="   M82.938,285.438c0.082,5.186,4.388,9.491,9.696,9.491c5.313,0,9.617-4.306,9.617-9.613c0-5.31-4.304-9.613-9.617-9.613   c-5.309,0-9.614,4.304-9.614,9.613"
   id="path430" />&#10;	&#10;		<path
   display="inline"
   fill="none"
   stroke="#E42320"
   stroke-width="0.2835"
   stroke-linecap="round"
   stroke-linejoin="round"
   stroke-miterlimit="10"
   d="   M118.769,285.438c0.052,5.186,4.357,9.491,9.668,9.491s9.616-4.306,9.616-9.613c0-5.31-4.306-9.613-9.616-9.613   s-9.616,4.304-9.616,9.613"
   id="path432" />&#10;	&#10;		<path
   display="inline"
   fill="none"
   stroke="#E42320"
   stroke-width="0.2835"
   stroke-linecap="round"
   stroke-linejoin="round"
   stroke-miterlimit="10"
   d="   M11.401,328.525c0.018,5.285,4.323,9.588,9.632,9.588c5.312,0,9.616-4.303,9.616-9.612c0-5.309-4.304-9.611-9.616-9.611   c-5.31,0-9.614,4.303-9.614,9.611"
   id="path434" />&#10;	&#10;		<path
   display="inline"
   fill="none"
   stroke="#E42320"
   stroke-width="0.2835"
   stroke-linecap="round"
   stroke-linejoin="round"
   stroke-miterlimit="10"
   d="   M47.106,328.525c0.113,5.285,4.417,9.588,9.729,9.588c5.31,0,9.615-4.303,9.615-9.612c0-5.309-4.305-9.611-9.615-9.611   c-5.312,0-9.616,4.303-9.616,9.611"
   id="path436" />&#10;	<g
   display="inline"
   id="g442">&#10;		&#10;			<path
   fill="none"
   stroke="#E42320"
   stroke-width="0.2835"
   stroke-linecap="round"
   stroke-linejoin="round"
   stroke-miterlimit="10"
   d="    M82.938,328.525c0.082,5.285,4.388,9.588,9.696,9.588c5.313,0,9.617-4.303,9.617-9.612c0-5.309-4.304-9.611-9.617-9.611    c-5.309,0-9.614,4.303-9.614,9.611"
   id="path438" />&#10;		&#10;			<path
   fill="none"
   stroke="#E42320"
   stroke-width="0.2835"
   stroke-linecap="round"
   stroke-linejoin="round"
   stroke-miterlimit="10"
   d="    M118.769,328.525c0.052,5.285,4.357,9.588,9.668,9.588s9.616-4.303,9.616-9.612c0-5.309-4.306-9.611-9.616-9.611    s-9.616,4.303-9.616,9.611"
   id="path440" />&#10;	</g>&#10;	&#10;		<path
   display="inline"
   fill="none"
   stroke="#E42320"
   stroke-width="0.2835"
   stroke-linecap="round"
   stroke-linejoin="round"
   stroke-miterlimit="10"
   d="   M122.653,8.768c0.043,2.602,2.164,4.721,4.777,4.721c2.615,0,4.735-2.119,4.735-4.732c0-2.614-2.12-4.733-4.735-4.733   c-2.613,0-4.734,2.119-4.734,4.733"
   id="path444" />&#10;	&#10;		<path
   display="inline"
   fill="none"
   stroke="#E42320"
   stroke-width="0.2835"
   stroke-linecap="round"
   stroke-linejoin="round"
   stroke-miterlimit="10"
   d="   M122.653,371.108c0.043,2.6,2.164,4.719,4.777,4.719c2.615,0,4.735-2.119,4.735-4.733s-2.12-4.731-4.735-4.731   c-2.613,0-4.734,2.117-4.734,4.731"
   id="path446" />&#10;	&#10;		<rect
   display="inline"
   fill="none"
   stroke="#E42320"
   stroke-width="0.2835"
   stroke-linecap="round"
   stroke-linejoin="round"
   stroke-miterlimit="10"
   width="149.635"
   height="380"
   id="rect448" />&#10;</g>&#10;<g
   id="widgets"
   display="none">&#10;	&#10;		<rect
   id="PJ301_6_"
   x="9.761"
   y="273.818"
   display="inline"
   fill="none"
   stroke="#000000"
   stroke-miterlimit="10"
   width="22.992"
   height="22.996" />&#10;	&#10;		<rect
   id="PJ301_1_"
   x="45.283"
   y="273.818"
   display="inline"
   fill="none"
   stroke="#000000"
   stroke-miterlimit="10"
   width="22.992"
   height="22.996" />&#10;	&#10;		<rect
   id="PJ301_2_"
   x="81.199"
   y="273.818"
   display="inline"
   fill="none"
   stroke="#000000"
   stroke-miterlimit="10"
   width="22.992"
   height="22.996" />&#10;	&#10;		<rect
   id="PJ301_3_"
   x="116.914"
   y="273.818"
   display="inline"
   fill="none"
   stroke="#000000"
   stroke-miterlimit="10"
   width="22.992"
   height="22.996" />&#10;	&#10;		<rect
   id="PJ301_8_"
   x="9.761"
   y="317.004"
   display="inline"
   fill="none"
   stroke="#000000"
   stroke-miterlimit="10"
   width="22.992"
   height="22.996" />&#10;	&#10;		<rect
   id="PJ301_7_"
   x="45.283"
   y="317.004"
   display="inline"
   fill="none"
   stroke="#000000"
   stroke-miterlimit="10"
   width="22.992"
   height="22.996" />&#10;	&#10;		<rect
   id="PJ301_5_"
   x="81.199"
   y="317.004"
   display="inline"
   fill="none"
   stroke="#000000"
   stroke-miterlimit="10"
   width="22.992"
   height="22.996" />&#10;	&#10;		<rect
   id="PJ301_4_"
   x="116.914"
   y="317.004"
   display="inline"
   fill="none"
   stroke="#000000"
   stroke-miterlimit="10"
   width="22.992"
   height="22.996" />&#10;	&#10;		<rect
   id="TrimPot_1_"
   x="14.938"
   y="213.449"
   display="inline"
   fill="none"
   stroke="#000000"
   stroke-miterlimit="10"
   width="17.994"
   height="17.997" />&#10;	&#10;		<rect
   id="TrimPot_2_"
   x="53.432"
   y="213.449"
   display="inline"
   fill="none"
   stroke="#000000"
   stroke-miterlimit="10"
   width="17.994"
   height="17.997" />&#10;	&#10;		<rect
   id="Rogan6"
   x="29.668"
   y="53.675"
   display="inline"
   fill="none"
   stroke="#000000"
   stroke-miterlimit="10"
   width="90"
   height="90" />&#10;	&#10;		<rect
   id="Rogan_5_"
   x="94.726"
   y="173.328"
   display="inline"
   fill="none"
   stroke="#000000"
   stroke-miterlimit="10"
   width="38.987"
   height="39.996" />&#10;	&#10;		<rect
   id="TL1105_2_"
   x="15.999"
   y="181.781"
   display="inline"
   fill="none"
   stroke="#000000"
   stroke-miterlimit="10"
   width="16"
   height="15.999" />&#10;	&#10;		<rect
   id="SmallLight_1_"
   x="20.499"
   y="167.347"
   display="inline"
   fill="none"
   stroke="#000000"
   stroke-miterlimit="10"
   width="7"
   height="7" />&#10;</g>&#10;</svg>
