<?xml version="1.0" encoding="UTF-8" standalone="no"?>
<!-- Generator: Adobe Illustrator 16.0.3, SVG Export Plug-In . SVG Version: 6.00 Build 0)  -->

<svg
   xmlns:dc="http://purl.org/dc/elements/1.1/"
   xmlns:cc="http://creativecommons.org/ns#"
   xmlns:rdf="http://www.w3.org/1999/02/22-rdf-syntax-ns#"
   xmlns:svg="http://www.w3.org/2000/svg"
   xmlns="http://www.w3.org/2000/svg"
   xmlns:sodipodi="http://sodipodi.sourceforge.net/DTD/sodipodi-0.dtd"
   xmlns:inkscape="http://www.inkscape.org/namespaces/inkscape"
   version="1.1"
   x="0px"
   y="0px"
   width="150px"
   height="380px"
   viewBox="0 0 150 380"
   enable-background="new 0 0 150 380"
   xml:space="preserve"
   id="svg466"
   sodipodi:docname="Tapeworm.svg"
   inkscape:version="0.92.4 (5da689c313, 2019-01-14)"><metadata
   id="metadata472"><rdf:RDF><cc:Work
       rdf:about=""><dc:format>image/svg+xml</dc:format><dc:type
         rdf:resource="http://purl.org/dc/dcmitype/StillImage" /></cc:Work></rdf:RDF></metadata><defs
   id="defs470" /><sodipodi:namedview
   pagecolor="#ffffff"
   bordercolor="#666666"
   borderopacity="1"
   objecttolerance="10"
   gridtolerance="10"
   guidetolerance="10"
   inkscape:pageopacity="0"
   inkscape:pageshadow="2"
   inkscape:window-width="1366"
   inkscape:window-height="715"
   id="namedview468"
   showgrid="false"
   inkscape:zoom="7.5785761"
   inkscape:cx="75"
   inkscape:cy="334.38495"
   inkscape:window-x="-8"
   inkscape:window-y="-8"
   inkscape:window-maximized="1"
   inkscape:current-layer="faceplate" />
<g
   id="faceplate">
	<rect
   id="background"
   fill="#E6E6E6"
   width="150"
   height="380" />
	
	
	
	
	
	
	
	
	<g
   id="g39">
		<path
   fill="#D83559"
   d="M70.739,183.862H37.125c-1.627,0-2.958,1.331-2.958,2.957v5.917c0,1.626,1.331,2.956,2.958,2.956h33.614    c1.627,0,2.958-1.33,2.958-2.956v-5.917C73.697,185.192,72.366,183.862,70.739,183.862z M39.037,192.749h-1.159v-5.939h1.159    V192.749z M44.969,192.749h-1.035l-2.352-3.645v3.645h-1.159v-5.939h1.034l2.352,3.637v-3.637h1.16V192.749z M50.177,187.845    h-1.552v4.904h-1.159v-4.904h-1.552v-1.035h4.263V187.845z M52.239,192.749h-1.243v-1.234h1.243V192.749z M59.032,192.148    c-0.417,0.417-0.927,0.651-1.602,0.651c-0.676,0-1.194-0.234-1.61-0.651c-0.6-0.6-0.584-1.343-0.584-2.369    c0-1.026-0.016-1.768,0.584-2.369c0.417-0.417,0.934-0.651,1.61-0.651c0.675,0,1.184,0.234,1.602,0.651    c0.6,0.601,0.591,1.343,0.591,2.369C59.623,190.805,59.632,191.549,59.032,192.148z M62.446,192.8    c-0.901,0-1.585-0.191-2.169-0.784l0.751-0.75c0.376,0.375,0.884,0.499,1.434,0.499c0.684,0,1.052-0.259,1.052-0.733    c0-0.208-0.058-0.383-0.185-0.501c-0.116-0.108-0.25-0.167-0.525-0.208l-0.718-0.1c-0.508-0.075-0.883-0.234-1.15-0.493    c-0.284-0.283-0.425-0.667-0.425-1.167c0-1.06,0.783-1.802,2.068-1.802c0.817,0,1.41,0.201,1.918,0.693l-0.734,0.725    c-0.375-0.358-0.825-0.408-1.217-0.408c-0.618,0-0.918,0.342-0.918,0.75c0,0.15,0.051,0.309,0.175,0.425    c0.117,0.109,0.31,0.201,0.55,0.234l0.701,0.1c0.542,0.075,0.884,0.225,1.135,0.458c0.317,0.301,0.458,0.735,0.458,1.261    C64.648,192.148,63.688,192.8,62.446,192.8z M66.995,191.457c0.175,0.208,0.426,0.308,0.742,0.308c0.56,0,0.876-0.334,1.001-0.841    h1.177c-0.201,1.208-1.051,1.876-2.187,1.876c-0.633,0-1.167-0.218-1.602-0.651c-0.259-0.257-0.417-0.559-0.483-0.893    c-0.067-0.333-0.101-0.825-0.101-1.476c0-0.65,0.034-1.142,0.101-1.476c0.066-0.342,0.224-0.634,0.483-0.893    c0.434-0.434,0.968-0.651,1.602-0.651c1.143,0,1.986,0.667,2.187,1.877h-1.177c-0.125-0.509-0.442-0.842-1.001-0.842    c-0.316,0-0.566,0.1-0.742,0.309c-0.242,0.258-0.292,0.525-0.292,1.676C66.703,190.932,66.753,191.198,66.995,191.457z"
   id="path35" />
		<path
   fill="#D83559"
   d="M57.431,187.795c-0.318,0-0.584,0.124-0.751,0.317c-0.224,0.25-0.283,0.525-0.283,1.667    c0,1.144,0.059,1.418,0.283,1.669c0.167,0.191,0.434,0.315,0.751,0.315c0.316,0,0.575-0.124,0.742-0.315    c0.225-0.251,0.292-0.526,0.292-1.669c0-1.142-0.066-1.418-0.292-1.667C58.005,187.919,57.747,187.795,57.431,187.795z"
   id="path37" />
	</g>
	<g
   id="g53">
		<path
   fill="#1D1D1B"
   d="M102.142,221.797v4.905h-1.16v-4.905h-1.55v-1.035h4.262v1.035H102.142z"
   id="path41" />
		<path
   fill="#1D1D1B"
   d="M104.639,226.702v-5.94h1.159v5.94H104.639z"
   id="path43" />
		<path
   fill="#1D1D1B"
   d="M111.404,226.702v-3.462l-1.134,2.253h-0.784l-1.143-2.253v3.462h-1.159v-5.94h1.142l1.552,3.214    l1.543-3.214h1.143v5.94H111.404z"
   id="path45" />
		<path
   fill="#1D1D1B"
   d="M116.438,226.702h-2.485v-5.94h2.385c1.16,0,1.836,0.652,1.836,1.669c0,0.66-0.435,1.084-0.733,1.227    c0.358,0.167,0.816,0.542,0.816,1.335C118.256,226.101,117.497,226.702,116.438,226.702z M116.245,221.797h-1.134v1.367h1.134    c0.493,0,0.769-0.274,0.769-0.683C117.014,222.072,116.738,221.797,116.245,221.797z M116.32,224.208h-1.209v1.461h1.209    c0.526,0,0.776-0.335,0.776-0.736C117.097,224.534,116.847,224.208,116.32,224.208z"
   id="path47" />
		<path
   fill="#1D1D1B"
   d="M122.597,226.702l-1.16-2.368h-0.833v2.368h-1.159v-5.94h2.327c1.209,0,1.926,0.828,1.926,1.82    c0,0.833-0.508,1.351-1.084,1.559l1.326,2.562H122.597z M121.695,221.797h-1.092v1.569h1.092c0.51,0,0.843-0.326,0.843-0.784    C122.538,222.123,122.205,221.797,121.695,221.797z"
   id="path49" />
		<path
   fill="#1D1D1B"
   d="M124.901,226.702v-5.94h3.912v1.035h-2.752v1.395h2.344v1.032h-2.344v1.445h2.752v1.033H124.901z"
   id="path51" />
	</g>
	<rect
   x="6.479"
   y="351.541"
   fill="#C6C6C5"
   width="136.679"
   height="2.091"
   id="rect55" />
	
	<g
   id="g241">
		<path
   fill="#1D1D1B"
   d="M55.812,163.545l-0.351-1.052h-2.11l-0.358,1.052h-1.21l2.161-5.939h0.91l2.168,5.939H55.812z     M54.427,159.358l-0.75,2.16h1.476L54.427,159.358z"
   id="path223" />
		<path
   fill="#1D1D1B"
   d="M57.759,163.545v-5.939h1.16v4.905h2.693v1.034H57.759z"
   id="path225" />
		<path
   fill="#1D1D1B"
   d="M66.003,162.92c-0.459,0.466-1.011,0.675-1.677,0.675c-0.634,0-1.168-0.217-1.602-0.651    c-0.259-0.258-0.418-0.559-0.484-0.893c-0.066-0.333-0.101-0.825-0.101-1.476c0-0.65,0.035-1.142,0.101-1.477    c0.066-0.342,0.225-0.633,0.484-0.892c0.434-0.434,0.968-0.651,1.602-0.651c1.351,0,2.076,0.868,2.235,1.902h-1.167    c-0.143-0.576-0.493-0.867-1.067-0.867c-0.31,0-0.56,0.108-0.743,0.317c-0.217,0.275-0.285,0.492-0.285,1.668    c0,1.168,0.051,1.402,0.285,1.677c0.175,0.209,0.425,0.309,0.743,0.309c0.342,0,0.617-0.109,0.825-0.334    c0.175-0.2,0.267-0.467,0.267-0.792v-0.225h-1.092v-0.968h2.243v0.867C66.569,161.978,66.41,162.486,66.003,162.92z"
   id="path227" />
		<path
   fill="#1D1D1B"
   d="M71.251,162.944c-0.417,0.417-0.926,0.651-1.602,0.651c-0.676,0-1.193-0.233-1.609-0.651    c-0.601-0.6-0.585-1.343-0.585-2.369s-0.016-1.768,0.585-2.369c0.417-0.417,0.933-0.651,1.609-0.651    c0.676,0,1.184,0.234,1.602,0.651c0.601,0.601,0.592,1.343,0.592,2.369S71.853,162.344,71.251,162.944z M70.392,158.908    c-0.166-0.192-0.425-0.317-0.742-0.317c-0.318,0-0.584,0.125-0.75,0.317c-0.225,0.25-0.284,0.526-0.284,1.668    c0,1.143,0.059,1.418,0.284,1.668c0.166,0.192,0.433,0.317,0.75,0.317c0.317,0,0.576-0.125,0.742-0.317    c0.227-0.25,0.292-0.525,0.292-1.668C70.684,159.434,70.618,159.157,70.392,158.908z"
   id="path229" />
		<path
   fill="#1D1D1B"
   d="M76.185,163.545l-1.159-2.369H74.19v2.369h-1.16v-5.939h2.328c1.209,0,1.927,0.826,1.927,1.818    c0,0.834-0.51,1.352-1.084,1.56l1.326,2.562H76.185z M75.283,158.641H74.19v1.568h1.093c0.508,0,0.843-0.325,0.843-0.785    C76.126,158.966,75.792,158.641,75.283,158.641z"
   id="path231" />
		<path
   fill="#1D1D1B"
   d="M78.489,163.545v-5.939h1.159v5.939H78.489z"
   id="path233" />
		<path
   fill="#1D1D1B"
   d="M83.304,158.641v4.905h-1.159v-4.905h-1.553v-1.035h4.263v1.035H83.304z"
   id="path235" />
		<path
   fill="#1D1D1B"
   d="M88.971,163.545v-2.486h-2.012v2.486H85.8v-5.939h1.159v2.428h2.012v-2.428h1.159v5.939H88.971z"
   id="path237" />
		<path
   fill="#1D1D1B"
   d="M95.737,163.545v-3.462l-1.134,2.252h-0.784l-1.143-2.252v3.462h-1.159v-5.939h1.143l1.551,3.212    l1.544-3.212h1.142v5.939H95.737z"
   id="path239" />
	</g>
	<path
   fill="none"
   stroke="#AF2053"
   stroke-width="0.7087"
   stroke-linecap="round"
   stroke-miterlimit="10"
   d="M14.32,231.616   c-2.284-2.388-3.686-5.626-3.686-9.191c0-7.346,5.954-13.301,13.301-13.301c7.346,0,13.301,5.955,13.301,13.301   c0,3.563-1.399,6.8-3.682,9.188"
   id="path243" />
	<path
   fill="none"
   stroke="#287C7D"
   stroke-width="0.7087"
   stroke-linecap="round"
   stroke-miterlimit="10"
   d="M52.813,231.616   c-2.284-2.388-3.686-5.626-3.686-9.191c0-7.346,5.954-13.301,13.301-13.301c7.345,0,13.301,5.955,13.301,13.301   c0,3.563-1.4,6.8-3.682,9.188"
   id="path245" />
	<path
   fill="#D83559"
   d="M14.32,231.616c0,0-0.164-0.18-0.471-0.516c-0.319-0.324-0.728-0.854-1.216-1.553   c-0.453-0.719-0.996-1.615-1.391-2.744c-0.417-1.117-0.754-2.443-0.817-3.925c-0.079-1.469,0.062-3.093,0.562-4.739   c0.494-1.636,1.345-3.274,2.548-4.723c1.199-1.449,2.75-2.702,4.54-3.589c1.786-0.888,3.811-1.396,5.857-1.444   c0.562,0.019,0.983,0.017,1.499,0.049c0.517,0.073,1.055,0.112,1.558,0.223c1.001,0.212,1.991,0.501,2.917,0.923   c1.865,0.817,3.521,2.031,4.834,3.48c1.318,1.444,2.291,3.121,2.893,4.826c0.607,1.718,0.839,3.415,0.827,5.043   c-0.018,0.375,0.002,0.693-0.047,1.093c-0.049,0.396-0.097,0.782-0.144,1.159c-0.155,0.717-0.273,1.397-0.5,2.011   c-0.375,1.251-0.922,2.26-1.387,3.073c-0.499,0.794-0.927,1.399-1.263,1.776c-0.324,0.387-0.497,0.593-0.497,0.593   c-0.524,0.628-1.457,0.709-2.083,0.186c-0.625-0.525-0.709-1.457-0.185-2.084c0.012-0.015,0.025-0.029,0.039-0.045l0.092-0.1   c0,0,0.146-0.159,0.418-0.457c0.288-0.287,0.65-0.76,1.087-1.379c0.401-0.641,0.892-1.433,1.242-2.438   c0.214-0.486,0.329-1.049,0.488-1.615c0.05-0.279,0.101-0.566,0.154-0.86c0.059-0.289,0.06-0.687,0.095-1.035   c0.069-1.275-0.05-2.755-0.491-4.205c-0.437-1.459-1.192-2.922-2.264-4.218c-1.069-1.296-2.452-2.421-4.049-3.216   c-0.792-0.409-1.649-0.7-2.526-0.933c-0.435-0.118-0.866-0.165-1.303-0.257c-0.448-0.053-0.999-0.077-1.404-0.114   c-1.835-0.045-3.681,0.324-5.349,1.058c-1.671,0.728-3.159,1.813-4.341,3.109c-1.186,1.296-2.062,2.797-2.604,4.325   c-0.547,1.524-0.757,3.075-0.752,4.51c-0.008,1.432,0.258,2.738,0.613,3.849c0.333,1.125,0.826,2.031,1.24,2.765   c0.449,0.714,0.831,1.262,1.135,1.602C14.165,231.429,14.32,231.616,14.32,231.616z"
   id="path247" />
	<path
   fill="#0094A0"
   d="M52.783,231.616c0,0-0.164-0.18-0.471-0.516c-0.319-0.324-0.729-0.854-1.216-1.553   c-0.454-0.719-0.997-1.615-1.391-2.744c-0.417-1.117-0.754-2.443-0.817-3.925c-0.078-1.469,0.062-3.093,0.562-4.739   c0.494-1.636,1.345-3.274,2.548-4.723c1.199-1.449,2.75-2.702,4.54-3.589c1.786-0.888,3.81-1.396,5.857-1.444   c0.562,0.019,0.983,0.017,1.499,0.049c0.517,0.073,1.054,0.112,1.558,0.223c1.001,0.212,1.991,0.501,2.918,0.923   c1.864,0.817,3.521,2.031,4.834,3.48c1.318,1.444,2.292,3.121,2.893,4.826c0.607,1.718,0.84,3.415,0.827,5.043   c-0.018,0.375,0.003,0.693-0.047,1.093c-0.049,0.396-0.097,0.782-0.144,1.159c-0.154,0.717-0.272,1.397-0.5,2.011   c-0.375,1.251-0.922,2.26-1.386,3.073c-0.5,0.794-0.927,1.399-1.264,1.776c-0.324,0.387-0.497,0.593-0.497,0.593   c-0.523,0.628-1.457,0.709-2.083,0.186c-0.625-0.525-0.709-1.457-0.184-2.084c0.012-0.015,0.025-0.029,0.039-0.045l0.092-0.1   c0,0,0.146-0.159,0.417-0.457c0.289-0.287,0.65-0.76,1.087-1.379c0.402-0.641,0.892-1.433,1.242-2.438   c0.214-0.486,0.329-1.049,0.488-1.615c0.05-0.279,0.101-0.566,0.154-0.86c0.059-0.289,0.06-0.687,0.095-1.035   c0.069-1.275-0.05-2.755-0.491-4.205c-0.437-1.459-1.192-2.922-2.264-4.218c-1.069-1.296-2.453-2.421-4.049-3.216   c-0.792-0.409-1.649-0.7-2.527-0.933c-0.435-0.118-0.866-0.165-1.303-0.257c-0.448-0.053-1-0.077-1.404-0.114   c-1.835-0.045-3.681,0.324-5.349,1.058c-1.671,0.728-3.159,1.813-4.341,3.109c-1.186,1.296-2.062,2.797-2.604,4.325   c-0.547,1.524-0.757,3.075-0.751,4.51c-0.008,1.432,0.257,2.738,0.613,3.849c0.333,1.125,0.826,2.031,1.24,2.765   c0.449,0.714,0.83,1.262,1.135,1.602C52.628,231.429,52.783,231.616,52.783,231.616z"
   id="path249" />
	<path
   fill="#D83559"
   d="M32.983,257.772H9.068c-1.627,0-2.958,1.331-2.958,2.957v5.915c0,1.628,1.331,2.958,2.958,2.958h23.915   c1.627,0,2.958-1.33,2.958-2.958v-5.915C35.94,259.104,34.61,257.772,32.983,257.772z M13.299,266.898H9.446v-5.939h1.159v4.906   h2.694V266.898z M18.157,261.994h-2.753v1.394h2.344v1.033h-2.344v1.444h2.753v1.033h-3.912v-5.939h3.912V261.994z M21.454,266.898   h-0.867l-1.96-5.939h1.201l1.193,3.872l1.193-3.872h1.209L21.454,266.898z M28.055,261.994h-2.752v1.394h2.343v1.033h-2.343v1.444   h2.752v1.033h-3.912v-5.939h3.912V261.994z M33.045,266.898h-3.853v-5.939h1.159v4.906h2.694V266.898z"
   id="path251" />
	<path
   fill="#0094A0"
   d="M68.736,257.772H44.821c-1.627,0-2.958,1.331-2.958,2.957v5.915c0,1.628,1.331,2.958,2.958,2.958h23.915   c1.627,0,2.958-1.33,2.958-2.958v-5.915C71.694,259.104,70.363,257.772,68.736,257.772z M49.052,266.898h-3.854v-5.939h1.16v4.906   h2.694V266.898z M53.91,261.994h-2.753v1.394H53.5v1.033h-2.343v1.444h2.753v1.033h-3.912v-5.939h3.912V261.994z M57.207,266.898   h-0.868l-1.96-5.939h1.202l1.192,3.872l1.193-3.872h1.209L57.207,266.898z M63.808,261.994h-2.753v1.394h2.344v1.033h-2.344v1.444   h2.753v1.033h-3.912v-5.939h3.912V261.994z M68.798,266.898h-3.854v-5.939h1.159v4.906h2.695V266.898z"
   id="path253" />
	<g
   id="g267">
		<path
   fill="#1D1D1B"
   d="M116.072,261.98v4.904h-1.159v-4.904h-1.551v-1.035h4.263v1.035H116.072z"
   id="path255" />
		<path
   fill="#1D1D1B"
   d="M118.569,266.885v-5.939h1.159v5.939H118.569z"
   id="path257" />
		<path
   fill="#1D1D1B"
   d="M125.335,266.885v-3.462l-1.134,2.253h-0.784l-1.143-2.253v3.462h-1.159v-5.939h1.142l1.552,3.213    l1.544-3.213h1.142v5.939H125.335z"
   id="path259" />
		<path
   fill="#1D1D1B"
   d="M130.368,266.885h-2.485v-5.939h2.385c1.16,0,1.836,0.651,1.836,1.668c0,0.661-0.434,1.084-0.733,1.228    c0.358,0.167,0.817,0.542,0.817,1.334C132.188,266.283,131.428,266.885,130.368,266.885z M130.176,261.98h-1.134v1.367h1.134    c0.493,0,0.769-0.275,0.769-0.683C130.944,262.255,130.669,261.98,130.176,261.98z M130.251,264.391h-1.209v1.461h1.209    c0.526,0,0.776-0.334,0.776-0.735C131.027,264.717,130.777,264.391,130.251,264.391z"
   id="path261" />
		<path
   fill="#1D1D1B"
   d="M136.527,266.885l-1.159-2.368h-0.834v2.368h-1.159v-5.939h2.327c1.209,0,1.927,0.827,1.927,1.819    c0,0.833-0.509,1.351-1.084,1.559l1.325,2.562H136.527z M135.627,261.98h-1.093v1.568h1.093c0.509,0,0.842-0.326,0.842-0.784    C136.469,262.306,136.136,261.98,135.627,261.98z"
   id="path263" />
		<path
   fill="#1D1D1B"
   d="M138.833,266.885v-5.939h3.912v1.035h-2.753v1.394h2.344v1.033h-2.344v1.444h2.753v1.033H138.833z"
   id="path265" />
	</g>
	<rect
   x="6.479"
   y="244.643"
   fill="#C6C6C5"
   width="136.679"
   height="2.088"
   id="rect269" />
	<g
   id="g279">
		<path
   fill="#1D1D1B"
   d="M86.367,266.898l-0.351-1.051h-2.109l-0.358,1.051h-1.211l2.161-5.939h0.909l2.168,5.939H86.367z     M84.982,262.712l-0.75,2.159h1.476L84.982,262.712z"
   id="path271" />
		<path
   fill="#1D1D1B"
   d="M88.314,266.898v-5.939h1.159v4.906h2.693v1.033H88.314z"
   id="path273" />
		<path
   fill="#1D1D1B"
   d="M96.559,266.273c-0.46,0.467-1.011,0.677-1.678,0.677c-0.633,0-1.167-0.219-1.601-0.652    c-0.259-0.257-0.418-0.559-0.484-0.893c-0.066-0.332-0.101-0.825-0.101-1.476c0-0.649,0.034-1.143,0.101-1.477    c0.066-0.343,0.226-0.634,0.484-0.893c0.434-0.435,0.968-0.65,1.601-0.65c1.352,0,2.077,0.868,2.235,1.901h-1.167    c-0.143-0.574-0.493-0.866-1.068-0.866c-0.31,0-0.559,0.108-0.742,0.316c-0.217,0.274-0.284,0.492-0.284,1.668    c0,1.168,0.051,1.402,0.284,1.678c0.175,0.207,0.425,0.308,0.742,0.308c0.343,0,0.618-0.108,0.825-0.335    c0.176-0.199,0.268-0.466,0.268-0.79v-0.227h-1.093v-0.968h2.244v0.868C97.125,265.332,96.966,265.839,96.559,266.273z"
   id="path275" />
		<path
   fill="#1D1D1B"
   d="M101.807,266.298c-0.417,0.418-0.926,0.652-1.602,0.652s-1.192-0.234-1.609-0.652    c-0.601-0.6-0.585-1.343-0.585-2.368c0-1.026-0.016-1.769,0.585-2.369c0.417-0.416,0.934-0.65,1.609-0.65s1.185,0.234,1.602,0.65    c0.602,0.601,0.592,1.343,0.592,2.369C102.398,264.955,102.408,265.698,101.807,266.298z M100.947,262.262    c-0.166-0.192-0.425-0.316-0.742-0.316s-0.584,0.124-0.75,0.316c-0.226,0.25-0.285,0.525-0.285,1.668    c0,1.144,0.06,1.419,0.285,1.669c0.166,0.191,0.433,0.316,0.75,0.316s0.576-0.125,0.742-0.316c0.226-0.25,0.292-0.525,0.292-1.669    C101.239,262.787,101.173,262.512,100.947,262.262z"
   id="path277" />
	</g>
	<g
   id="g285">
		<polygon
   fill="#D83559"
   points="21.175,306.951 20.953,306.917 20.778,306.917 20.43,306.917 20.312,306.951 20.265,307.024     20.265,307.685 20.297,307.771 20.405,307.817 20.753,307.817 20.953,307.817 21.206,307.817 21.257,307.795 21.257,307.735     21.257,307.024 21.212,306.988   "
   id="polygon281" />
		<path
   fill="#D83559"
   d="M21.024,304.183c-2.879,0-5.214,2.335-5.214,5.216s2.335,5.216,5.214,5.216    c2.881,0,5.216-2.335,5.216-5.216S23.906,304.183,21.024,304.183z M22.221,312.33h-0.964v-3.861h-0.518    c-0.204,0-0.391-0.021-0.568-0.071c-0.171-0.042-0.334-0.124-0.489-0.233c-0.152-0.11-0.261-0.232-0.334-0.367    c-0.069-0.133-0.11-0.273-0.11-0.418c0-0.13,0.041-0.259,0.11-0.383c0.073-0.129,0.175-0.244,0.32-0.351    c0.139-0.105,0.295-0.188,0.479-0.24c0.102-0.024,0.202-0.045,0.283-0.058c0.096-0.018,0.198-0.021,0.31-0.021    c0.139,0,0.238,0.002,0.297,0.01c0.063,0.008,0.169,0.034,0.32,0.081c0.153,0.045,0.295,0.114,0.43,0.212    c0.139,0.094,0.25,0.206,0.322,0.337c0.076,0.13,0.112,0.267,0.112,0.411V312.33z"
   id="path283" />
	</g>
	<path
   fill="#0094A0"
   d="M56.779,304.183c-2.881,0-5.216,2.335-5.216,5.216s2.335,5.216,5.216,5.216s5.216-2.335,5.216-5.216   S59.66,304.183,56.779,304.183z M58.374,309.41c0,0.146-0.047,0.283-0.136,0.422c-0.092,0.114-0.226,0.219-0.396,0.306   c-0.169,0.094-0.365,0.165-0.583,0.219c-0.216,0.055-0.453,0.081-0.711,0.081l1.146,1.579l-0.711,0.477l-1.756-2.307l0.583-0.546   l0.898,0.191h0.32c0.114-0.014,0.206-0.036,0.273-0.062c0.069-0.026,0.118-0.058,0.149-0.088l0.065-0.148v-2.295   c-0.02-0.055-0.037-0.087-0.057-0.105c-0.039-0.039-0.088-0.071-0.157-0.103l-0.057-0.012l-0.055-0.024h-0.059l-0.055-0.022h-0.151   h-0.146c-0.145,0-0.249,0-0.31,0c-0.084,0-0.155,0.015-0.22,0.041c-0.069,0.028-0.118,0.062-0.157,0.102l-0.041,0.139v1.078h-0.866   v-1.07c0-0.12,0.039-0.236,0.118-0.342c0.075-0.106,0.189-0.208,0.348-0.304c0.149-0.096,0.293-0.161,0.434-0.193   c0.149-0.037,0.267-0.062,0.358-0.076c0.102-0.016,0.208-0.022,0.322-0.022c0.22,0,0.426,0.022,0.617,0.067   c0.188,0.047,0.363,0.114,0.52,0.206c0.155,0.092,0.269,0.193,0.347,0.308c0.037,0.053,0.067,0.112,0.089,0.173   c0.022,0.062,0.037,0.127,0.037,0.196V309.41z"
   id="path287" />
	<g
   id="g297">
		<polygon
   fill="#6F6F6E"
   points="122.379,310.588 123.855,310.588 123.13,308.429   "
   id="polygon289" />
		<polygon
   fill="#6F6F6E"
   points="87.054,306.914 86.816,306.876 86.616,306.876 86.24,306.876 86.103,306.914 86.053,306.992     86.053,307.722 86.091,307.813 86.206,307.864 86.591,307.864 86.809,307.864 87.091,307.864 87.142,307.838 87.142,307.774     87.142,306.99 87.092,306.951   "
   id="polygon291" />
		<path
   fill="#6F6F6E"
   d="M140.24,303.324H80.75c-1.627,0-2.958,1.331-2.958,2.957v35.547c0,1.628,1.331,2.959,2.958,2.959h59.49    c1.627,0,2.958-1.331,2.958-2.959v-35.547C143.198,304.655,141.867,303.324,140.24,303.324z M88.206,312.821h-1.064v-4.244h-0.563    c-0.225,0-0.434-0.024-0.625-0.075c-0.193-0.049-0.372-0.137-0.539-0.257c-0.166-0.122-0.29-0.257-0.369-0.403    s-0.119-0.3-0.119-0.461c0-0.141,0.04-0.283,0.119-0.42c0.079-0.138,0.195-0.267,0.351-0.385c0.154-0.116,0.332-0.206,0.531-0.265    c0.109-0.024,0.214-0.045,0.313-0.062c0.101-0.018,0.213-0.026,0.338-0.026c0.151,0,0.259,0.004,0.326,0.013    c0.066,0.008,0.184,0.038,0.351,0.09c0.167,0.049,0.325,0.126,0.476,0.231c0.149,0.104,0.267,0.229,0.351,0.371    c0.083,0.141,0.125,0.291,0.125,0.452V312.821z M92.454,312.54c-1.58,0-2.864-1.283-2.864-2.864c0-1.579,1.284-2.865,2.864-2.865    c1.581,0,2.865,1.286,2.865,2.865C95.319,311.257,94.035,312.54,92.454,312.54z M100.265,309.612c0,0.161-0.05,0.315-0.15,0.465    c-0.101,0.126-0.244,0.238-0.433,0.34c-0.188,0.1-0.4,0.18-0.638,0.238c-0.238,0.06-0.498,0.088-0.782,0.088l1.258,1.736    l-0.782,0.521l-1.929-2.533l0.639-0.601l0.989,0.214h0.351c0.126-0.019,0.226-0.041,0.301-0.071    c0.074-0.028,0.129-0.062,0.162-0.094l0.075-0.165v-2.522c-0.024-0.06-0.046-0.096-0.062-0.114    c-0.041-0.041-0.101-0.079-0.175-0.114l-0.063-0.012l-0.062-0.024h-0.063l-0.062-0.027h-0.163h-0.161c-0.159,0-0.272,0-0.339,0    c-0.093,0-0.173,0.017-0.244,0.045c-0.071,0.031-0.128,0.067-0.169,0.11l-0.05,0.155v1.182h-0.952v-1.172    c0-0.135,0.044-0.261,0.132-0.379c0.087-0.116,0.215-0.229,0.382-0.332c0.167-0.106,0.327-0.178,0.481-0.214    c0.155-0.039,0.287-0.065,0.395-0.082c0.109-0.018,0.226-0.026,0.351-0.026c0.242,0,0.468,0.026,0.677,0.075    c0.208,0.052,0.398,0.127,0.569,0.227s0.299,0.214,0.382,0.338c0.042,0.06,0.074,0.123,0.1,0.189    c0.025,0.067,0.038,0.139,0.038,0.212V309.612z M124.515,312.615l-0.351-1.051h-2.109l-0.359,1.051h-1.21l2.161-5.939h0.909    l2.168,5.939H124.515z M130.74,310.58c0,1.262-0.968,2.087-2.187,2.087c-1.216,0-2.184-0.825-2.184-2.087v-3.904h1.159v3.863    c0,0.685,0.399,1.093,1.024,1.093c0.626,0,1.035-0.408,1.035-1.093v-3.863h1.151V310.58z M135.006,312.615l-1.151-2.067    l-1.142,2.067h-1.326l1.843-3.044l-1.727-2.896h1.317l1.034,1.92l1.043-1.92h1.31l-1.727,2.896l1.851,3.044H135.006z"
   id="path293" />
		<path
   fill="#6F6F6E"
   d="M92.454,307.846c-1.008,0-1.829,0.821-1.829,1.83c0,1.008,0.821,1.829,1.829,1.829    c1.009,0,1.83-0.821,1.83-1.829C94.284,308.667,93.463,307.846,92.454,307.846z M92.932,310.884l-0.478-0.477l-0.477,0.477    l-0.731-0.731l0.477-0.477l-0.477-0.475l0.731-0.732l0.476,0.476l0.478-0.478l0.731,0.731l-0.476,0.478l0.477,0.477    L92.932,310.884z"
   id="path295" />
	</g>
	<g
   id="g301">
		<path
   fill="#1D1D1B"
   d="M23.999,180.849c-0.289,0-0.521-0.233-0.521-0.521v-0.521c0-0.289,0.233-0.521,0.521-0.521    c0.288,0,0.521,0.233,0.521,0.521v0.521C24.52,180.616,24.287,180.849,23.999,180.849z M23.999,178.241    c-0.289,0-0.521-0.233-0.521-0.521v-0.522c0-0.288,0.233-0.521,0.521-0.521c0.288,0,0.521,0.233,0.521,0.521v0.522    C24.52,178.007,24.287,178.241,23.999,178.241z"
   id="path299" />
	</g>
	<path
   fill="none"
   stroke="#000000"
   stroke-linecap="round"
   stroke-miterlimit="10"
   stroke-dasharray="0.5,2"
   d="M23.963,170.797"
   id="path303" />
	
	<g
   id="g329">
		
	</g>
	
	
	
	
	
	
	
	<g
   id="g405">
		<path
   d="M46.546,18.375v-3.03c0-0.44-0.109-0.769-0.325-0.985c-0.217-0.216-0.512-0.325-0.885-0.325    c-0.36,0-0.655,0.106-0.885,0.32s-0.345,0.517-0.345,0.91v3.11h-0.72v-3.03c0-0.44-0.108-0.769-0.325-0.985    c-0.217-0.216-0.512-0.325-0.885-0.325c-0.374,0-0.672,0.11-0.895,0.33c-0.224,0.22-0.335,0.546-0.335,0.98v3.03h-0.72v-4.92h0.72    v0.54c0.173-0.2,0.378-0.35,0.615-0.45s0.495-0.15,0.775-0.15c0.34,0,0.639,0.068,0.895,0.205    c0.257,0.137,0.462,0.342,0.615,0.615c0.387-0.546,0.927-0.82,1.62-0.82c0.267,0,0.506,0.04,0.72,0.12s0.396,0.193,0.55,0.34    c0.353,0.34,0.53,0.797,0.53,1.37v3.15H46.546z"
   id="path379" />
		<path
   d="M49.466,16.105c0,0.54,0.122,0.958,0.365,1.255c0.244,0.297,0.605,0.445,1.085,0.445c0.287,0,0.525-0.045,0.715-0.135    s0.381-0.231,0.575-0.425l0.49,0.43c-0.127,0.127-0.252,0.237-0.375,0.33c-0.124,0.094-0.257,0.172-0.4,0.235    c-0.144,0.063-0.299,0.111-0.465,0.145c-0.167,0.034-0.354,0.05-0.56,0.05c-0.327,0-0.623-0.05-0.89-0.15    c-0.267-0.1-0.494-0.253-0.68-0.46s-0.33-0.468-0.43-0.785c-0.1-0.316-0.15-0.691-0.15-1.125c0-0.807,0.18-1.428,0.54-1.865    c0.36-0.437,0.854-0.655,1.48-0.655c0.646,0,1.145,0.212,1.495,0.635c0.35,0.424,0.525,1.009,0.525,1.755v0.32H49.466z     M52.076,15.565c-0.007-0.1-0.013-0.187-0.02-0.26s-0.015-0.14-0.025-0.2c-0.01-0.06-0.025-0.118-0.045-0.175    s-0.043-0.119-0.07-0.185c-0.106-0.227-0.258-0.407-0.455-0.54c-0.197-0.133-0.429-0.2-0.695-0.2s-0.499,0.067-0.695,0.2    c-0.197,0.133-0.349,0.313-0.455,0.54c-0.033,0.066-0.059,0.128-0.075,0.185s-0.03,0.115-0.04,0.175    c-0.01,0.06-0.017,0.127-0.02,0.2c-0.004,0.073-0.009,0.16-0.015,0.26H52.076z"
   id="path381" />
		<path
   d="M55.695,18.375c-0.213,0-0.398-0.035-0.555-0.105c-0.157-0.07-0.287-0.165-0.39-0.285c-0.104-0.12-0.182-0.26-0.235-0.42    c-0.054-0.16-0.08-0.33-0.08-0.51v-3.05h-0.62v-0.55h0.62v-1.51h0.72v1.51h1.05v0.55h-1.05v3.03c0,0.227,0.053,0.403,0.16,0.53    c0.106,0.127,0.277,0.19,0.51,0.19h0.38v0.62H55.695z"
   id="path383" />
		<path
   d="M60.425,18.375v-0.47c-0.193,0.194-0.396,0.33-0.61,0.41s-0.483,0.12-0.81,0.12c-0.34,0-0.613-0.034-0.82-0.1    c-0.207-0.066-0.397-0.183-0.57-0.35c-0.126-0.12-0.22-0.268-0.28-0.445s-0.09-0.362-0.09-0.555c0-0.44,0.147-0.787,0.44-1.04    c0.293-0.253,0.716-0.38,1.27-0.38h1.47v-0.47c0-0.36-0.095-0.63-0.285-0.81c-0.19-0.18-0.515-0.27-0.975-0.27    c-0.313,0-0.56,0.043-0.74,0.13c-0.18,0.087-0.347,0.233-0.5,0.44l-0.49-0.45c0.213-0.286,0.455-0.481,0.725-0.585    c0.27-0.103,0.608-0.155,1.015-0.155c0.667,0,1.162,0.14,1.485,0.42c0.323,0.28,0.485,0.687,0.485,1.22v3.34H60.425z     M60.425,16.105h-1.37c-0.74,0-1.11,0.29-1.11,0.87c0,0.287,0.09,0.499,0.27,0.635c0.18,0.137,0.47,0.205,0.87,0.205    c0.207,0,0.4-0.018,0.58-0.055c0.18-0.036,0.35-0.128,0.51-0.275c0.167-0.16,0.25-0.443,0.25-0.85V16.105z"
   id="path385" />
		<path
   d="M71.705,18.375v-3.03c0-0.44-0.108-0.769-0.325-0.985c-0.216-0.216-0.512-0.325-0.885-0.325    c-0.359,0-0.654,0.106-0.885,0.32s-0.345,0.517-0.345,0.91v3.11h-0.721v-3.03c0-0.44-0.108-0.769-0.324-0.985    c-0.217-0.216-0.512-0.325-0.886-0.325c-0.373,0-0.671,0.11-0.895,0.33c-0.224,0.22-0.335,0.546-0.335,0.98v3.03h-0.72v-4.92h0.72    v0.54c0.173-0.2,0.378-0.35,0.615-0.45c0.236-0.1,0.495-0.15,0.774-0.15c0.34,0,0.639,0.068,0.896,0.205    c0.256,0.137,0.461,0.342,0.614,0.615c0.387-0.546,0.927-0.82,1.62-0.82c0.267,0,0.507,0.04,0.721,0.12    c0.213,0.08,0.396,0.193,0.55,0.34c0.354,0.34,0.53,0.797,0.53,1.37v3.15H71.705z"
   id="path387" />
		<path
   d="M77.936,15.916c0,0.38-0.039,0.738-0.115,1.075c-0.076,0.336-0.238,0.631-0.486,0.885c-0.172,0.173-0.375,0.31-0.609,0.41    c-0.232,0.1-0.5,0.15-0.799,0.15c-0.301,0-0.567-0.05-0.801-0.15c-0.233-0.1-0.437-0.237-0.609-0.41    c-0.127-0.126-0.229-0.265-0.306-0.415c-0.076-0.15-0.137-0.307-0.18-0.47c-0.043-0.164-0.073-0.335-0.09-0.515    c-0.017-0.18-0.025-0.367-0.025-0.56c0-0.38,0.037-0.738,0.11-1.075c0.073-0.336,0.236-0.631,0.49-0.885    c0.173-0.173,0.376-0.31,0.609-0.41s0.5-0.15,0.801-0.15c0.299,0,0.567,0.05,0.799,0.15c0.234,0.1,0.438,0.237,0.609,0.41    c0.254,0.253,0.418,0.548,0.49,0.885C77.898,15.177,77.936,15.536,77.936,15.916z M77.215,15.916c0-0.28-0.02-0.558-0.061-0.835    c-0.039-0.277-0.148-0.505-0.33-0.685c-0.24-0.24-0.539-0.36-0.899-0.36c-0.354,0-0.65,0.12-0.891,0.36    c-0.18,0.18-0.291,0.408-0.335,0.685c-0.043,0.277-0.064,0.555-0.064,0.835c0,0.14,0.003,0.28,0.01,0.42s0.023,0.277,0.05,0.41    s0.066,0.258,0.12,0.375s0.127,0.222,0.22,0.315c0.24,0.24,0.537,0.36,0.891,0.36c0.36,0,0.659-0.12,0.899-0.36    c0.182-0.187,0.291-0.417,0.33-0.69C77.195,16.472,77.215,16.195,77.215,15.916z"
   id="path389" />
		<path
   d="M82.416,18.375v-0.59c-0.207,0.26-0.422,0.433-0.645,0.52c-0.225,0.086-0.477,0.13-0.756,0.13    c-0.254,0-0.482-0.039-0.689-0.115c-0.207-0.076-0.377-0.181-0.51-0.315c-0.248-0.253-0.408-0.565-0.486-0.935    c-0.076-0.37-0.115-0.755-0.115-1.155c0-0.2,0.01-0.398,0.025-0.595c0.018-0.196,0.047-0.385,0.09-0.565    c0.043-0.18,0.105-0.35,0.186-0.51c0.08-0.16,0.18-0.3,0.301-0.42c0.133-0.133,0.303-0.238,0.51-0.315    c0.207-0.076,0.436-0.115,0.689-0.115c0.279,0,0.529,0.042,0.75,0.125s0.434,0.251,0.641,0.505v-2.77h0.719v7.12H82.416z     M82.406,15.916c0-0.24-0.014-0.473-0.041-0.7c-0.025-0.227-0.082-0.426-0.17-0.6c-0.086-0.173-0.211-0.313-0.375-0.42    c-0.162-0.106-0.379-0.16-0.645-0.16c-0.273,0-0.49,0.053-0.65,0.16c-0.16,0.107-0.285,0.247-0.375,0.42s-0.148,0.373-0.174,0.6    c-0.027,0.227-0.041,0.46-0.041,0.7c0,0.24,0.014,0.474,0.041,0.7c0.025,0.227,0.084,0.426,0.174,0.6    c0.09,0.174,0.215,0.313,0.375,0.42c0.16,0.107,0.377,0.16,0.65,0.16c0.266,0,0.482-0.053,0.645-0.16    c0.164-0.106,0.289-0.246,0.375-0.42c0.088-0.173,0.145-0.373,0.17-0.6C82.393,16.389,82.406,16.155,82.406,15.916z"
   id="path391" />
		<path
   d="M88.035,18.375v-0.55c-0.174,0.2-0.379,0.352-0.615,0.455c-0.236,0.104-0.494,0.155-0.775,0.155    c-0.539,0-0.963-0.153-1.27-0.46c-0.174-0.173-0.301-0.375-0.381-0.605s-0.119-0.488-0.119-0.775v-3.14h0.721v3.03    c0,0.44,0.105,0.769,0.318,0.985c0.215,0.216,0.508,0.325,0.881,0.325s0.672-0.11,0.895-0.33c0.225-0.22,0.336-0.546,0.336-0.98    v-3.03h0.719v4.92H88.035z"
   id="path393" />
		<path
   d="M91.775,18.375c-0.434,0-0.75-0.125-0.951-0.375c-0.199-0.25-0.299-0.562-0.299-0.935v-5.81h0.719v5.78    c0,0.24,0.047,0.42,0.141,0.54c0.094,0.12,0.268,0.18,0.52,0.18h0.391v0.62H91.775z"
   id="path395" />
		<path
   d="M96.275,18.375v-0.47c-0.193,0.194-0.396,0.33-0.609,0.41c-0.215,0.08-0.484,0.12-0.811,0.12    c-0.34,0-0.613-0.034-0.82-0.1s-0.396-0.183-0.57-0.35c-0.127-0.12-0.219-0.268-0.279-0.445s-0.09-0.362-0.09-0.555    c0-0.44,0.146-0.787,0.439-1.04c0.293-0.253,0.717-0.38,1.27-0.38h1.471v-0.47c0-0.36-0.096-0.63-0.285-0.81    c-0.189-0.18-0.516-0.27-0.975-0.27c-0.314,0-0.561,0.043-0.74,0.13c-0.18,0.087-0.346,0.233-0.5,0.44l-0.49-0.45    c0.213-0.286,0.455-0.481,0.725-0.585c0.271-0.103,0.609-0.155,1.016-0.155c0.666,0,1.162,0.14,1.484,0.42    c0.324,0.28,0.486,0.687,0.486,1.22v3.34H96.275z M96.275,16.105h-1.369c-0.74,0-1.111,0.29-1.111,0.87    c0,0.287,0.09,0.499,0.271,0.635c0.18,0.137,0.469,0.205,0.869,0.205c0.207,0,0.4-0.018,0.58-0.055    c0.18-0.036,0.35-0.128,0.51-0.275c0.166-0.16,0.25-0.443,0.25-0.85V16.105z"
   id="path397" />
		<path
   d="M100.125,18.375c-0.213,0-0.398-0.035-0.555-0.105s-0.287-0.165-0.391-0.285c-0.104-0.12-0.182-0.26-0.234-0.42    s-0.08-0.33-0.08-0.51v-3.05h-0.619v-0.55h0.619v-1.51h0.721v1.51h1.049v0.55h-1.049v3.03c0,0.227,0.053,0.403,0.16,0.53    c0.105,0.127,0.275,0.19,0.51,0.19h0.379v0.62H100.125z"
   id="path399" />
		<path
   d="M105.824,15.916c0,0.38-0.039,0.738-0.115,1.075c-0.076,0.336-0.238,0.631-0.484,0.885    c-0.174,0.173-0.377,0.31-0.609,0.41c-0.234,0.1-0.5,0.15-0.801,0.15s-0.566-0.05-0.801-0.15c-0.232-0.1-0.436-0.237-0.609-0.41    c-0.127-0.126-0.229-0.265-0.305-0.415s-0.137-0.307-0.18-0.47c-0.043-0.164-0.074-0.335-0.09-0.515    c-0.018-0.18-0.025-0.367-0.025-0.56c0-0.38,0.037-0.738,0.109-1.075c0.074-0.336,0.236-0.631,0.49-0.885    c0.174-0.173,0.377-0.31,0.609-0.41c0.234-0.1,0.5-0.15,0.801-0.15s0.566,0.05,0.801,0.15c0.232,0.1,0.436,0.237,0.609,0.41    c0.254,0.253,0.416,0.548,0.49,0.885C105.787,15.177,105.824,15.536,105.824,15.916z M105.105,15.916    c0-0.28-0.021-0.558-0.061-0.835c-0.041-0.277-0.15-0.505-0.33-0.685c-0.24-0.24-0.541-0.36-0.9-0.36    c-0.354,0-0.65,0.12-0.891,0.36c-0.18,0.18-0.291,0.408-0.334,0.685s-0.064,0.555-0.064,0.835c0,0.14,0.002,0.28,0.01,0.42    c0.006,0.14,0.023,0.277,0.049,0.41c0.027,0.133,0.066,0.258,0.121,0.375c0.053,0.117,0.127,0.222,0.219,0.315    c0.24,0.24,0.537,0.36,0.891,0.36c0.359,0,0.66-0.12,0.9-0.36c0.18-0.187,0.289-0.417,0.33-0.69    C105.084,16.472,105.105,16.195,105.105,15.916z"
   id="path401" />
		<path
   d="M110.115,14.396c-0.135-0.133-0.262-0.227-0.381-0.28c-0.119-0.054-0.277-0.08-0.471-0.08c-0.18,0-0.342,0.033-0.49,0.1    c-0.146,0.067-0.27,0.16-0.369,0.28s-0.178,0.26-0.234,0.42s-0.086,0.333-0.086,0.52v3.02h-0.719v-4.92h0.719v0.6    c0.133-0.207,0.326-0.369,0.576-0.485c0.25-0.116,0.518-0.175,0.805-0.175c0.232,0,0.445,0.033,0.635,0.1    c0.189,0.066,0.371,0.187,0.545,0.36L110.115,14.396z"
   id="path403" />
	</g>
<rect
   style="fill:#e6e6e6;fill-opacity:1;stroke:#e6e6e6;stroke-opacity:1"
   id="rect476"
   width="73.530128"
   height="9.7798691"
   x="39.119476"
   y="10.719371"
   ry="0.50082898" /><g
   aria-label="Tapeworm"
   style="font-style:normal;font-variant:normal;font-weight:normal;font-stretch:normal;font-size:18.66666603px;line-height:1.25;font-family:'Segoe Print';-inkscape-font-specification:'Segoe Print';letter-spacing:0px;word-spacing:0px;fill:#1a1a1a;fill-opacity:1;stroke:none"
   id="text480"
   transform="matrix(1,0,0,1.4044357,-1.303728,15.65612)"><path
     d="m 24.089824,5.6126242 q -0.10026,-0.1822916 -0.10026,-0.4557291 0,-0.4101563 0.291666,-0.5559896 0.300782,-0.1458333 1.777344,-0.1640625 1.813802,-0.00911 3.253906,-0.1276041 1.449219,-0.1276042 4.457031,-0.5377604 1.139323,-0.154948 2.169271,-0.154948 0.519531,0 0.984375,0.063802 0.473958,0.063802 0.665364,0.1276042 0.200521,0.054687 0.319011,0.328125 0.118489,0.2643229 0.118489,0.4101562 0,0.6471354 -0.455729,0.6471354 -0.300781,0 -0.820312,-0.054687 -0.528646,-0.045573 -1.43099,-0.045573 -0.929687,0 -2.260416,0.1367187 -1.321615,0.1276042 -1.467448,0.4283854 -0.145833,0.3007813 -0.483073,3.5546874 -0.328125,3.2539062 -0.328125,4.8489582 0,0.738281 0.227865,1.704427 0.03646,0.182291 0.03646,0.21875 0,0.401041 -0.21875,0.720052 -0.21875,0.328125 -0.528646,0.328125 -0.473958,0 -0.792969,-0.455729 -0.309895,-0.45573 -0.309895,-2.552084 0,-1.986979 0.75651,-7.7565095 0.03646,-0.3098958 0.03646,-0.3190104 0,-0.3098958 -0.337239,-0.3098958 -0.546875,0 -2.08724,0.1367187 -1.540364,0.1458334 -2.196614,0.1458334 -0.984375,0 -1.276042,-0.3098959 z"
     id="path482"
     inkscape:connector-curvature="0" /><path
     d="m 42.710917,13.378249 q -1.276041,1.713542 -2.524739,2.570312 -1.248698,0.856771 -2.287761,0.856771 -0.701823,0 -1.212239,-0.592448 -0.510417,-0.592448 -0.510417,-1.522135 0,-2.397135 2.141927,-5.1588541 2.141927,-2.7708332 4.25651,-2.7708332 0.765625,0 1.139323,0.875 0.11849,0.2916666 0.373698,0.2916666 0.729167,0 0.729167,0.5651042 0,0.282552 -0.09115,0.7747395 -0.492187,2.688802 -0.492187,3.791667 0,2.205729 0.838541,2.643229 0.401042,0.21875 0.401042,0.53776 0,0.282552 -0.391927,0.565104 -0.391927,0.291667 -0.756511,0.291667 -0.701822,0 -1.157552,-0.966146 -0.455729,-0.966146 -0.455729,-2.752604 z M 42.154928,8.2467387 q -1.203125,0 -2.798177,2.2604163 -1.595052,2.251302 -1.595052,3.736979 0,1.048177 0.692708,1.048177 1.002604,0 2.779948,-2.023437 1.777343,-2.023437 1.777343,-3.7187499 0,-1.3033854 -0.85677,-1.3033854 z"
     id="path484"
     inkscape:connector-curvature="0" /><path
     d="m 49.300761,15.638666 q -0.446615,1.640624 -0.838542,4.602864 l -0.255208,1.722656 q -0.0638,0.364583 -0.33724,0.720052 -0.273437,0.364584 -0.501302,0.364584 -0.282552,0 -0.647135,-0.291667 -0.355469,-0.282552 -0.355469,-0.455729 0,-0.501302 0.227865,-1.385417 1.667968,-6.735677 1.667968,-11.8307286 l -0.0091,-0.765625 q -0.01823,-0.984375 0.346354,-1.4309895 0.364583,-0.4466146 0.838542,-0.4466146 0.21875,0 0.41927,0.3463541 0.200521,0.3372396 0.200521,0.9661458 0,0.8841146 -0.182291,2.141927 -0.23698,1.5859378 -0.246094,1.8229168 1.358073,-2.3697917 2.880208,-3.7005209 1.522135,-1.3307291 2.825521,-1.3307291 0.920573,0 1.549479,0.6927083 0.638021,0.6835938 0.638021,1.7044271 0,2.9713536 -2.278646,5.3958336 -2.278646,2.424479 -4.438802,2.424479 -0.53776,0 -0.856771,-0.273438 -0.30991,-0.273437 -0.647149,-0.993489 z m 5.660156,-7.3372398 q -1.285156,0 -3.18099,2.4062498 -1.895833,2.40625 -1.895833,3.746094 0,0.328125 0.373698,0.638021 0.373698,0.309895 0.947917,0.309895 1.303385,0 2.998697,-1.923177 1.695313,-1.932291 1.695313,-3.7916662 0,-0.6653645 -0.273438,-1.0208333 -0.264322,-0.3645833 -0.665364,-0.3645833 z"
     id="path486"
     inkscape:connector-curvature="0" /><path
     d="m 67.411438,13.606114 q 0,0.929687 -1.649739,2.242187 -1.640625,1.3125 -3.390625,1.3125 -1.467448,0 -2.269531,-0.865885 -0.792969,-0.865886 -0.792969,-2.415365 0,-2.606771 1.759115,-4.9583331 1.759114,-2.3515625 3.846354,-2.3515625 0.683593,0 1.111979,0.4466146 0.4375,0.4466146 0.4375,1.0755208 0,1.4036458 -1.376302,2.6888022 -1.376302,1.285156 -3.682292,2.524739 -0.473958,0.246094 -0.473958,0.638021 0,0.756511 0.4375,1.21224 0.4375,0.455729 1.294271,0.455729 1.959635,0 4.001302,-2.169271 0.300781,-0.300781 0.455729,-0.300781 0.291666,0 0.291666,0.464844 z m -6.334635,-1.421875 q 3.864583,-2.2968753 3.864583,-3.6914065 0,-0.546875 -0.492187,-0.546875 -0.838542,0 -1.895833,1.2304687 -1.048177,1.2304688 -1.476563,3.0078128 z"
     id="path488"
     inkscape:connector-curvature="0" /><path
     d="m 76.526019,10.662103 q -0.255208,0.0091 -1.230469,2.123698 -0.802083,1.740885 -1.640625,3.108073 -0.838541,1.358073 -1.230468,1.358073 -1.130209,0 -2.096354,-3.354167 -0.957032,-3.363281 -0.957032,-5.4140621 0,-0.6653646 0.328125,-1.1028646 0.33724,-0.4375 0.792969,-0.4739583 0.0638,-0.00911 0.227865,0.00911 0.164062,0.00911 0.401041,0.3007812 0.23698,0.2825521 0.23698,0.5559896 v 0.036458 q 0,0.109375 -0.100261,0.9114583 -0.08203,0.5924479 -0.08203,1.4492189 0,1.358073 0.519531,2.998698 0.519531,1.640624 0.875,1.640624 0.255208,0 1.686198,-2.770833 0.902344,-1.759114 1.294271,-2.4244787 l 0.291666,-0.546875 q 0.628907,-1.203125 1.194011,-1.6588541 0.783854,0.1002604 0.783854,0.7838541 0,0.2278646 -0.03646,0.3828125 -0.03646,0.1549479 -0.03646,0.3828125 0,1.6861977 0.875,3.5364577 0.875,1.841146 1.248698,1.841146 0.273438,0 0.865885,-1.932291 0.802084,-2.6250002 1.476563,-3.9375002 0.683594,-1.3124999 1.002604,-1.5585937 0.31901,-0.2460937 0.720052,-0.2460937 0.227865,0 0.382813,0.2005208 0.164062,0.1914062 0.164062,0.4192708 0,0.3372396 -0.10026,0.4648438 -1.130209,1.485677 -2.169271,4.6393222 -0.884115,2.707032 -1.21224,3.39974 -0.328125,0.692708 -0.546875,0.692708 -1.102864,0 -1.804687,-0.802083 -0.701823,-0.811198 -1.859375,-4.292969 -0.136719,-0.410156 -0.264323,-0.720052 z"
     id="path490"
     inkscape:connector-curvature="0" /><path
     d="m 88.411435,17.151686 q -1.248698,0 -2.059896,-0.947916 -0.811198,-0.947917 -0.811198,-2.342448 0,-2.351563 1.576823,-4.6302083 1.585937,-2.2877604 3.791666,-2.2877604 1.458334,0 2.360677,1.1210938 0.911459,1.1210937 0.911459,2.6705729 0,2.369791 -1.877604,4.393229 -1.86849,2.023437 -3.891927,2.023437 z m -1.266927,-3.527343 q 0,0.920573 0.382812,1.503906 0.391927,0.583333 1.029948,0.583333 1.358073,0 2.72526,-1.485677 1.367188,-1.494791 1.367188,-3.317708 0,-1.1210937 -0.528646,-1.8138021 -0.519531,-0.7018229 -1.403646,-0.7018229 -1.467448,0 -2.524739,1.804687 -1.048177,1.795573 -1.048177,3.427084 z"
     id="path492"
     inkscape:connector-curvature="0" /><path
     d="m 98.16404,13.077468 q 0.09115,-0.164063 0.21875,-0.455729 0.619792,-1.421875 1.139323,-2.223959 0.519527,-0.8111976 1.139327,-1.5494788 0.6289,-0.7382812 1.13932,-1.1210937 0.51953,-0.3828125 0.9388,-0.5286458 0.41927,-0.1549479 0.8112,-0.1549479 0.79297,0 1.29427,0.4830729 0.5013,0.4739583 0.5013,1.1119791 0,0.2825521 -0.18229,0.5104166 -0.17318,0.2278646 -0.53776,0.2278646 -0.38281,0 -0.70182,-0.3372396 -0.32813,-0.3372395 -0.6836,-0.3372395 -0.94791,0 -2.625,2.2968751 -1.67708,2.296875 -2.041664,5.058593 -0.09114,0.710938 -0.346354,0.938802 -0.255208,0.227865 -0.720052,0.227865 -0.446614,0 -0.647135,-0.665365 -0.200521,-0.665364 -0.200521,-2.242187 0,-0.428385 0.04557,-1.886719 0.05469,-1.722656 0.21875,-2.7799475 0.02734,-0.1731771 0.09115,-0.8111979 0.0638,-0.7018229 0.154948,-0.9752604 0.10026,-0.2734375 0.391927,-0.5104166 0.300781,-0.2369792 0.647135,-0.2369792 0.33724,0 0.501302,0.21875 0.173177,0.2096354 0.173177,0.4557292 0,0.3554687 -0.182291,1.0026041 -0.209636,0.7200521 -0.246094,0.9934896 -0.02734,0.3098957 -0.100261,0.6471357 -0.09114,0.391927 -0.182291,2.059895 l -0.0091,0.33724 z"
     id="path494"
     inkscape:connector-curvature="0" /><path
     d="m 112.90232,9.486322 q -0.84766,0.018229 -3.62761,5.022135 -0.9388,1.686198 -1.09375,1.841146 -0.15494,0.145833 -0.57421,0.264323 -0.41016,0.11849 -0.6836,0.11849 -0.61067,0 -0.61067,-2.378907 0,-1.339843 0.57421,-4.8489578 0.23698,-1.421875 0.23698,-2.032552 0,-0.6015625 0.53776,-0.6015625 1.01172,0 1.01172,1.4583333 0,0.6835937 -0.33724,2.679687 -0.39192,2.278646 -0.40104,2.770834 0.56511,-0.546875 1.65886,-2.397136 1.54947,-2.5338538 2.27864,-3.2083329 0.73828,-0.6835938 1.52214,-0.6835938 0.59244,0 0.9388,0.7929688 0.35547,0.7929687 0.42838,3.7825519 0.0182,0.747396 0.13672,1.111979 0.11849,0.364583 0.17318,0.364583 0.42838,0 1.85937,-2.916666 0.76563,-1.5403646 1.48568,-2.3424479 0.72917,-0.8020834 1.61328,-0.8020834 0.73828,0 1.07552,0.765625 0.33724,0.7565104 0.48308,2.2513023 0.13672,1.513021 0.41927,2.770833 0.29166,1.257812 1.05729,1.613281 0.51953,0.246094 0.51953,0.574219 0,0.31901 -0.4375,0.65625 -0.4375,0.337239 -0.80208,0.337239 -0.72917,0 -1.30339,-0.893229 -0.57422,-0.893229 -0.86588,-3.864583 -0.12761,-1.19401 -0.2461,-1.6953123 -0.11849,-0.5013021 -0.3737,-0.5013021 -0.38281,0 -0.91145,0.7291664 -0.51954,0.729167 -1.6862,2.96224 -0.91146,1.740885 -1.38542,2.324218 -0.46484,0.574219 -0.90234,0.574219 -0.39193,0 -0.70183,-0.309896 -0.30989,-0.31901 -0.39192,-0.75651 -0.082,-0.446615 -0.17318,-2.178385 -0.13672,-2.8802087 -0.5013,-3.354167 z"
     id="path496"
     inkscape:connector-curvature="0" /></g></g>
<g
   id="decoupe"
   display="none">
	
		<path
   display="inline"
   fill="none"
   stroke="#E42320"
   stroke-width="0.2835"
   stroke-linecap="round"
   stroke-linejoin="round"
   stroke-miterlimit="10"
   d="   M17.414,371.108c0.07,2.6,2.19,4.719,4.805,4.719s4.733-2.119,4.733-4.733s-2.119-4.731-4.733-4.731s-4.734,2.117-4.734,4.731"
   id="path408" />
	
		<path
   display="inline"
   fill="none"
   stroke="#E42320"
   stroke-width="0.2835"
   stroke-linecap="round"
   stroke-linejoin="round"
   stroke-miterlimit="10"
   d="   M17.414,8.768c0.07,2.602,2.19,4.721,4.805,4.721s4.733-2.119,4.733-4.732c0-2.614-2.119-4.733-4.733-4.733   s-4.734,2.119-4.734,4.733"
   id="path410" />
	
		<path
   display="inline"
   fill="none"
   stroke="#E42320"
   stroke-width="0.2835"
   stroke-linecap="round"
   stroke-linejoin="round"
   stroke-miterlimit="10"
   d="   M63.519,98.695c0.107,6.105,5.074,11.071,11.203,11.071c6.128,0,11.095-4.966,11.095-11.092c0-6.126-4.967-11.092-11.095-11.092   c-6.129,0-11.096,4.966-11.096,11.092"
   id="path412" />
	
		<path
   display="inline"
   fill="none"
   stroke="#E42320"
   stroke-width="0.2835"
   stroke-linecap="round"
   stroke-linejoin="round"
   stroke-miterlimit="10"
   d="   M14.409,222.689c0.117,5.147,4.355,9.386,9.584,9.386c5.229,0,9.469-4.238,9.469-9.465c0-5.229-4.239-9.467-9.469-9.467   c-5.229,0-9.467,4.238-9.467,9.467"
   id="path414" />
	
		<path
   display="inline"
   fill="none"
   stroke="#E42320"
   stroke-width="0.2835"
   stroke-linecap="round"
   stroke-linejoin="round"
   stroke-miterlimit="10"
   d="   M52.871,222.689c0.118,5.147,4.357,9.386,9.585,9.386c5.231,0,9.47-4.238,9.47-9.465c0-5.229-4.238-9.467-9.47-9.467   c-5.228,0-9.467,4.238-9.467,9.467"
   id="path416" />
	
		<path
   display="inline"
   fill="none"
   stroke="#E42320"
   stroke-width="0.2835"
   stroke-linecap="round"
   stroke-linejoin="round"
   stroke-miterlimit="10"
   d="   M103.108,193.381c0.03,6.072,4.999,11.038,11.126,11.038c6.128,0,11.097-4.966,11.097-11.093c0-6.126-4.969-11.092-11.097-11.092   c-6.127,0-11.096,4.966-11.096,11.092"
   id="path418" />
	
		<path
   display="inline"
   fill="none"
   stroke="#E42320"
   stroke-width="0.2835"
   stroke-linecap="round"
   stroke-linejoin="round"
   stroke-miterlimit="10"
   d="   M67.153,70.389c0.024,4.056,3.4,7.433,7.568,7.433c4.166,0,7.545-3.377,7.545-7.542c0-4.166-3.379-7.542-7.545-7.542   c-4.168,0-7.544,3.377-7.544,7.542"
   id="path420" />
	
		<path
   display="inline"
   fill="none"
   stroke="#E42320"
   stroke-width="0.2835"
   stroke-linecap="round"
   stroke-linejoin="round"
   stroke-miterlimit="10"
   d="   M16.298,189.875c0.015,4.149,3.459,7.593,7.707,7.593c4.25,0,7.693-3.443,7.693-7.691c0-4.247-3.443-7.69-7.693-7.69   c-4.248,0-7.692,3.443-7.692,7.69"
   id="path422" />
	
		<path
   display="inline"
   fill="none"
   stroke="#E42320"
   stroke-width="0.2835"
   stroke-linecap="round"
   stroke-linejoin="round"
   stroke-miterlimit="10"
   d="   M19.294,170.962c0.113,2.416,2.167,4.469,4.699,4.469c2.534,0,4.587-2.053,4.587-4.585c0-2.532-2.053-4.584-4.587-4.584   c-2.533,0-4.586,2.053-4.586,4.584"
   id="path424" />
	
		<path
   display="inline"
   fill="none"
   stroke="#E42320"
   stroke-width="0.2835"
   stroke-linecap="round"
   stroke-linejoin="round"
   stroke-miterlimit="10"
   d="   M11.401,285.438c0.018,5.186,4.323,9.491,9.632,9.491c5.312,0,9.616-4.306,9.616-9.613c0-5.31-4.304-9.613-9.616-9.613   c-5.31,0-9.614,4.304-9.614,9.613"
   id="path426" />
	
		<path
   display="inline"
   fill="none"
   stroke="#E42320"
   stroke-width="0.2835"
   stroke-linecap="round"
   stroke-linejoin="round"
   stroke-miterlimit="10"
   d="   M47.106,285.438c0.113,5.186,4.417,9.491,9.729,9.491c5.31,0,9.615-4.306,9.615-9.613c0-5.31-4.305-9.613-9.615-9.613   c-5.312,0-9.616,4.304-9.616,9.613"
   id="path428" />
	
		<path
   display="inline"
   fill="none"
   stroke="#E42320"
   stroke-width="0.2835"
   stroke-linecap="round"
   stroke-linejoin="round"
   stroke-miterlimit="10"
   d="   M82.938,285.438c0.082,5.186,4.388,9.491,9.696,9.491c5.313,0,9.617-4.306,9.617-9.613c0-5.31-4.304-9.613-9.617-9.613   c-5.309,0-9.614,4.304-9.614,9.613"
   id="path430" />
	
		<path
   display="inline"
   fill="none"
   stroke="#E42320"
   stroke-width="0.2835"
   stroke-linecap="round"
   stroke-linejoin="round"
   stroke-miterlimit="10"
   d="   M118.769,285.438c0.052,5.186,4.357,9.491,9.668,9.491s9.616-4.306,9.616-9.613c0-5.31-4.306-9.613-9.616-9.613   s-9.616,4.304-9.616,9.613"
   id="path432" />
	
		<path
   display="inline"
   fill="none"
   stroke="#E42320"
   stroke-width="0.2835"
   stroke-linecap="round"
   stroke-linejoin="round"
   stroke-miterlimit="10"
   d="   M11.401,328.525c0.018,5.285,4.323,9.588,9.632,9.588c5.312,0,9.616-4.303,9.616-9.612c0-5.309-4.304-9.611-9.616-9.611   c-5.31,0-9.614,4.303-9.614,9.611"
   id="path434" />
	
		<path
   display="inline"
   fill="none"
   stroke="#E42320"
   stroke-width="0.2835"
   stroke-linecap="round"
   stroke-linejoin="round"
   stroke-miterlimit="10"
   d="   M47.106,328.525c0.113,5.285,4.417,9.588,9.729,9.588c5.31,0,9.615-4.303,9.615-9.612c0-5.309-4.305-9.611-9.615-9.611   c-5.312,0-9.616,4.303-9.616,9.611"
   id="path436" />
	<g
   display="inline"
   id="g442">
		
			<path
   fill="none"
   stroke="#E42320"
   stroke-width="0.2835"
   stroke-linecap="round"
   stroke-linejoin="round"
   stroke-miterlimit="10"
   d="    M82.938,328.525c0.082,5.285,4.388,9.588,9.696,9.588c5.313,0,9.617-4.303,9.617-9.612c0-5.309-4.304-9.611-9.617-9.611    c-5.309,0-9.614,4.303-9.614,9.611"
   id="path438" />
		
			<path
   fill="none"
   stroke="#E42320"
   stroke-width="0.2835"
   stroke-linecap="round"
   stroke-linejoin="round"
   stroke-miterlimit="10"
   d="    M118.769,328.525c0.052,5.285,4.357,9.588,9.668,9.588s9.616-4.303,9.616-9.612c0-5.309-4.306-9.611-9.616-9.611    s-9.616,4.303-9.616,9.611"
   id="path440" />
	</g>
	
		<path
   display="inline"
   fill="none"
   stroke="#E42320"
   stroke-width="0.2835"
   stroke-linecap="round"
   stroke-linejoin="round"
   stroke-miterlimit="10"
   d="   M122.653,8.768c0.043,2.602,2.164,4.721,4.777,4.721c2.615,0,4.735-2.119,4.735-4.732c0-2.614-2.12-4.733-4.735-4.733   c-2.613,0-4.734,2.119-4.734,4.733"
   id="path444" />
	
		<path
   display="inline"
   fill="none"
   stroke="#E42320"
   stroke-width="0.2835"
   stroke-linecap="round"
   stroke-linejoin="round"
   stroke-miterlimit="10"
   d="   M122.653,371.108c0.043,2.6,2.164,4.719,4.777,4.719c2.615,0,4.735-2.119,4.735-4.733s-2.12-4.731-4.735-4.731   c-2.613,0-4.734,2.117-4.734,4.731"
   id="path446" />
	
		<rect
   display="inline"
   fill="none"
   stroke="#E42320"
   stroke-width="0.2835"
   stroke-linecap="round"
   stroke-linejoin="round"
   stroke-miterlimit="10"
   width="149.635"
   height="380"
   id="rect448" />
</g>
<g
   id="widgets"
   display="none">
	
		<rect
   id="PJ301_6_"
   x="9.761"
   y="273.818"
   display="inline"
   fill="none"
   stroke="#000000"
   stroke-miterlimit="10"
   width="22.992"
   height="22.996" />
	
		<rect
   id="PJ301_1_"
   x="45.283"
   y="273.818"
   display="inline"
   fill="none"
   stroke="#000000"
   stroke-miterlimit="10"
   width="22.992"
   height="22.996" />
	
		<rect
   id="PJ301_2_"
   x="81.199"
   y="273.818"
   display="inline"
   fill="none"
   stroke="#000000"
   stroke-miterlimit="10"
   width="22.992"
   height="22.996" />
	
		<rect
   id="PJ301_3_"
   x="116.914"
   y="273.818"
   display="inline"
   fill="none"
   stroke="#000000"
   stroke-miterlimit="10"
   width="22.992"
   height="22.996" />
	
		<rect
   id="PJ301_8_"
   x="9.761"
   y="317.004"
   display="inline"
   fill="none"
   stroke="#000000"
   stroke-miterlimit="10"
   width="22.992"
   height="22.996" />
	
		<rect
   id="PJ301_7_"
   x="45.283"
   y="317.004"
   display="inline"
   fill="none"
   stroke="#000000"
   stroke-miterlimit="10"
   width="22.992"
   height="22.996" />
	
		<rect
   id="PJ301_5_"
   x="81.199"
   y="317.004"
   display="inline"
   fill="none"
   stroke="#000000"
   stroke-miterlimit="10"
   width="22.992"
   height="22.996" />
	
		<rect
   id="PJ301_4_"
   x="116.914"
   y="317.004"
   display="inline"
   fill="none"
   stroke="#000000"
   stroke-miterlimit="10"
   width="22.992"
   height="22.996" />
	
		<rect
   id="TrimPot_1_"
   x="14.938"
   y="213.449"
   display="inline"
   fill="none"
   stroke="#000000"
   stroke-miterlimit="10"
   width="17.994"
   height="17.997" />
	
		<rect
   id="TrimPot_2_"
   x="53.432"
   y="213.449"
   display="inline"
   fill="none"
   stroke="#000000"
   stroke-miterlimit="10"
   width="17.994"
   height="17.997" />
	
		<rect
   id="Rogan6"
   x="29.668"
   y="53.675"
   display="inline"
   fill="none"
   stroke="#000000"
   stroke-miterlimit="10"
   width="90"
   height="90" />
	
		<rect
   id="Rogan_5_"
   x="94.726"
   y="173.328"
   display="inline"
   fill="none"
   stroke="#000000"
   stroke-miterlimit="10"
   width="38.987"
   height="39.996" />
	
		<rect
   id="TL1105_2_"
   x="15.999"
   y="181.781"
   display="inline"
   fill="none"
   stroke="#000000"
   stroke-miterlimit="10"
   width="16"
   height="15.999" />
	
		<rect
   id="SmallLight_1_"
   x="20.499"
   y="167.347"
   display="inline"
   fill="none"
   stroke="#000000"
   stroke-miterlimit="10"
   width="7"
   height="7" />
</g>
</svg>