<?xml version="1.0" encoding="UTF-8" standalone="no"?>
<!-- Generator: Adobe Illustrator 16.0.3, SVG Export Plug-In . SVG Version: 6.00 Build 0)  -->

<svg
   xmlns:dc="http://purl.org/dc/elements/1.1/"
   xmlns:cc="http://creativecommons.org/ns#"
   xmlns:rdf="http://www.w3.org/1999/02/22-rdf-syntax-ns#"
   xmlns:svg="http://www.w3.org/2000/svg"
   xmlns="http://www.w3.org/2000/svg"
   xmlns:sodipodi="http://sodipodi.sourceforge.net/DTD/sodipodi-0.dtd"
   xmlns:inkscape="http://www.inkscape.org/namespaces/inkscape"
   version="1.1"
   x="0px"
   y="0px"
   width="150px"
   height="380px"
   viewBox="0 0 150 380"
   enable-background="new 0 0 150 380"
   xml:space="preserve"
   id="svg466"
   sodipodi:docname="Warps.svg"
   inkscape:version="0.92.4 (5da689c313, 2019-01-14)"><metadata
   id="metadata472"><rdf:RDF><cc:Work
       rdf:about=""><dc:format>image/svg+xml</dc:format><dc:type
         rdf:resource="http://purl.org/dc/dcmitype/StillImage" /></cc:Work></rdf:RDF></metadata><defs
   id="defs470" /><sodipodi:namedview
   pagecolor="#ffffff"
   bordercolor="#666666"
   borderopacity="1"
   objecttolerance="10"
   gridtolerance="10"
   guidetolerance="10"
   inkscape:pageopacity="0"
   inkscape:pageshadow="2"
   inkscape:window-width="1366"
   inkscape:window-height="715"
   id="namedview468"
   showgrid="false"
   inkscape:zoom="4.3389835"
   inkscape:cx="75"
   inkscape:cy="332.0012"
   inkscape:window-x="-8"
   inkscape:window-y="-8"
   inkscape:window-maximized="1"
   inkscape:current-layer="svg466" />
<g
   id="faceplate">
	<rect
   id="background"
   fill="#E6E6E6"
   width="150"
   height="380" />
	<g
   id="g5">
		<path
   fill="#C6C6C5"
   d="M106.008,51.563c-8.053-5.367-17.411-8.585-27.064-9.306l0.077-1.041    c9.833,0.735,19.364,4.013,27.565,9.479L106.008,51.563z"
   id="path3" />
	</g>
	<g
   id="g9">
		<path
   fill="#C6C6C5"
   d="M126.074,123.561c-0.256-0.129-0.57-0.023-0.699,0.235c-4.35,8.763-10.921,16.229-19.021,21.72    c0.224,0.268,0.413,0.561,0.575,0.869c8.255-5.592,14.949-13.198,19.381-22.126C126.438,124.002,126.332,123.689,126.074,123.561z    "
   id="path7" />
	</g>
	<g
   id="g13">
		<path
   fill="#C6C6C5"
   d="M128.968,116.901c-0.053,0-0.108-0.008-0.162-0.025c-0.272-0.089-0.423-0.384-0.334-0.658    c1.84-5.647,2.772-11.549,2.772-17.543c0-3.547-0.331-7.103-0.985-10.565c-0.055-0.283,0.132-0.556,0.415-0.609    c0.278-0.052,0.557,0.132,0.609,0.416c0.667,3.526,1.004,7.146,1.004,10.759c0,6.104-0.949,12.115-2.823,17.866    C129.392,116.762,129.188,116.901,128.968,116.901z"
   id="path11" />
	</g>
	<g
   id="g17">
		<path
   fill="#C6C6C5"
   d="M128.915,81.331c-0.22,0-0.423-0.139-0.495-0.359c-3.143-9.546-8.813-18.121-16.402-24.795    c-0.217-0.19-0.237-0.52-0.047-0.736s0.52-0.238,0.735-0.048c7.729,6.797,13.505,15.53,16.704,25.253    c0.091,0.273-0.059,0.568-0.332,0.659C129.023,81.323,128.969,81.331,128.915,81.331z"
   id="path15" />
	</g>
	<g
   id="g21">
		<path
   fill="#C6C6C5"
   d="M43.161,51.678l-0.582-0.866c8.327-5.593,18.018-8.918,28.027-9.615l0.073,1.041    C60.851,42.922,51.335,46.187,43.161,51.678z"
   id="path19" />
	</g>
	<g
   id="g25">
		<path
   fill="#C6C6C5"
   d="M21.02,80.667l-0.988-0.333c3.163-9.429,8.774-17.938,16.225-24.607l0.695,0.777    C29.634,63.054,24.126,71.409,21.02,80.667z"
   id="path23" />
	</g>
	<g
   id="g29">
		<path
   fill="#C6C6C5"
   d="M20.214,117.558c-2.101-6.059-3.166-12.412-3.166-18.883c0-3.743,0.362-7.489,1.076-11.133l1.023,0.201    c-0.7,3.579-1.055,7.256-1.055,10.932c0,6.355,1.045,12.593,3.108,18.542L20.214,117.558z"
   id="path27" />
	</g>
	<g
   id="g33">
		<path
   fill="#C6C6C5"
   d="M43.151,146.918c-8.913-5.834-16.029-13.994-20.58-23.597l0.943-0.446    c4.467,9.429,11.455,17.441,20.208,23.17L43.151,146.918z"
   id="path31" />
	</g>
	<g
   id="g39">
		<path
   fill="#D83559"
   d="M70.739,183.862H37.125c-1.627,0-2.958,1.331-2.958,2.957v5.917c0,1.626,1.331,2.956,2.958,2.956h33.614    c1.627,0,2.958-1.33,2.958-2.956v-5.917C73.697,185.192,72.366,183.862,70.739,183.862z M39.037,192.749h-1.159v-5.939h1.159    V192.749z M44.969,192.749h-1.035l-2.352-3.645v3.645h-1.159v-5.939h1.034l2.352,3.637v-3.637h1.16V192.749z M50.177,187.845    h-1.552v4.904h-1.159v-4.904h-1.552v-1.035h4.263V187.845z M52.239,192.749h-1.243v-1.234h1.243V192.749z M59.032,192.148    c-0.417,0.417-0.927,0.651-1.602,0.651c-0.676,0-1.194-0.234-1.61-0.651c-0.6-0.6-0.584-1.343-0.584-2.369    c0-1.026-0.016-1.768,0.584-2.369c0.417-0.417,0.934-0.651,1.61-0.651c0.675,0,1.184,0.234,1.602,0.651    c0.6,0.601,0.591,1.343,0.591,2.369C59.623,190.805,59.632,191.549,59.032,192.148z M62.446,192.8    c-0.901,0-1.585-0.191-2.169-0.784l0.751-0.75c0.376,0.375,0.884,0.499,1.434,0.499c0.684,0,1.052-0.259,1.052-0.733    c0-0.208-0.058-0.383-0.185-0.501c-0.116-0.108-0.25-0.167-0.525-0.208l-0.718-0.1c-0.508-0.075-0.883-0.234-1.15-0.493    c-0.284-0.283-0.425-0.667-0.425-1.167c0-1.06,0.783-1.802,2.068-1.802c0.817,0,1.41,0.201,1.918,0.693l-0.734,0.725    c-0.375-0.358-0.825-0.408-1.217-0.408c-0.618,0-0.918,0.342-0.918,0.75c0,0.15,0.051,0.309,0.175,0.425    c0.117,0.109,0.31,0.201,0.55,0.234l0.701,0.1c0.542,0.075,0.884,0.225,1.135,0.458c0.317,0.301,0.458,0.735,0.458,1.261    C64.648,192.148,63.688,192.8,62.446,192.8z M66.995,191.457c0.175,0.208,0.426,0.308,0.742,0.308c0.56,0,0.876-0.334,1.001-0.841    h1.177c-0.201,1.208-1.051,1.876-2.187,1.876c-0.633,0-1.167-0.218-1.602-0.651c-0.259-0.257-0.417-0.559-0.483-0.893    c-0.067-0.333-0.101-0.825-0.101-1.476c0-0.65,0.034-1.142,0.101-1.476c0.066-0.342,0.224-0.634,0.483-0.893    c0.434-0.434,0.968-0.651,1.602-0.651c1.143,0,1.986,0.667,2.187,1.877h-1.177c-0.125-0.509-0.442-0.842-1.001-0.842    c-0.316,0-0.566,0.1-0.742,0.309c-0.242,0.258-0.292,0.525-0.292,1.676C66.703,190.932,66.753,191.198,66.995,191.457z"
   id="path35" />
		<path
   fill="#D83559"
   d="M57.431,187.795c-0.318,0-0.584,0.124-0.751,0.317c-0.224,0.25-0.283,0.525-0.283,1.667    c0,1.144,0.059,1.418,0.283,1.669c0.167,0.191,0.434,0.315,0.751,0.315c0.316,0,0.575-0.124,0.742-0.315    c0.225-0.251,0.292-0.526,0.292-1.669c0-1.142-0.066-1.418-0.292-1.667C58.005,187.919,57.747,187.795,57.431,187.795z"
   id="path37" />
	</g>
	<g
   id="g53">
		<path
   fill="#1D1D1B"
   d="M102.142,221.797v4.905h-1.16v-4.905h-1.55v-1.035h4.262v1.035H102.142z"
   id="path41" />
		<path
   fill="#1D1D1B"
   d="M104.639,226.702v-5.94h1.159v5.94H104.639z"
   id="path43" />
		<path
   fill="#1D1D1B"
   d="M111.404,226.702v-3.462l-1.134,2.253h-0.784l-1.143-2.253v3.462h-1.159v-5.94h1.142l1.552,3.214    l1.543-3.214h1.143v5.94H111.404z"
   id="path45" />
		<path
   fill="#1D1D1B"
   d="M116.438,226.702h-2.485v-5.94h2.385c1.16,0,1.836,0.652,1.836,1.669c0,0.66-0.435,1.084-0.733,1.227    c0.358,0.167,0.816,0.542,0.816,1.335C118.256,226.101,117.497,226.702,116.438,226.702z M116.245,221.797h-1.134v1.367h1.134    c0.493,0,0.769-0.274,0.769-0.683C117.014,222.072,116.738,221.797,116.245,221.797z M116.32,224.208h-1.209v1.461h1.209    c0.526,0,0.776-0.335,0.776-0.736C117.097,224.534,116.847,224.208,116.32,224.208z"
   id="path47" />
		<path
   fill="#1D1D1B"
   d="M122.597,226.702l-1.16-2.368h-0.833v2.368h-1.159v-5.94h2.327c1.209,0,1.926,0.828,1.926,1.82    c0,0.833-0.508,1.351-1.084,1.559l1.326,2.562H122.597z M121.695,221.797h-1.092v1.569h1.092c0.51,0,0.843-0.326,0.843-0.784    C122.538,222.123,122.205,221.797,121.695,221.797z"
   id="path49" />
		<path
   fill="#1D1D1B"
   d="M124.901,226.702v-5.94h3.912v1.035h-2.752v1.395h2.344v1.032h-2.344v1.445h2.752v1.033H124.901z"
   id="path51" />
	</g>
	<rect
   x="6.479"
   y="351.541"
   fill="#C6C6C5"
   width="136.679"
   height="2.091"
   id="rect55" />
	
	<g
   id="g241">
		<path
   fill="#1D1D1B"
   d="M55.812,163.545l-0.351-1.052h-2.11l-0.358,1.052h-1.21l2.161-5.939h0.91l2.168,5.939H55.812z     M54.427,159.358l-0.75,2.16h1.476L54.427,159.358z"
   id="path223" />
		<path
   fill="#1D1D1B"
   d="M57.759,163.545v-5.939h1.16v4.905h2.693v1.034H57.759z"
   id="path225" />
		<path
   fill="#1D1D1B"
   d="M66.003,162.92c-0.459,0.466-1.011,0.675-1.677,0.675c-0.634,0-1.168-0.217-1.602-0.651    c-0.259-0.258-0.418-0.559-0.484-0.893c-0.066-0.333-0.101-0.825-0.101-1.476c0-0.65,0.035-1.142,0.101-1.477    c0.066-0.342,0.225-0.633,0.484-0.892c0.434-0.434,0.968-0.651,1.602-0.651c1.351,0,2.076,0.868,2.235,1.902h-1.167    c-0.143-0.576-0.493-0.867-1.067-0.867c-0.31,0-0.56,0.108-0.743,0.317c-0.217,0.275-0.285,0.492-0.285,1.668    c0,1.168,0.051,1.402,0.285,1.677c0.175,0.209,0.425,0.309,0.743,0.309c0.342,0,0.617-0.109,0.825-0.334    c0.175-0.2,0.267-0.467,0.267-0.792v-0.225h-1.092v-0.968h2.243v0.867C66.569,161.978,66.41,162.486,66.003,162.92z"
   id="path227" />
		<path
   fill="#1D1D1B"
   d="M71.251,162.944c-0.417,0.417-0.926,0.651-1.602,0.651c-0.676,0-1.193-0.233-1.609-0.651    c-0.601-0.6-0.585-1.343-0.585-2.369s-0.016-1.768,0.585-2.369c0.417-0.417,0.933-0.651,1.609-0.651    c0.676,0,1.184,0.234,1.602,0.651c0.601,0.601,0.592,1.343,0.592,2.369S71.853,162.344,71.251,162.944z M70.392,158.908    c-0.166-0.192-0.425-0.317-0.742-0.317c-0.318,0-0.584,0.125-0.75,0.317c-0.225,0.25-0.284,0.526-0.284,1.668    c0,1.143,0.059,1.418,0.284,1.668c0.166,0.192,0.433,0.317,0.75,0.317c0.317,0,0.576-0.125,0.742-0.317    c0.227-0.25,0.292-0.525,0.292-1.668C70.684,159.434,70.618,159.157,70.392,158.908z"
   id="path229" />
		<path
   fill="#1D1D1B"
   d="M76.185,163.545l-1.159-2.369H74.19v2.369h-1.16v-5.939h2.328c1.209,0,1.927,0.826,1.927,1.818    c0,0.834-0.51,1.352-1.084,1.56l1.326,2.562H76.185z M75.283,158.641H74.19v1.568h1.093c0.508,0,0.843-0.325,0.843-0.785    C76.126,158.966,75.792,158.641,75.283,158.641z"
   id="path231" />
		<path
   fill="#1D1D1B"
   d="M78.489,163.545v-5.939h1.159v5.939H78.489z"
   id="path233" />
		<path
   fill="#1D1D1B"
   d="M83.304,158.641v4.905h-1.159v-4.905h-1.553v-1.035h4.263v1.035H83.304z"
   id="path235" />
		<path
   fill="#1D1D1B"
   d="M88.971,163.545v-2.486h-2.012v2.486H85.8v-5.939h1.159v2.428h2.012v-2.428h1.159v5.939H88.971z"
   id="path237" />
		<path
   fill="#1D1D1B"
   d="M95.737,163.545v-3.462l-1.134,2.252h-0.784l-1.143-2.252v3.462h-1.159v-5.939h1.143l1.551,3.212    l1.544-3.212h1.142v5.939H95.737z"
   id="path239" />
	</g>
	<path
   fill="none"
   stroke="#AF2053"
   stroke-width="0.7087"
   stroke-linecap="round"
   stroke-miterlimit="10"
   d="M14.32,231.616   c-2.284-2.388-3.686-5.626-3.686-9.191c0-7.346,5.954-13.301,13.301-13.301c7.346,0,13.301,5.955,13.301,13.301   c0,3.563-1.399,6.8-3.682,9.188"
   id="path243" />
	<path
   fill="none"
   stroke="#287C7D"
   stroke-width="0.7087"
   stroke-linecap="round"
   stroke-miterlimit="10"
   d="M52.813,231.616   c-2.284-2.388-3.686-5.626-3.686-9.191c0-7.346,5.954-13.301,13.301-13.301c7.345,0,13.301,5.955,13.301,13.301   c0,3.563-1.4,6.8-3.682,9.188"
   id="path245" />
	<path
   fill="#D83559"
   d="M14.32,231.616c0,0-0.164-0.18-0.471-0.516c-0.319-0.324-0.728-0.854-1.216-1.553   c-0.453-0.719-0.996-1.615-1.391-2.744c-0.417-1.117-0.754-2.443-0.817-3.925c-0.079-1.469,0.062-3.093,0.562-4.739   c0.494-1.636,1.345-3.274,2.548-4.723c1.199-1.449,2.75-2.702,4.54-3.589c1.786-0.888,3.811-1.396,5.857-1.444   c0.562,0.019,0.983,0.017,1.499,0.049c0.517,0.073,1.055,0.112,1.558,0.223c1.001,0.212,1.991,0.501,2.917,0.923   c1.865,0.817,3.521,2.031,4.834,3.48c1.318,1.444,2.291,3.121,2.893,4.826c0.607,1.718,0.839,3.415,0.827,5.043   c-0.018,0.375,0.002,0.693-0.047,1.093c-0.049,0.396-0.097,0.782-0.144,1.159c-0.155,0.717-0.273,1.397-0.5,2.011   c-0.375,1.251-0.922,2.26-1.387,3.073c-0.499,0.794-0.927,1.399-1.263,1.776c-0.324,0.387-0.497,0.593-0.497,0.593   c-0.524,0.628-1.457,0.709-2.083,0.186c-0.625-0.525-0.709-1.457-0.185-2.084c0.012-0.015,0.025-0.029,0.039-0.045l0.092-0.1   c0,0,0.146-0.159,0.418-0.457c0.288-0.287,0.65-0.76,1.087-1.379c0.401-0.641,0.892-1.433,1.242-2.438   c0.214-0.486,0.329-1.049,0.488-1.615c0.05-0.279,0.101-0.566,0.154-0.86c0.059-0.289,0.06-0.687,0.095-1.035   c0.069-1.275-0.05-2.755-0.491-4.205c-0.437-1.459-1.192-2.922-2.264-4.218c-1.069-1.296-2.452-2.421-4.049-3.216   c-0.792-0.409-1.649-0.7-2.526-0.933c-0.435-0.118-0.866-0.165-1.303-0.257c-0.448-0.053-0.999-0.077-1.404-0.114   c-1.835-0.045-3.681,0.324-5.349,1.058c-1.671,0.728-3.159,1.813-4.341,3.109c-1.186,1.296-2.062,2.797-2.604,4.325   c-0.547,1.524-0.757,3.075-0.752,4.51c-0.008,1.432,0.258,2.738,0.613,3.849c0.333,1.125,0.826,2.031,1.24,2.765   c0.449,0.714,0.831,1.262,1.135,1.602C14.165,231.429,14.32,231.616,14.32,231.616z"
   id="path247" />
	<path
   fill="#0094A0"
   d="M52.783,231.616c0,0-0.164-0.18-0.471-0.516c-0.319-0.324-0.729-0.854-1.216-1.553   c-0.454-0.719-0.997-1.615-1.391-2.744c-0.417-1.117-0.754-2.443-0.817-3.925c-0.078-1.469,0.062-3.093,0.562-4.739   c0.494-1.636,1.345-3.274,2.548-4.723c1.199-1.449,2.75-2.702,4.54-3.589c1.786-0.888,3.81-1.396,5.857-1.444   c0.562,0.019,0.983,0.017,1.499,0.049c0.517,0.073,1.054,0.112,1.558,0.223c1.001,0.212,1.991,0.501,2.918,0.923   c1.864,0.817,3.521,2.031,4.834,3.48c1.318,1.444,2.292,3.121,2.893,4.826c0.607,1.718,0.84,3.415,0.827,5.043   c-0.018,0.375,0.003,0.693-0.047,1.093c-0.049,0.396-0.097,0.782-0.144,1.159c-0.154,0.717-0.272,1.397-0.5,2.011   c-0.375,1.251-0.922,2.26-1.386,3.073c-0.5,0.794-0.927,1.399-1.264,1.776c-0.324,0.387-0.497,0.593-0.497,0.593   c-0.523,0.628-1.457,0.709-2.083,0.186c-0.625-0.525-0.709-1.457-0.184-2.084c0.012-0.015,0.025-0.029,0.039-0.045l0.092-0.1   c0,0,0.146-0.159,0.417-0.457c0.289-0.287,0.65-0.76,1.087-1.379c0.402-0.641,0.892-1.433,1.242-2.438   c0.214-0.486,0.329-1.049,0.488-1.615c0.05-0.279,0.101-0.566,0.154-0.86c0.059-0.289,0.06-0.687,0.095-1.035   c0.069-1.275-0.05-2.755-0.491-4.205c-0.437-1.459-1.192-2.922-2.264-4.218c-1.069-1.296-2.453-2.421-4.049-3.216   c-0.792-0.409-1.649-0.7-2.527-0.933c-0.435-0.118-0.866-0.165-1.303-0.257c-0.448-0.053-1-0.077-1.404-0.114   c-1.835-0.045-3.681,0.324-5.349,1.058c-1.671,0.728-3.159,1.813-4.341,3.109c-1.186,1.296-2.062,2.797-2.604,4.325   c-0.547,1.524-0.757,3.075-0.751,4.51c-0.008,1.432,0.257,2.738,0.613,3.849c0.333,1.125,0.826,2.031,1.24,2.765   c0.449,0.714,0.83,1.262,1.135,1.602C52.628,231.429,52.783,231.616,52.783,231.616z"
   id="path249" />
	<path
   fill="#D83559"
   d="M32.983,257.772H9.068c-1.627,0-2.958,1.331-2.958,2.957v5.915c0,1.628,1.331,2.958,2.958,2.958h23.915   c1.627,0,2.958-1.33,2.958-2.958v-5.915C35.94,259.104,34.61,257.772,32.983,257.772z M13.299,266.898H9.446v-5.939h1.159v4.906   h2.694V266.898z M18.157,261.994h-2.753v1.394h2.344v1.033h-2.344v1.444h2.753v1.033h-3.912v-5.939h3.912V261.994z M21.454,266.898   h-0.867l-1.96-5.939h1.201l1.193,3.872l1.193-3.872h1.209L21.454,266.898z M28.055,261.994h-2.752v1.394h2.343v1.033h-2.343v1.444   h2.752v1.033h-3.912v-5.939h3.912V261.994z M33.045,266.898h-3.853v-5.939h1.159v4.906h2.694V266.898z"
   id="path251" />
	<path
   fill="#0094A0"
   d="M68.736,257.772H44.821c-1.627,0-2.958,1.331-2.958,2.957v5.915c0,1.628,1.331,2.958,2.958,2.958h23.915   c1.627,0,2.958-1.33,2.958-2.958v-5.915C71.694,259.104,70.363,257.772,68.736,257.772z M49.052,266.898h-3.854v-5.939h1.16v4.906   h2.694V266.898z M53.91,261.994h-2.753v1.394H53.5v1.033h-2.343v1.444h2.753v1.033h-3.912v-5.939h3.912V261.994z M57.207,266.898   h-0.868l-1.96-5.939h1.202l1.192,3.872l1.193-3.872h1.209L57.207,266.898z M63.808,261.994h-2.753v1.394h2.344v1.033h-2.344v1.444   h2.753v1.033h-3.912v-5.939h3.912V261.994z M68.798,266.898h-3.854v-5.939h1.159v4.906h2.695V266.898z"
   id="path253" />
	<g
   id="g267">
		<path
   fill="#1D1D1B"
   d="M116.072,261.98v4.904h-1.159v-4.904h-1.551v-1.035h4.263v1.035H116.072z"
   id="path255" />
		<path
   fill="#1D1D1B"
   d="M118.569,266.885v-5.939h1.159v5.939H118.569z"
   id="path257" />
		<path
   fill="#1D1D1B"
   d="M125.335,266.885v-3.462l-1.134,2.253h-0.784l-1.143-2.253v3.462h-1.159v-5.939h1.142l1.552,3.213    l1.544-3.213h1.142v5.939H125.335z"
   id="path259" />
		<path
   fill="#1D1D1B"
   d="M130.368,266.885h-2.485v-5.939h2.385c1.16,0,1.836,0.651,1.836,1.668c0,0.661-0.434,1.084-0.733,1.228    c0.358,0.167,0.817,0.542,0.817,1.334C132.188,266.283,131.428,266.885,130.368,266.885z M130.176,261.98h-1.134v1.367h1.134    c0.493,0,0.769-0.275,0.769-0.683C130.944,262.255,130.669,261.98,130.176,261.98z M130.251,264.391h-1.209v1.461h1.209    c0.526,0,0.776-0.334,0.776-0.735C131.027,264.717,130.777,264.391,130.251,264.391z"
   id="path261" />
		<path
   fill="#1D1D1B"
   d="M136.527,266.885l-1.159-2.368h-0.834v2.368h-1.159v-5.939h2.327c1.209,0,1.927,0.827,1.927,1.819    c0,0.833-0.509,1.351-1.084,1.559l1.325,2.562H136.527z M135.627,261.98h-1.093v1.568h1.093c0.509,0,0.842-0.326,0.842-0.784    C136.469,262.306,136.136,261.98,135.627,261.98z"
   id="path263" />
		<path
   fill="#1D1D1B"
   d="M138.833,266.885v-5.939h3.912v1.035h-2.753v1.394h2.344v1.033h-2.344v1.444h2.753v1.033H138.833z"
   id="path265" />
	</g>
	<rect
   x="6.479"
   y="244.643"
   fill="#C6C6C5"
   width="136.679"
   height="2.088"
   id="rect269" />
	<g
   id="g279">
		<path
   fill="#1D1D1B"
   d="M86.367,266.898l-0.351-1.051h-2.109l-0.358,1.051h-1.211l2.161-5.939h0.909l2.168,5.939H86.367z     M84.982,262.712l-0.75,2.159h1.476L84.982,262.712z"
   id="path271" />
		<path
   fill="#1D1D1B"
   d="M88.314,266.898v-5.939h1.159v4.906h2.693v1.033H88.314z"
   id="path273" />
		<path
   fill="#1D1D1B"
   d="M96.559,266.273c-0.46,0.467-1.011,0.677-1.678,0.677c-0.633,0-1.167-0.219-1.601-0.652    c-0.259-0.257-0.418-0.559-0.484-0.893c-0.066-0.332-0.101-0.825-0.101-1.476c0-0.649,0.034-1.143,0.101-1.477    c0.066-0.343,0.226-0.634,0.484-0.893c0.434-0.435,0.968-0.65,1.601-0.65c1.352,0,2.077,0.868,2.235,1.901h-1.167    c-0.143-0.574-0.493-0.866-1.068-0.866c-0.31,0-0.559,0.108-0.742,0.316c-0.217,0.274-0.284,0.492-0.284,1.668    c0,1.168,0.051,1.402,0.284,1.678c0.175,0.207,0.425,0.308,0.742,0.308c0.343,0,0.618-0.108,0.825-0.335    c0.176-0.199,0.268-0.466,0.268-0.79v-0.227h-1.093v-0.968h2.244v0.868C97.125,265.332,96.966,265.839,96.559,266.273z"
   id="path275" />
		<path
   fill="#1D1D1B"
   d="M101.807,266.298c-0.417,0.418-0.926,0.652-1.602,0.652s-1.192-0.234-1.609-0.652    c-0.601-0.6-0.585-1.343-0.585-2.368c0-1.026-0.016-1.769,0.585-2.369c0.417-0.416,0.934-0.65,1.609-0.65s1.185,0.234,1.602,0.65    c0.602,0.601,0.592,1.343,0.592,2.369C102.398,264.955,102.408,265.698,101.807,266.298z M100.947,262.262    c-0.166-0.192-0.425-0.316-0.742-0.316s-0.584,0.124-0.75,0.316c-0.226,0.25-0.285,0.525-0.285,1.668    c0,1.144,0.06,1.419,0.285,1.669c0.166,0.191,0.433,0.316,0.75,0.316s0.576-0.125,0.742-0.316c0.226-0.25,0.292-0.525,0.292-1.669    C101.239,262.787,101.173,262.512,100.947,262.262z"
   id="path277" />
	</g>
	<g
   id="g285">
		<polygon
   fill="#D83559"
   points="21.175,306.951 20.953,306.917 20.778,306.917 20.43,306.917 20.312,306.951 20.265,307.024     20.265,307.685 20.297,307.771 20.405,307.817 20.753,307.817 20.953,307.817 21.206,307.817 21.257,307.795 21.257,307.735     21.257,307.024 21.212,306.988   "
   id="polygon281" />
		<path
   fill="#D83559"
   d="M21.024,304.183c-2.879,0-5.214,2.335-5.214,5.216s2.335,5.216,5.214,5.216    c2.881,0,5.216-2.335,5.216-5.216S23.906,304.183,21.024,304.183z M22.221,312.33h-0.964v-3.861h-0.518    c-0.204,0-0.391-0.021-0.568-0.071c-0.171-0.042-0.334-0.124-0.489-0.233c-0.152-0.11-0.261-0.232-0.334-0.367    c-0.069-0.133-0.11-0.273-0.11-0.418c0-0.13,0.041-0.259,0.11-0.383c0.073-0.129,0.175-0.244,0.32-0.351    c0.139-0.105,0.295-0.188,0.479-0.24c0.102-0.024,0.202-0.045,0.283-0.058c0.096-0.018,0.198-0.021,0.31-0.021    c0.139,0,0.238,0.002,0.297,0.01c0.063,0.008,0.169,0.034,0.32,0.081c0.153,0.045,0.295,0.114,0.43,0.212    c0.139,0.094,0.25,0.206,0.322,0.337c0.076,0.13,0.112,0.267,0.112,0.411V312.33z"
   id="path283" />
	</g>
	<path
   fill="#0094A0"
   d="M56.779,304.183c-2.881,0-5.216,2.335-5.216,5.216s2.335,5.216,5.216,5.216s5.216-2.335,5.216-5.216   S59.66,304.183,56.779,304.183z M58.374,309.41c0,0.146-0.047,0.283-0.136,0.422c-0.092,0.114-0.226,0.219-0.396,0.306   c-0.169,0.094-0.365,0.165-0.583,0.219c-0.216,0.055-0.453,0.081-0.711,0.081l1.146,1.579l-0.711,0.477l-1.756-2.307l0.583-0.546   l0.898,0.191h0.32c0.114-0.014,0.206-0.036,0.273-0.062c0.069-0.026,0.118-0.058,0.149-0.088l0.065-0.148v-2.295   c-0.02-0.055-0.037-0.087-0.057-0.105c-0.039-0.039-0.088-0.071-0.157-0.103l-0.057-0.012l-0.055-0.024h-0.059l-0.055-0.022h-0.151   h-0.146c-0.145,0-0.249,0-0.31,0c-0.084,0-0.155,0.015-0.22,0.041c-0.069,0.028-0.118,0.062-0.157,0.102l-0.041,0.139v1.078h-0.866   v-1.07c0-0.12,0.039-0.236,0.118-0.342c0.075-0.106,0.189-0.208,0.348-0.304c0.149-0.096,0.293-0.161,0.434-0.193   c0.149-0.037,0.267-0.062,0.358-0.076c0.102-0.016,0.208-0.022,0.322-0.022c0.22,0,0.426,0.022,0.617,0.067   c0.188,0.047,0.363,0.114,0.52,0.206c0.155,0.092,0.269,0.193,0.347,0.308c0.037,0.053,0.067,0.112,0.089,0.173   c0.022,0.062,0.037,0.127,0.037,0.196V309.41z"
   id="path287" />
	<g
   id="g297">
		<polygon
   fill="#6F6F6E"
   points="122.379,310.588 123.855,310.588 123.13,308.429   "
   id="polygon289" />
		<polygon
   fill="#6F6F6E"
   points="87.054,306.914 86.816,306.876 86.616,306.876 86.24,306.876 86.103,306.914 86.053,306.992     86.053,307.722 86.091,307.813 86.206,307.864 86.591,307.864 86.809,307.864 87.091,307.864 87.142,307.838 87.142,307.774     87.142,306.99 87.092,306.951   "
   id="polygon291" />
		<path
   fill="#6F6F6E"
   d="M140.24,303.324H80.75c-1.627,0-2.958,1.331-2.958,2.957v35.547c0,1.628,1.331,2.959,2.958,2.959h59.49    c1.627,0,2.958-1.331,2.958-2.959v-35.547C143.198,304.655,141.867,303.324,140.24,303.324z M88.206,312.821h-1.064v-4.244h-0.563    c-0.225,0-0.434-0.024-0.625-0.075c-0.193-0.049-0.372-0.137-0.539-0.257c-0.166-0.122-0.29-0.257-0.369-0.403    s-0.119-0.3-0.119-0.461c0-0.141,0.04-0.283,0.119-0.42c0.079-0.138,0.195-0.267,0.351-0.385c0.154-0.116,0.332-0.206,0.531-0.265    c0.109-0.024,0.214-0.045,0.313-0.062c0.101-0.018,0.213-0.026,0.338-0.026c0.151,0,0.259,0.004,0.326,0.013    c0.066,0.008,0.184,0.038,0.351,0.09c0.167,0.049,0.325,0.126,0.476,0.231c0.149,0.104,0.267,0.229,0.351,0.371    c0.083,0.141,0.125,0.291,0.125,0.452V312.821z M92.454,312.54c-1.58,0-2.864-1.283-2.864-2.864c0-1.579,1.284-2.865,2.864-2.865    c1.581,0,2.865,1.286,2.865,2.865C95.319,311.257,94.035,312.54,92.454,312.54z M100.265,309.612c0,0.161-0.05,0.315-0.15,0.465    c-0.101,0.126-0.244,0.238-0.433,0.34c-0.188,0.1-0.4,0.18-0.638,0.238c-0.238,0.06-0.498,0.088-0.782,0.088l1.258,1.736    l-0.782,0.521l-1.929-2.533l0.639-0.601l0.989,0.214h0.351c0.126-0.019,0.226-0.041,0.301-0.071    c0.074-0.028,0.129-0.062,0.162-0.094l0.075-0.165v-2.522c-0.024-0.06-0.046-0.096-0.062-0.114    c-0.041-0.041-0.101-0.079-0.175-0.114l-0.063-0.012l-0.062-0.024h-0.063l-0.062-0.027h-0.163h-0.161c-0.159,0-0.272,0-0.339,0    c-0.093,0-0.173,0.017-0.244,0.045c-0.071,0.031-0.128,0.067-0.169,0.11l-0.05,0.155v1.182h-0.952v-1.172    c0-0.135,0.044-0.261,0.132-0.379c0.087-0.116,0.215-0.229,0.382-0.332c0.167-0.106,0.327-0.178,0.481-0.214    c0.155-0.039,0.287-0.065,0.395-0.082c0.109-0.018,0.226-0.026,0.351-0.026c0.242,0,0.468,0.026,0.677,0.075    c0.208,0.052,0.398,0.127,0.569,0.227s0.299,0.214,0.382,0.338c0.042,0.06,0.074,0.123,0.1,0.189    c0.025,0.067,0.038,0.139,0.038,0.212V309.612z M124.515,312.615l-0.351-1.051h-2.109l-0.359,1.051h-1.21l2.161-5.939h0.909    l2.168,5.939H124.515z M130.74,310.58c0,1.262-0.968,2.087-2.187,2.087c-1.216,0-2.184-0.825-2.184-2.087v-3.904h1.159v3.863    c0,0.685,0.399,1.093,1.024,1.093c0.626,0,1.035-0.408,1.035-1.093v-3.863h1.151V310.58z M135.006,312.615l-1.151-2.067    l-1.142,2.067h-1.326l1.843-3.044l-1.727-2.896h1.317l1.034,1.92l1.043-1.92h1.31l-1.727,2.896l1.851,3.044H135.006z"
   id="path293" />
		<path
   fill="#6F6F6E"
   d="M92.454,307.846c-1.008,0-1.829,0.821-1.829,1.83c0,1.008,0.821,1.829,1.829,1.829    c1.009,0,1.83-0.821,1.83-1.829C94.284,308.667,93.463,307.846,92.454,307.846z M92.932,310.884l-0.478-0.477l-0.477,0.477    l-0.731-0.731l0.477-0.477l-0.477-0.475l0.731-0.732l0.476,0.476l0.478-0.478l0.731,0.731l-0.476,0.478l0.477,0.477    L92.932,310.884z"
   id="path295" />
	</g>
	<g
   id="g301">
		<path
   fill="#1D1D1B"
   d="M23.999,180.849c-0.289,0-0.521-0.233-0.521-0.521v-0.521c0-0.289,0.233-0.521,0.521-0.521    c0.288,0,0.521,0.233,0.521,0.521v0.521C24.52,180.616,24.287,180.849,23.999,180.849z M23.999,178.241    c-0.289,0-0.521-0.233-0.521-0.521v-0.522c0-0.288,0.233-0.521,0.521-0.521c0.288,0,0.521,0.233,0.521,0.521v0.522    C24.52,178.007,24.287,178.241,23.999,178.241z"
   id="path299" />
	</g>
	<path
   fill="none"
   stroke="#000000"
   stroke-linecap="round"
   stroke-miterlimit="10"
   stroke-dasharray="0.5,2"
   d="M23.963,170.797"
   id="path303" />
	<g
   id="g325">
		<g
   id="g307">
			<circle
   fill="#6F6F6E"
   cx="126.123"
   cy="120.35"
   r="0.575"
   id="circle305" />
		</g>
		<g
   id="g311">
			<rect
   x="125.789"
   y="121.696"
   fill="#6F6F6E"
   width="3.426"
   height="0.338"
   id="rect309" />
		</g>
		<g
   id="g315">
			<rect
   x="125.789"
   y="122.403"
   fill="#6F6F6E"
   width="3.426"
   height="0.338"
   id="rect313" />
		</g>
		<g
   id="g319">
			<circle
   fill="#6F6F6E"
   cx="128.717"
   cy="120.351"
   r="0.592"
   id="circle317" />
		</g>
		<g
   id="g323">
			<path
   fill="#6F6F6E"
   d="M127.503,114.46c-3.268,0-5.914,2.647-5.914,5.914c0,3.266,2.646,5.914,5.914,5.914     c3.266,0,5.914-2.648,5.914-5.914C133.417,117.107,130.769,114.46,127.503,114.46z M130.939,121.262h-0.58v2.175h-5.72v-2.175     h-0.58v-1.542h0.627c0-1.375,1.108-2.493,2.521-2.632c-0.121-0.09-0.205-0.228-0.205-0.391c0-0.274,0.224-0.495,0.496-0.495     c0.275,0,0.497,0.221,0.497,0.495c0,0.163-0.083,0.3-0.204,0.391c1.414,0.14,2.52,1.257,2.52,2.632h0.628V121.262z"
   id="path321" />
		</g>
	</g>
	<g
   id="g329">
		<path
   fill="#6F6F6E"
   d="M46.296,142.309c-3.266,0-5.914,2.648-5.914,5.914s2.648,5.914,5.914,5.914    c3.267,0,5.914-2.648,5.914-5.914S49.563,142.309,46.296,142.309z M50.343,149.542h-3.972h-3.972v-2.637l3.972,2.637l3.972-2.637    V149.542z"
   id="path327" />
	</g>
	<g
   id="g341">
		<path
   fill="#6F6F6E"
   d="M75.202,40.797h2.372c-0.218-1.2-1.169-2.14-2.372-2.346V40.797z"
   id="path331" />
		<path
   fill="#6F6F6E"
   d="M74.158,41.84h-2.313c0.215,1.18,1.137,2.113,2.313,2.34V41.84z"
   id="path333" />
		<path
   fill="#6F6F6E"
   d="M74.158,40.797v-2.34c-1.177,0.227-2.099,1.16-2.313,2.34H74.158z"
   id="path335" />
		<path
   fill="#6F6F6E"
   d="M74.709,35.406c-3.266,0-5.913,2.647-5.913,5.913c0,3.266,2.647,5.914,5.913,5.914    s5.913-2.647,5.913-5.914C80.622,38.053,77.976,35.406,74.709,35.406z M74.709,45.278c-2.185,0-3.961-1.776-3.961-3.96    c0-2.184,1.776-3.96,3.961-3.96c2.183,0,3.959,1.776,3.959,3.96C78.669,43.502,76.893,45.278,74.709,45.278z"
   id="path337" />
		<path
   fill="#6F6F6E"
   d="M75.202,41.84v2.345c1.203-0.206,2.154-1.146,2.372-2.345H75.202z"
   id="path339" />
	</g>
	<g
   id="g347">
		<polygon
   fill="#6F6F6E"
   points="108.103,55.2 109.77,55.2 110.655,51.893 108.987,51.893   "
   id="polygon343" />
		<path
   fill="#6F6F6E"
   d="M109.379,47.632c-3.268,0-5.914,2.647-5.914,5.914c0,3.266,2.646,5.914,5.914,5.914    c3.266,0,5.914-2.648,5.914-5.914C115.293,50.28,112.645,47.632,109.379,47.632z M112.684,51.893h-0.948l-1.165,4.351h-3.147    h-0.68h-0.67c-0.288,0-0.521-0.233-0.521-0.522c0-0.288,0.233-0.521,0.521-0.521h0.949l1.164-4.35h3.148h0.68h0.669    c0.288,0,0.521,0.233,0.521,0.521C113.205,51.66,112.972,51.893,112.684,51.893z"
   id="path345" />
	</g>
	<g
   id="g361">
		<rect
   x="129.206"
   y="84.3"
   fill="#6F6F6E"
   width="0.782"
   height="0.324"
   id="rect349" />
		<rect
   x="129.206"
   y="84.891"
   fill="#6F6F6E"
   width="0.782"
   height="0.326"
   id="rect351" />
		<circle
   fill="#6F6F6E"
   cx="128.001"
   cy="83.708"
   r="0.619"
   id="circle353" />
		<rect
   x="129.206"
   y="83.708"
   fill="#6F6F6E"
   width="0.782"
   height="0.326"
   id="rect355" />
		<path
   fill="#6F6F6E"
   d="M129.598,78.007c-3.268,0-5.914,2.648-5.914,5.914s2.646,5.914,5.914,5.914    c3.266,0,5.914-2.648,5.914-5.914S132.863,78.007,129.598,78.007z M126.26,84.532h-0.717V82.61h0.717V84.532z M130.528,86.878    h-1.863v-0.913h1.863V86.878z M132.463,85.108c0,0.326-0.266,0.592-0.592,0.592h-4.548c-0.326,0-0.592-0.266-0.592-0.592v-2.801    c0-0.326,0.266-0.591,0.592-0.591h4.548c0.326,0,0.592,0.266,0.592,0.591V85.108z M133.652,84.532h-0.718V82.61h0.718V84.532z"
   id="path357" />
		<circle
   fill="#6F6F6E"
   cx="131.193"
   cy="83.708"
   r="0.619"
   id="circle359" />
	</g>
	<path
   fill="#6F6F6E"
   d="M103.121,142.877c-3.269,0-5.914,2.647-5.914,5.914c0,3.267,2.646,5.915,5.914,5.915   c3.266,0,5.914-2.647,5.914-5.915C109.035,145.524,106.387,142.877,103.121,142.877z M107.331,149.182h-1.111l0.425,0.736   c0.107,0.187,0.044,0.426-0.144,0.534c-0.062,0.036-0.129,0.053-0.196,0.053c-0.134,0-0.266-0.07-0.339-0.196l-0.65-1.126h-1.506   l0.707,1.225l1.393,0.001c0.217,0,0.392,0.176,0.392,0.392s-0.175,0.391-0.392,0.391l-0.845-0.001l0.554,0.962   c0.108,0.188,0.044,0.427-0.144,0.534c-0.062,0.036-0.129,0.053-0.195,0.053c-0.135,0-0.268-0.07-0.34-0.196l-0.554-0.961   l-0.424,0.735c-0.073,0.125-0.205,0.195-0.34,0.195c-0.065,0-0.133-0.017-0.195-0.052c-0.188-0.108-0.252-0.347-0.144-0.534   l0.604-1.044l-0.754-1.306l-0.661,1.144l0.696,1.207c0.108,0.187,0.044,0.426-0.144,0.534c-0.062,0.036-0.129,0.052-0.195,0.052   c-0.135,0-0.267-0.07-0.34-0.195l-0.424-0.734l-0.554,0.961c-0.072,0.125-0.205,0.196-0.34,0.196c-0.065,0-0.133-0.017-0.195-0.053   c-0.188-0.108-0.252-0.347-0.144-0.534l0.556-0.962h-0.849c-0.217,0-0.392-0.175-0.392-0.391s0.175-0.391,0.392-0.391h1.206   l0.708-1.226h-1.32l-0.654,1.127c-0.072,0.125-0.204,0.195-0.338,0.195c-0.067,0-0.135-0.017-0.197-0.053   c-0.187-0.108-0.25-0.347-0.142-0.534l0.427-0.735h-1.114c-0.216,0-0.391-0.175-0.391-0.391c0-0.216,0.175-0.392,0.391-0.392h1.114   l-0.427-0.735c-0.108-0.187-0.045-0.426,0.142-0.534c0.186-0.11,0.426-0.046,0.535,0.142l0.654,1.127h1.32l-0.707-1.225   l-1.207,0.001c-0.217,0-0.392-0.174-0.392-0.391s0.175-0.392,0.392-0.392l0.85,0l-0.557-0.962   c-0.109-0.187-0.045-0.426,0.143-0.534c0.184-0.108,0.425-0.045,0.534,0.143l0.555,0.961l0.425-0.736   c0.108-0.187,0.347-0.25,0.535-0.143c0.188,0.108,0.252,0.347,0.144,0.534l-0.696,1.208l0.661,1.145l0.754-1.305l-0.605-1.048   c-0.108-0.188-0.044-0.426,0.144-0.534c0.189-0.107,0.427-0.044,0.535,0.143l0.424,0.735l0.556-0.962   c0.108-0.189,0.35-0.25,0.534-0.143c0.188,0.108,0.252,0.347,0.143,0.534l-0.558,0.963h0.851c0.217,0,0.392,0.175,0.392,0.391   s-0.175,0.391-0.392,0.391h-1.391l-0.708,1.226h1.504l0.652-1.127c0.107-0.189,0.35-0.25,0.534-0.144   c0.188,0.108,0.251,0.348,0.143,0.535l-0.425,0.735h1.112c0.216,0,0.391,0.175,0.391,0.391   C107.722,149.007,107.547,149.182,107.331,149.182z"
   id="path363" />
	<g
   id="g369">
		<path
   fill="#6F6F6E"
   d="M39.821,50.599c-1.609,0-2.917,1.309-2.917,2.917c0,1.609,1.308,2.917,2.917,2.917    c1.608,0,2.917-1.309,2.917-2.917C42.738,51.908,41.43,50.599,39.821,50.599z M41.513,54.5l-0.737,0.737l-0.984-0.984    l-0.984,0.984L38.07,54.5l0.984-0.984l-0.985-0.984l0.738-0.738l0.985,0.985l0.984-0.984l0.737,0.738l-0.984,0.984L41.513,54.5z"
   id="path365" />
		<path
   fill="#6F6F6E"
   d="M39.821,47.604c-3.266,0-5.914,2.647-5.914,5.913c0,3.267,2.648,5.914,5.914,5.914    s5.914-2.647,5.914-5.914C45.735,50.251,43.087,47.604,39.821,47.604z M39.821,57.477c-2.184,0-3.96-1.776-3.96-3.96    s1.776-3.961,3.96-3.961c2.183,0,3.96,1.777,3.96,3.961S42.004,57.477,39.821,57.477z"
   id="path367" />
	</g>
	<g
   id="g375">
		
			<rect
   x="17.913"
   y="82.305"
   transform="matrix(-0.707 -0.7072 0.7072 -0.707 -26.0115 157.0659)"
   fill="#6F6F6E"
   width="3.232"
   height="3.231"
   id="rect371" />
		<path
   fill="#6F6F6E"
   d="M19.525,78.008c-3.266,0-5.914,2.647-5.914,5.913c0,3.267,2.648,5.914,5.914,5.914    s5.914-2.647,5.914-5.914C25.439,80.655,22.791,78.008,19.525,78.008z M19.529,87.682l-3.761-3.761l3.761-3.761l3.759,3.761    L19.529,87.682z"
   id="path373" />
	</g>
	<path
   fill="#6F6F6E"
   d="M21.915,114.756c-3.266,0-5.914,2.647-5.914,5.913c0,3.267,2.648,5.914,5.914,5.914   s5.914-2.647,5.914-5.914C27.829,117.403,25.181,114.756,21.915,114.756z M25.7,123.032l-1.909-0.785l0.447-1.236l-1.235,0.016   l-0.206-1.104l-0.863,0.689l-0.82-0.668l-0.173,1.059l-1.188,0.012l0.503,1.167l-1.867,0.872l-0.442-0.945l0.951-0.443   l-0.723-1.678l1.878-0.019l0.322-1.972l1.566,1.275l1.564-1.248l0.363,1.949l1.864-0.025l-0.621,1.714l0.986,0.405L25.7,123.032z"
   id="path377" />
	<g
   id="g405">
		<path
   d="M46.546,18.375v-3.03c0-0.44-0.109-0.769-0.325-0.985c-0.217-0.216-0.512-0.325-0.885-0.325    c-0.36,0-0.655,0.106-0.885,0.32s-0.345,0.517-0.345,0.91v3.11h-0.72v-3.03c0-0.44-0.108-0.769-0.325-0.985    c-0.217-0.216-0.512-0.325-0.885-0.325c-0.374,0-0.672,0.11-0.895,0.33c-0.224,0.22-0.335,0.546-0.335,0.98v3.03h-0.72v-4.92h0.72    v0.54c0.173-0.2,0.378-0.35,0.615-0.45s0.495-0.15,0.775-0.15c0.34,0,0.639,0.068,0.895,0.205    c0.257,0.137,0.462,0.342,0.615,0.615c0.387-0.546,0.927-0.82,1.62-0.82c0.267,0,0.506,0.04,0.72,0.12s0.396,0.193,0.55,0.34    c0.353,0.34,0.53,0.797,0.53,1.37v3.15H46.546z"
   id="path379" />
		<path
   d="M49.466,16.105c0,0.54,0.122,0.958,0.365,1.255c0.244,0.297,0.605,0.445,1.085,0.445c0.287,0,0.525-0.045,0.715-0.135    s0.381-0.231,0.575-0.425l0.49,0.43c-0.127,0.127-0.252,0.237-0.375,0.33c-0.124,0.094-0.257,0.172-0.4,0.235    c-0.144,0.063-0.299,0.111-0.465,0.145c-0.167,0.034-0.354,0.05-0.56,0.05c-0.327,0-0.623-0.05-0.89-0.15    c-0.267-0.1-0.494-0.253-0.68-0.46s-0.33-0.468-0.43-0.785c-0.1-0.316-0.15-0.691-0.15-1.125c0-0.807,0.18-1.428,0.54-1.865    c0.36-0.437,0.854-0.655,1.48-0.655c0.646,0,1.145,0.212,1.495,0.635c0.35,0.424,0.525,1.009,0.525,1.755v0.32H49.466z     M52.076,15.565c-0.007-0.1-0.013-0.187-0.02-0.26s-0.015-0.14-0.025-0.2c-0.01-0.06-0.025-0.118-0.045-0.175    s-0.043-0.119-0.07-0.185c-0.106-0.227-0.258-0.407-0.455-0.54c-0.197-0.133-0.429-0.2-0.695-0.2s-0.499,0.067-0.695,0.2    c-0.197,0.133-0.349,0.313-0.455,0.54c-0.033,0.066-0.059,0.128-0.075,0.185s-0.03,0.115-0.04,0.175    c-0.01,0.06-0.017,0.127-0.02,0.2c-0.004,0.073-0.009,0.16-0.015,0.26H52.076z"
   id="path381" />
		<path
   d="M55.695,18.375c-0.213,0-0.398-0.035-0.555-0.105c-0.157-0.07-0.287-0.165-0.39-0.285c-0.104-0.12-0.182-0.26-0.235-0.42    c-0.054-0.16-0.08-0.33-0.08-0.51v-3.05h-0.62v-0.55h0.62v-1.51h0.72v1.51h1.05v0.55h-1.05v3.03c0,0.227,0.053,0.403,0.16,0.53    c0.106,0.127,0.277,0.19,0.51,0.19h0.38v0.62H55.695z"
   id="path383" />
		<path
   d="M60.425,18.375v-0.47c-0.193,0.194-0.396,0.33-0.61,0.41s-0.483,0.12-0.81,0.12c-0.34,0-0.613-0.034-0.82-0.1    c-0.207-0.066-0.397-0.183-0.57-0.35c-0.126-0.12-0.22-0.268-0.28-0.445s-0.09-0.362-0.09-0.555c0-0.44,0.147-0.787,0.44-1.04    c0.293-0.253,0.716-0.38,1.27-0.38h1.47v-0.47c0-0.36-0.095-0.63-0.285-0.81c-0.19-0.18-0.515-0.27-0.975-0.27    c-0.313,0-0.56,0.043-0.74,0.13c-0.18,0.087-0.347,0.233-0.5,0.44l-0.49-0.45c0.213-0.286,0.455-0.481,0.725-0.585    c0.27-0.103,0.608-0.155,1.015-0.155c0.667,0,1.162,0.14,1.485,0.42c0.323,0.28,0.485,0.687,0.485,1.22v3.34H60.425z     M60.425,16.105h-1.37c-0.74,0-1.11,0.29-1.11,0.87c0,0.287,0.09,0.499,0.27,0.635c0.18,0.137,0.47,0.205,0.87,0.205    c0.207,0,0.4-0.018,0.58-0.055c0.18-0.036,0.35-0.128,0.51-0.275c0.167-0.16,0.25-0.443,0.25-0.85V16.105z"
   id="path385" />
		<path
   d="M71.705,18.375v-3.03c0-0.44-0.108-0.769-0.325-0.985c-0.216-0.216-0.512-0.325-0.885-0.325    c-0.359,0-0.654,0.106-0.885,0.32s-0.345,0.517-0.345,0.91v3.11h-0.721v-3.03c0-0.44-0.108-0.769-0.324-0.985    c-0.217-0.216-0.512-0.325-0.886-0.325c-0.373,0-0.671,0.11-0.895,0.33c-0.224,0.22-0.335,0.546-0.335,0.98v3.03h-0.72v-4.92h0.72    v0.54c0.173-0.2,0.378-0.35,0.615-0.45c0.236-0.1,0.495-0.15,0.774-0.15c0.34,0,0.639,0.068,0.896,0.205    c0.256,0.137,0.461,0.342,0.614,0.615c0.387-0.546,0.927-0.82,1.62-0.82c0.267,0,0.507,0.04,0.721,0.12    c0.213,0.08,0.396,0.193,0.55,0.34c0.354,0.34,0.53,0.797,0.53,1.37v3.15H71.705z"
   id="path387" />
		<path
   d="M77.936,15.916c0,0.38-0.039,0.738-0.115,1.075c-0.076,0.336-0.238,0.631-0.486,0.885c-0.172,0.173-0.375,0.31-0.609,0.41    c-0.232,0.1-0.5,0.15-0.799,0.15c-0.301,0-0.567-0.05-0.801-0.15c-0.233-0.1-0.437-0.237-0.609-0.41    c-0.127-0.126-0.229-0.265-0.306-0.415c-0.076-0.15-0.137-0.307-0.18-0.47c-0.043-0.164-0.073-0.335-0.09-0.515    c-0.017-0.18-0.025-0.367-0.025-0.56c0-0.38,0.037-0.738,0.11-1.075c0.073-0.336,0.236-0.631,0.49-0.885    c0.173-0.173,0.376-0.31,0.609-0.41s0.5-0.15,0.801-0.15c0.299,0,0.567,0.05,0.799,0.15c0.234,0.1,0.438,0.237,0.609,0.41    c0.254,0.253,0.418,0.548,0.49,0.885C77.898,15.177,77.936,15.536,77.936,15.916z M77.215,15.916c0-0.28-0.02-0.558-0.061-0.835    c-0.039-0.277-0.148-0.505-0.33-0.685c-0.24-0.24-0.539-0.36-0.899-0.36c-0.354,0-0.65,0.12-0.891,0.36    c-0.18,0.18-0.291,0.408-0.335,0.685c-0.043,0.277-0.064,0.555-0.064,0.835c0,0.14,0.003,0.28,0.01,0.42s0.023,0.277,0.05,0.41    s0.066,0.258,0.12,0.375s0.127,0.222,0.22,0.315c0.24,0.24,0.537,0.36,0.891,0.36c0.36,0,0.659-0.12,0.899-0.36    c0.182-0.187,0.291-0.417,0.33-0.69C77.195,16.472,77.215,16.195,77.215,15.916z"
   id="path389" />
		<path
   d="M82.416,18.375v-0.59c-0.207,0.26-0.422,0.433-0.645,0.52c-0.225,0.086-0.477,0.13-0.756,0.13    c-0.254,0-0.482-0.039-0.689-0.115c-0.207-0.076-0.377-0.181-0.51-0.315c-0.248-0.253-0.408-0.565-0.486-0.935    c-0.076-0.37-0.115-0.755-0.115-1.155c0-0.2,0.01-0.398,0.025-0.595c0.018-0.196,0.047-0.385,0.09-0.565    c0.043-0.18,0.105-0.35,0.186-0.51c0.08-0.16,0.18-0.3,0.301-0.42c0.133-0.133,0.303-0.238,0.51-0.315    c0.207-0.076,0.436-0.115,0.689-0.115c0.279,0,0.529,0.042,0.75,0.125s0.434,0.251,0.641,0.505v-2.77h0.719v7.12H82.416z     M82.406,15.916c0-0.24-0.014-0.473-0.041-0.7c-0.025-0.227-0.082-0.426-0.17-0.6c-0.086-0.173-0.211-0.313-0.375-0.42    c-0.162-0.106-0.379-0.16-0.645-0.16c-0.273,0-0.49,0.053-0.65,0.16c-0.16,0.107-0.285,0.247-0.375,0.42s-0.148,0.373-0.174,0.6    c-0.027,0.227-0.041,0.46-0.041,0.7c0,0.24,0.014,0.474,0.041,0.7c0.025,0.227,0.084,0.426,0.174,0.6    c0.09,0.174,0.215,0.313,0.375,0.42c0.16,0.107,0.377,0.16,0.65,0.16c0.266,0,0.482-0.053,0.645-0.16    c0.164-0.106,0.289-0.246,0.375-0.42c0.088-0.173,0.145-0.373,0.17-0.6C82.393,16.389,82.406,16.155,82.406,15.916z"
   id="path391" />
		<path
   d="M88.035,18.375v-0.55c-0.174,0.2-0.379,0.352-0.615,0.455c-0.236,0.104-0.494,0.155-0.775,0.155    c-0.539,0-0.963-0.153-1.27-0.46c-0.174-0.173-0.301-0.375-0.381-0.605s-0.119-0.488-0.119-0.775v-3.14h0.721v3.03    c0,0.44,0.105,0.769,0.318,0.985c0.215,0.216,0.508,0.325,0.881,0.325s0.672-0.11,0.895-0.33c0.225-0.22,0.336-0.546,0.336-0.98    v-3.03h0.719v4.92H88.035z"
   id="path393" />
		<path
   d="M91.775,18.375c-0.434,0-0.75-0.125-0.951-0.375c-0.199-0.25-0.299-0.562-0.299-0.935v-5.81h0.719v5.78    c0,0.24,0.047,0.42,0.141,0.54c0.094,0.12,0.268,0.18,0.52,0.18h0.391v0.62H91.775z"
   id="path395" />
		<path
   d="M96.275,18.375v-0.47c-0.193,0.194-0.396,0.33-0.609,0.41c-0.215,0.08-0.484,0.12-0.811,0.12    c-0.34,0-0.613-0.034-0.82-0.1s-0.396-0.183-0.57-0.35c-0.127-0.12-0.219-0.268-0.279-0.445s-0.09-0.362-0.09-0.555    c0-0.44,0.146-0.787,0.439-1.04c0.293-0.253,0.717-0.38,1.27-0.38h1.471v-0.47c0-0.36-0.096-0.63-0.285-0.81    c-0.189-0.18-0.516-0.27-0.975-0.27c-0.314,0-0.561,0.043-0.74,0.13c-0.18,0.087-0.346,0.233-0.5,0.44l-0.49-0.45    c0.213-0.286,0.455-0.481,0.725-0.585c0.271-0.103,0.609-0.155,1.016-0.155c0.666,0,1.162,0.14,1.484,0.42    c0.324,0.28,0.486,0.687,0.486,1.22v3.34H96.275z M96.275,16.105h-1.369c-0.74,0-1.111,0.29-1.111,0.87    c0,0.287,0.09,0.499,0.271,0.635c0.18,0.137,0.469,0.205,0.869,0.205c0.207,0,0.4-0.018,0.58-0.055    c0.18-0.036,0.35-0.128,0.51-0.275c0.166-0.16,0.25-0.443,0.25-0.85V16.105z"
   id="path397" />
		<path
   d="M100.125,18.375c-0.213,0-0.398-0.035-0.555-0.105s-0.287-0.165-0.391-0.285c-0.104-0.12-0.182-0.26-0.234-0.42    s-0.08-0.33-0.08-0.51v-3.05h-0.619v-0.55h0.619v-1.51h0.721v1.51h1.049v0.55h-1.049v3.03c0,0.227,0.053,0.403,0.16,0.53    c0.105,0.127,0.275,0.19,0.51,0.19h0.379v0.62H100.125z"
   id="path399" />
		<path
   d="M105.824,15.916c0,0.38-0.039,0.738-0.115,1.075c-0.076,0.336-0.238,0.631-0.484,0.885    c-0.174,0.173-0.377,0.31-0.609,0.41c-0.234,0.1-0.5,0.15-0.801,0.15s-0.566-0.05-0.801-0.15c-0.232-0.1-0.436-0.237-0.609-0.41    c-0.127-0.126-0.229-0.265-0.305-0.415s-0.137-0.307-0.18-0.47c-0.043-0.164-0.074-0.335-0.09-0.515    c-0.018-0.18-0.025-0.367-0.025-0.56c0-0.38,0.037-0.738,0.109-1.075c0.074-0.336,0.236-0.631,0.49-0.885    c0.174-0.173,0.377-0.31,0.609-0.41c0.234-0.1,0.5-0.15,0.801-0.15s0.566,0.05,0.801,0.15c0.232,0.1,0.436,0.237,0.609,0.41    c0.254,0.253,0.416,0.548,0.49,0.885C105.787,15.177,105.824,15.536,105.824,15.916z M105.105,15.916    c0-0.28-0.021-0.558-0.061-0.835c-0.041-0.277-0.15-0.505-0.33-0.685c-0.24-0.24-0.541-0.36-0.9-0.36    c-0.354,0-0.65,0.12-0.891,0.36c-0.18,0.18-0.291,0.408-0.334,0.685s-0.064,0.555-0.064,0.835c0,0.14,0.002,0.28,0.01,0.42    c0.006,0.14,0.023,0.277,0.049,0.41c0.027,0.133,0.066,0.258,0.121,0.375c0.053,0.117,0.127,0.222,0.219,0.315    c0.24,0.24,0.537,0.36,0.891,0.36c0.359,0,0.66-0.12,0.9-0.36c0.18-0.187,0.289-0.417,0.33-0.69    C105.084,16.472,105.105,16.195,105.105,15.916z"
   id="path401" />
		<path
   d="M110.115,14.396c-0.135-0.133-0.262-0.227-0.381-0.28c-0.119-0.054-0.277-0.08-0.471-0.08c-0.18,0-0.342,0.033-0.49,0.1    c-0.146,0.067-0.27,0.16-0.369,0.28s-0.178,0.26-0.234,0.42s-0.086,0.333-0.086,0.52v3.02h-0.719v-4.92h0.719v0.6    c0.133-0.207,0.326-0.369,0.576-0.485c0.25-0.116,0.518-0.175,0.805-0.175c0.232,0,0.445,0.033,0.635,0.1    c0.189,0.066,0.371,0.187,0.545,0.36L110.115,14.396z"
   id="path403" />
	</g>
</g>
<g
   id="decoupe"
   display="none">
	
		<path
   display="inline"
   fill="none"
   stroke="#E42320"
   stroke-width="0.2835"
   stroke-linecap="round"
   stroke-linejoin="round"
   stroke-miterlimit="10"
   d="   M17.414,371.108c0.07,2.6,2.19,4.719,4.805,4.719s4.733-2.119,4.733-4.733s-2.119-4.731-4.733-4.731s-4.734,2.117-4.734,4.731"
   id="path408" />
	
		<path
   display="inline"
   fill="none"
   stroke="#E42320"
   stroke-width="0.2835"
   stroke-linecap="round"
   stroke-linejoin="round"
   stroke-miterlimit="10"
   d="   M17.414,8.768c0.07,2.602,2.19,4.721,4.805,4.721s4.733-2.119,4.733-4.732c0-2.614-2.119-4.733-4.733-4.733   s-4.734,2.119-4.734,4.733"
   id="path410" />
	
		<path
   display="inline"
   fill="none"
   stroke="#E42320"
   stroke-width="0.2835"
   stroke-linecap="round"
   stroke-linejoin="round"
   stroke-miterlimit="10"
   d="   M63.519,98.695c0.107,6.105,5.074,11.071,11.203,11.071c6.128,0,11.095-4.966,11.095-11.092c0-6.126-4.967-11.092-11.095-11.092   c-6.129,0-11.096,4.966-11.096,11.092"
   id="path412" />
	
		<path
   display="inline"
   fill="none"
   stroke="#E42320"
   stroke-width="0.2835"
   stroke-linecap="round"
   stroke-linejoin="round"
   stroke-miterlimit="10"
   d="   M14.409,222.689c0.117,5.147,4.355,9.386,9.584,9.386c5.229,0,9.469-4.238,9.469-9.465c0-5.229-4.239-9.467-9.469-9.467   c-5.229,0-9.467,4.238-9.467,9.467"
   id="path414" />
	
		<path
   display="inline"
   fill="none"
   stroke="#E42320"
   stroke-width="0.2835"
   stroke-linecap="round"
   stroke-linejoin="round"
   stroke-miterlimit="10"
   d="   M52.871,222.689c0.118,5.147,4.357,9.386,9.585,9.386c5.231,0,9.47-4.238,9.47-9.465c0-5.229-4.238-9.467-9.47-9.467   c-5.228,0-9.467,4.238-9.467,9.467"
   id="path416" />
	
		<path
   display="inline"
   fill="none"
   stroke="#E42320"
   stroke-width="0.2835"
   stroke-linecap="round"
   stroke-linejoin="round"
   stroke-miterlimit="10"
   d="   M103.108,193.381c0.03,6.072,4.999,11.038,11.126,11.038c6.128,0,11.097-4.966,11.097-11.093c0-6.126-4.969-11.092-11.097-11.092   c-6.127,0-11.096,4.966-11.096,11.092"
   id="path418" />
	
		<path
   display="inline"
   fill="none"
   stroke="#E42320"
   stroke-width="0.2835"
   stroke-linecap="round"
   stroke-linejoin="round"
   stroke-miterlimit="10"
   d="   M67.153,70.389c0.024,4.056,3.4,7.433,7.568,7.433c4.166,0,7.545-3.377,7.545-7.542c0-4.166-3.379-7.542-7.545-7.542   c-4.168,0-7.544,3.377-7.544,7.542"
   id="path420" />
	
		<path
   display="inline"
   fill="none"
   stroke="#E42320"
   stroke-width="0.2835"
   stroke-linecap="round"
   stroke-linejoin="round"
   stroke-miterlimit="10"
   d="   M16.298,189.875c0.015,4.149,3.459,7.593,7.707,7.593c4.25,0,7.693-3.443,7.693-7.691c0-4.247-3.443-7.69-7.693-7.69   c-4.248,0-7.692,3.443-7.692,7.69"
   id="path422" />
	
		<path
   display="inline"
   fill="none"
   stroke="#E42320"
   stroke-width="0.2835"
   stroke-linecap="round"
   stroke-linejoin="round"
   stroke-miterlimit="10"
   d="   M19.294,170.962c0.113,2.416,2.167,4.469,4.699,4.469c2.534,0,4.587-2.053,4.587-4.585c0-2.532-2.053-4.584-4.587-4.584   c-2.533,0-4.586,2.053-4.586,4.584"
   id="path424" />
	
		<path
   display="inline"
   fill="none"
   stroke="#E42320"
   stroke-width="0.2835"
   stroke-linecap="round"
   stroke-linejoin="round"
   stroke-miterlimit="10"
   d="   M11.401,285.438c0.018,5.186,4.323,9.491,9.632,9.491c5.312,0,9.616-4.306,9.616-9.613c0-5.31-4.304-9.613-9.616-9.613   c-5.31,0-9.614,4.304-9.614,9.613"
   id="path426" />
	
		<path
   display="inline"
   fill="none"
   stroke="#E42320"
   stroke-width="0.2835"
   stroke-linecap="round"
   stroke-linejoin="round"
   stroke-miterlimit="10"
   d="   M47.106,285.438c0.113,5.186,4.417,9.491,9.729,9.491c5.31,0,9.615-4.306,9.615-9.613c0-5.31-4.305-9.613-9.615-9.613   c-5.312,0-9.616,4.304-9.616,9.613"
   id="path428" />
	
		<path
   display="inline"
   fill="none"
   stroke="#E42320"
   stroke-width="0.2835"
   stroke-linecap="round"
   stroke-linejoin="round"
   stroke-miterlimit="10"
   d="   M82.938,285.438c0.082,5.186,4.388,9.491,9.696,9.491c5.313,0,9.617-4.306,9.617-9.613c0-5.31-4.304-9.613-9.617-9.613   c-5.309,0-9.614,4.304-9.614,9.613"
   id="path430" />
	
		<path
   display="inline"
   fill="none"
   stroke="#E42320"
   stroke-width="0.2835"
   stroke-linecap="round"
   stroke-linejoin="round"
   stroke-miterlimit="10"
   d="   M118.769,285.438c0.052,5.186,4.357,9.491,9.668,9.491s9.616-4.306,9.616-9.613c0-5.31-4.306-9.613-9.616-9.613   s-9.616,4.304-9.616,9.613"
   id="path432" />
	
		<path
   display="inline"
   fill="none"
   stroke="#E42320"
   stroke-width="0.2835"
   stroke-linecap="round"
   stroke-linejoin="round"
   stroke-miterlimit="10"
   d="   M11.401,328.525c0.018,5.285,4.323,9.588,9.632,9.588c5.312,0,9.616-4.303,9.616-9.612c0-5.309-4.304-9.611-9.616-9.611   c-5.31,0-9.614,4.303-9.614,9.611"
   id="path434" />
	
		<path
   display="inline"
   fill="none"
   stroke="#E42320"
   stroke-width="0.2835"
   stroke-linecap="round"
   stroke-linejoin="round"
   stroke-miterlimit="10"
   d="   M47.106,328.525c0.113,5.285,4.417,9.588,9.729,9.588c5.31,0,9.615-4.303,9.615-9.612c0-5.309-4.305-9.611-9.615-9.611   c-5.312,0-9.616,4.303-9.616,9.611"
   id="path436" />
	<g
   display="inline"
   id="g442">
		
			<path
   fill="none"
   stroke="#E42320"
   stroke-width="0.2835"
   stroke-linecap="round"
   stroke-linejoin="round"
   stroke-miterlimit="10"
   d="    M82.938,328.525c0.082,5.285,4.388,9.588,9.696,9.588c5.313,0,9.617-4.303,9.617-9.612c0-5.309-4.304-9.611-9.617-9.611    c-5.309,0-9.614,4.303-9.614,9.611"
   id="path438" />
		
			<path
   fill="none"
   stroke="#E42320"
   stroke-width="0.2835"
   stroke-linecap="round"
   stroke-linejoin="round"
   stroke-miterlimit="10"
   d="    M118.769,328.525c0.052,5.285,4.357,9.588,9.668,9.588s9.616-4.303,9.616-9.612c0-5.309-4.306-9.611-9.616-9.611    s-9.616,4.303-9.616,9.611"
   id="path440" />
	</g>
	
		<path
   display="inline"
   fill="none"
   stroke="#E42320"
   stroke-width="0.2835"
   stroke-linecap="round"
   stroke-linejoin="round"
   stroke-miterlimit="10"
   d="   M122.653,8.768c0.043,2.602,2.164,4.721,4.777,4.721c2.615,0,4.735-2.119,4.735-4.732c0-2.614-2.12-4.733-4.735-4.733   c-2.613,0-4.734,2.119-4.734,4.733"
   id="path444" />
	
		<path
   display="inline"
   fill="none"
   stroke="#E42320"
   stroke-width="0.2835"
   stroke-linecap="round"
   stroke-linejoin="round"
   stroke-miterlimit="10"
   d="   M122.653,371.108c0.043,2.6,2.164,4.719,4.777,4.719c2.615,0,4.735-2.119,4.735-4.733s-2.12-4.731-4.735-4.731   c-2.613,0-4.734,2.117-4.734,4.731"
   id="path446" />
	
		<rect
   display="inline"
   fill="none"
   stroke="#E42320"
   stroke-width="0.2835"
   stroke-linecap="round"
   stroke-linejoin="round"
   stroke-miterlimit="10"
   width="149.635"
   height="380"
   id="rect448" />
</g>
<g
   id="widgets"
   display="none">
	
		<rect
   id="PJ301_6_"
   x="9.761"
   y="273.818"
   display="inline"
   fill="none"
   stroke="#000000"
   stroke-miterlimit="10"
   width="22.992"
   height="22.996" />
	
		<rect
   id="PJ301_1_"
   x="45.283"
   y="273.818"
   display="inline"
   fill="none"
   stroke="#000000"
   stroke-miterlimit="10"
   width="22.992"
   height="22.996" />
	
		<rect
   id="PJ301_2_"
   x="81.199"
   y="273.818"
   display="inline"
   fill="none"
   stroke="#000000"
   stroke-miterlimit="10"
   width="22.992"
   height="22.996" />
	
		<rect
   id="PJ301_3_"
   x="116.914"
   y="273.818"
   display="inline"
   fill="none"
   stroke="#000000"
   stroke-miterlimit="10"
   width="22.992"
   height="22.996" />
	
		<rect
   id="PJ301_8_"
   x="9.761"
   y="317.004"
   display="inline"
   fill="none"
   stroke="#000000"
   stroke-miterlimit="10"
   width="22.992"
   height="22.996" />
	
		<rect
   id="PJ301_7_"
   x="45.283"
   y="317.004"
   display="inline"
   fill="none"
   stroke="#000000"
   stroke-miterlimit="10"
   width="22.992"
   height="22.996" />
	
		<rect
   id="PJ301_5_"
   x="81.199"
   y="317.004"
   display="inline"
   fill="none"
   stroke="#000000"
   stroke-miterlimit="10"
   width="22.992"
   height="22.996" />
	
		<rect
   id="PJ301_4_"
   x="116.914"
   y="317.004"
   display="inline"
   fill="none"
   stroke="#000000"
   stroke-miterlimit="10"
   width="22.992"
   height="22.996" />
	
		<rect
   id="TrimPot_1_"
   x="14.938"
   y="213.449"
   display="inline"
   fill="none"
   stroke="#000000"
   stroke-miterlimit="10"
   width="17.994"
   height="17.997" />
	
		<rect
   id="TrimPot_2_"
   x="53.432"
   y="213.449"
   display="inline"
   fill="none"
   stroke="#000000"
   stroke-miterlimit="10"
   width="17.994"
   height="17.997" />
	
		<rect
   id="Rogan6"
   x="29.668"
   y="53.675"
   display="inline"
   fill="none"
   stroke="#000000"
   stroke-miterlimit="10"
   width="90"
   height="90" />
	
		<rect
   id="Rogan_5_"
   x="94.726"
   y="173.328"
   display="inline"
   fill="none"
   stroke="#000000"
   stroke-miterlimit="10"
   width="38.987"
   height="39.996" />
	
		<rect
   id="TL1105_2_"
   x="15.999"
   y="181.781"
   display="inline"
   fill="none"
   stroke="#000000"
   stroke-miterlimit="10"
   width="16"
   height="15.999" />
	
		<rect
   id="SmallLight_1_"
   x="20.499"
   y="167.347"
   display="inline"
   fill="none"
   stroke="#000000"
   stroke-miterlimit="10"
   width="7"
   height="7" />
</g>
<rect
   style="fill:#e6e6e6;fill-opacity:1;stroke:#e6e6e6;stroke-opacity:1"
   id="rect474"
   width="74.616783"
   height="10.504304"
   x="38.032825"
   y="8.7271748"
   ry="0.50082898" /><g
   aria-label="Wasp"
   style="font-style:normal;font-variant:normal;font-weight:normal;font-stretch:normal;font-size:21.33333397px;line-height:1.25;font-family:'Segoe Print';-inkscape-font-specification:'Segoe Print';letter-spacing:0px;word-spacing:0px;fill:#1a1a1a;fill-opacity:1;stroke:none"
   id="text478"
   transform="matrix(1,0,0,1.2132285,1.789834,4.6890295)"><path
     d="m 53.040416,9.7241329 q -0.354167,0.4791671 -1.302084,2.1562501 -3.947916,7.104167 -4.416666,7.104167 -0.708334,0 -1.145834,-0.833333 -0.4375,-0.822917 -1.208333,-4.385417 -0.760417,-3.5625 -1.291667,-6.8125005 -0.197916,-0.9166667 -0.385417,-1.5 -0.260416,-0.7812501 -0.260416,-1.1666667 0,-0.40625 0.302083,-0.7291667 0.3125,-0.3333334 0.6875,-0.3333334 0.458334,0 0.791667,0.7083334 0.34375,0.6979167 0.760417,3.4062501 0.895833,5.8854168 1.833333,8.8958338 2.604167,-4.15625 3.239583,-5.28125 0.635417,-1.1354171 1.791667,-3.6562505 0.302083,-0.5520833 0.833333,-0.5520833 0.229167,0 0.520834,0.4583333 0.291666,0.4479167 1.020833,2.4895834 1.8125,5.0520831 2.46875,6.0625001 3.666667,-6.0625001 4.260417,-12.5729169 0,-0.1458334 0.270833,-0.3958334 0.28125,-0.2604167 0.53125,-0.2604167 0.833334,0 0.833334,1.0625001 0,1.1041667 -0.5625,3.3125001 -0.552084,2.1979167 -1.333334,4.0624998 -0.770833,1.854167 -2.604166,5.65625 -0.302084,0.614584 -0.510417,1.09375 -0.104167,0.197917 -0.40625,0.333334 -0.291667,0.135417 -0.46875,0.135417 -0.447917,0 -0.90625,-0.489584 Q 55.925833,17.2033 54.988333,14.8283 54.050832,12.442883 53.634166,11.244966 53.342499,10.42205 53.040416,9.7241329 Z"
     id="path480"
     inkscape:connector-curvature="0" /><path
     d="m 71.269583,14.17205 q -1.458333,1.958333 -2.885417,2.9375 -1.427083,0.979167 -2.614583,0.979167 -0.802084,0 -1.385417,-0.677084 -0.583333,-0.677083 -0.583333,-1.739583 0,-2.739584 2.447917,-5.8958337 2.447916,-3.1666668 4.864583,-3.1666668 0.875,0 1.302083,1 0.135417,0.3333334 0.427084,0.3333334 0.833333,0 0.833333,0.6458333 0,0.3229167 -0.104167,0.8854167 -0.5625,3.0729171 -0.5625,4.3333331 0,2.520834 0.958334,3.020834 0.458333,0.25 0.458333,0.614583 0,0.322917 -0.447917,0.645834 -0.447916,0.333333 -0.864583,0.333333 -0.802083,0 -1.322917,-1.104167 -0.520833,-1.104167 -0.520833,-3.145833 z M 70.634166,8.3074662 q -1.375,0 -3.197916,2.5833338 -1.822917,2.572916 -1.822917,4.270833 0,1.197917 0.791667,1.197917 1.145833,0 3.177083,-2.3125 2.03125,-2.3125 2.03125,-4.2500004 0,-1.4895834 -0.979167,-1.4895834 z"
     id="path482"
     inkscape:connector-curvature="0" /><path
     d="m 82.029999,15.5783 q 0,-0.677084 -1.666667,-1.541667 -2.114583,-1.083333 -2.864583,-1.729167 -0.739584,-0.65625 -0.739584,-1.458333 0,-2.0729168 2.072917,-3.4375001 2.083334,-1.3645834 3.395834,-1.3645834 0.84375,0 1.21875,0.2916667 0.385416,0.2916666 0.385416,1.0104167 0,0.3229166 -0.28125,0.5520833 -0.270833,0.2291667 -0.427083,0.2291667 -0.114583,0 -0.447917,-0.15625 -0.333333,-0.1458334 -0.4375,-0.1458334 -0.520833,0 -2.114583,0.7604167 -1.59375,0.7604167 -1.59375,1.7187498 0,0.583334 0.5625,1.0625 0.5625,0.46875 2.020833,1.15625 1.177084,0.5625 1.875,1.208334 0.708334,0.635416 0.708334,1.5 0,1.59375 -2.197917,2.5 -2.197917,0.895833 -4.197917,0.895833 -1.6875,0 -1.6875,-1.145833 0,-0.395834 0.375,-0.583334 0.385417,-0.1875 0.770833,-0.1875 0.15625,0 0.593751,0.104167 0.427083,0.104167 0.5625,0.104167 1.15625,0 2.479166,-0.385417 1.322917,-0.385417 1.635417,-0.958333 z"
     id="path484"
     inkscape:connector-curvature="0" /><path
     d="m 87.8425,16.755383 q -0.510417,1.875 -0.958333,5.260417 L 86.5925,23.98455 q -0.07292,0.416667 -0.385417,0.822917 -0.3125,0.416666 -0.572916,0.416666 -0.322917,0 -0.739584,-0.333333 -0.40625,-0.322917 -0.40625,-0.520833 0,-0.572917 0.260417,-1.583334 Q 86.655,15.088716 86.655,9.2657996 l -0.01042,-0.875 q -0.02083,-1.1250001 0.395834,-1.6354168 0.416666,-0.5104166 0.958333,-0.5104166 0.25,0 0.479167,0.3958333 0.229167,0.3854167 0.229167,1.1041667 0,1.0104167 -0.208334,2.4479168 -0.270833,1.8125 -0.28125,2.083333 1.552084,-2.7083331 3.291667,-4.2291665 1.739583,-1.5208333 3.229167,-1.5208333 1.052083,0 1.770833,0.7916667 0.729167,0.78125 0.729167,1.9479167 0,3.3958334 -2.604167,6.1666664 Q 92.03,18.2033 89.56125,18.2033 q -0.614583,0 -0.979166,-0.3125 -0.354167,-0.3125 -0.739584,-1.135417 z m 6.46875,-8.3854168 q -1.46875,0 -3.635416,2.7499998 -2.166667,2.75 -2.166667,4.28125 0,0.375 0.427083,0.729167 0.427084,0.354167 1.083334,0.354167 1.489583,0 3.427083,-2.197917 1.9375,-2.208333 1.9375,-4.3333334 0,-0.7604167 -0.3125,-1.1666667 Q 94.769584,8.3699662 94.31125,8.3699662 Z"
     id="path486"
     inkscape:connector-curvature="0" /></g></svg>