<?xml version="1.0" encoding="UTF-8" standalone="no"?>
<!-- Generator: Adobe Illustrator 16.0.3, SVG Export Plug-In . SVG Version: 6.00 Build 0)  -->

<svg
   version="1.1"
   x="0px"
   y="0px"
   width="150px"
   height="380px"
   viewBox="0 0 150 380"
   enable-background="new 0 0 150 380"
   xml:space="preserve"
   id="svg466"
   sodipodi:docname="Wasp.svg"
   inkscape:version="1.3 (0e150ed6c4, 2023-07-21)"
   xmlns:inkscape="http://www.inkscape.org/namespaces/inkscape"
   xmlns:sodipodi="http://sodipodi.sourceforge.net/DTD/sodipodi-0.dtd"
   xmlns="http://www.w3.org/2000/svg"
   xmlns:svg="http://www.w3.org/2000/svg"
   xmlns:rdf="http://www.w3.org/1999/02/22-rdf-syntax-ns#"
   xmlns:cc="http://creativecommons.org/ns#"
   xmlns:dc="http://purl.org/dc/elements/1.1/"><metadata
   id="metadata472"><rdf:RDF><cc:Work
       rdf:about=""><dc:format>image/svg+xml</dc:format><dc:type
         rdf:resource="http://purl.org/dc/dcmitype/StillImage" /></cc:Work></rdf:RDF></metadata><defs
   id="defs470">&#10;	&#10;	&#10;	&#10;	&#10;	&#10;	&#10;	&#10;	&#10;	&#10;	&#10;	&#10;	&#10;	&#10;	&#10;	&#10;	&#10;	&#10;	&#10;	&#10;	&#10;	&#10;	&#10;	&#10;	&#10;	&#10;	&#10;	&#10;	&#10;	&#10;	&#10;	&#10;	&#10;	&#10;	&#10;	&#10;	&#10;	&#10;	&#10;</defs><sodipodi:namedview
   pagecolor="#ffffff"
   bordercolor="#666666"
   borderopacity="1"
   objecttolerance="10"
   gridtolerance="10"
   guidetolerance="10"
   inkscape:pageopacity="0"
   inkscape:pageshadow="2"
   inkscape:window-width="1366"
   inkscape:window-height="715"
   id="namedview468"
   showgrid="true"
   inkscape:zoom="6.5152548"
   inkscape:cx="77.203427"
   inkscape:cy="26.322839"
   inkscape:window-x="-8"
   inkscape:window-y="-8"
   inkscape:window-maximized="1"
   inkscape:current-layer="svg466"
   inkscape:showpageshadow="2"
   inkscape:pagecheckerboard="0"
   inkscape:deskcolor="#d1d1d1"><inkscape:grid
     id="grid1"
     units="px"
     originx="0"
     originy="0"
     spacingx="1"
     spacingy="1"
     empcolor="#3f3fff"
     empopacity="0.25098039"
     color="#3f3fff"
     opacity="0.1254902"
     empspacing="5"
     dotted="false"
     gridanglex="30"
     gridanglez="30"
     visible="true" /></sodipodi:namedview>&#10;<rect
   id="background"
   fill="#e6e6e6"
   width="150"
   height="380"
   x="0"
   y="0" /><g
   id="SvgjsG1806"
   featurekey="symbolFeature-0"
   transform="matrix(1.9102194,0,0,5.5310323,-18.558563,-105.16752)"
   fill="#3dbaff"><g
     id="g4"><path
       fill="#3dbaff"
       d="m 84.341,13.467 c -26.908,1.188 -36.266,19.399 -37.689,23.676 0,0 8.551,14.26 7.156,17.894 0.839,-2.188 1.607,-4.048 2.348,-5.656 -0.181,-0.613 -0.449,-1.584 -0.719,-2.78 -0.47,-2.089 -0.941,-4.864 -0.942,-7.636 0,-1.31 0.106,-2.62 0.37,-3.858 0.141,-0.656 0.325,-1.292 0.565,-1.897 -0.637,-0.572 -0.729,-1.548 -0.194,-2.233 0.558,-0.716 1.593,-0.844 2.309,-0.285 0.716,0.559 0.844,1.594 0.284,2.31 -0.394,0.505 -1.025,0.717 -1.613,0.601 -0.205,0.533 -0.369,1.099 -0.495,1.688 -0.249,1.163 -0.351,2.413 -0.351,3.676 0,2.589 0.432,5.225 0.877,7.25 0.164,0.75 0.332,1.417 0.479,1.964 2.4,-4.888 4.628,-7.293 8.276,-10.049 l -0.016,-0.015 0.298,-0.319 0.003,-0.003 0.011,-0.01 c 0.009,-0.011 0.021,-0.023 0.039,-0.044 0.034,-0.038 0.087,-0.095 0.153,-0.169 0.134,-0.15 0.328,-0.373 0.57,-0.66 0.485,-0.574 1.158,-1.402 1.908,-2.421 1.245,-1.692 2.704,-3.909 3.865,-6.339 -0.534,-0.434 -0.756,-1.176 -0.501,-1.855 0.321,-0.851 1.27,-1.279 2.119,-0.959 0.852,0.32 1.282,1.269 0.96,2.119 -0.276,0.737 -1.026,1.158 -1.776,1.049 -1.197,2.512 -2.689,4.777 -3.962,6.505 -0.67,0.912 -1.279,1.671 -1.755,2.24 v 0.002 c -1.321,2.63 -2.892,5.002 -4.365,7.919 0.573,-0.061 1.28,-0.156 2.066,-0.3 2.107,-0.388 4.807,-1.143 7.152,-2.579 1.115,-0.683 2.151,-1.517 3.012,-2.536 -0.389,-0.49 -0.482,-1.183 -0.18,-1.777 0.415,-0.81 1.405,-1.131 2.215,-0.716 0.809,0.413 1.129,1.405 0.716,2.213 -0.385,0.751 -1.266,1.082 -2.039,0.793 -0.941,1.128 -2.068,2.037 -3.267,2.77 -1.656,1.012 -3.45,1.694 -5.104,2.153 -2.064,0.573 -3.916,0.807 -5.024,0.9 v 10e-4 C 59.984,50.528 58.151,56.299 57.671,65.886 57.951,60.347 78.907,51.8 78.907,51.8 86.226,27.926 84.341,13.467 84.341,13.467 Z"
       id="path2" /><path
       fill="#3dbaff"
       d="m 18.923,19.807 c -23.563,30.705 -7.797,61.057 10.241,64.968 0,0 13.673,0.722 16.281,2.898 -6.789,-5.664 -11.151,-11.769 -13.95,-17.403 -0.491,0.049 -0.972,0.072 -1.443,0.072 -3.234,0 -6.008,-1.093 -8.205,-2.448 -1.476,-0.911 -2.695,-1.944 -3.627,-2.854 -0.682,0.366 -1.549,0.207 -2.053,-0.416 -0.572,-0.705 -0.463,-1.743 0.243,-2.314 0.706,-0.571 1.743,-0.462 2.314,0.245 0.447,0.553 0.477,1.306 0.132,1.881 0.893,0.871 2.055,1.853 3.451,2.713 2.097,1.296 4.711,2.319 7.745,2.319 0.339,0 0.684,-0.013 1.034,-0.039 -1.863,-3.936 -2.971,-7.612 -3.626,-10.717 -0.585,-0.167 -1.536,-0.471 -2.658,-0.949 -1.867,-0.797 -4.214,-2.077 -6.135,-4.039 -0.918,-0.938 -1.737,-2.032 -2.348,-3.303 -0.815,0.092 -1.59,-0.439 -1.784,-1.257 -0.208,-0.884 0.34,-1.771 1.224,-1.979 0.884,-0.208 1.771,0.338 1.979,1.223 0.155,0.653 -0.104,1.308 -0.606,1.689 0.551,1.125 1.28,2.104 2.104,2.959 1.177,1.218 2.549,2.173 3.867,2.905 1.64,0.913 3.194,1.478 4.161,1.78 -0.125,-2.99 -0.408,-5.313 -0.726,-6.75 -0.046,-0.205 -0.086,-0.42 -0.117,-0.657 -0.073,-0.546 -0.105,-1.202 -0.105,-2.187 0,-1.965 0.129,-5.25 0.365,-11.57 -0.688,-0.219 -1.176,-0.874 -1.148,-1.63 0.034,-0.907 0.796,-1.616 1.705,-1.583 0.907,0.034 1.616,0.796 1.583,1.705 -0.028,0.757 -0.562,1.375 -1.266,1.54 -0.235,6.32 -0.363,9.61 -0.363,11.538 0,0.965 0.032,1.585 0.098,2.071 0.048,0.36 0.113,0.653 0.2,0.973 0.001,0.004 0.003,0.007 0.003,0.01 0.349,1.123 0.828,3.727 4.873,10.771 0.019,-0.02 0.038,-0.038 0.058,-0.058 0.479,-0.485 1.129,-1.244 1.797,-2.336 1.191,-1.943 2.44,-4.936 2.861,-9.3 -0.661,-0.229 -1.126,-0.868 -1.104,-1.603 0.027,-0.909 0.787,-1.622 1.695,-1.595 0.908,0.027 1.622,0.787 1.595,1.694 -0.025,0.776 -0.581,1.411 -1.309,1.561 -0.433,4.507 -1.73,7.644 -2.991,9.702 -0.826,1.346 -1.633,2.229 -2.17,2.735 1.772,3.259 3.97,6.82 6.577,10.174 0.472,-0.485 1.098,-1.228 1.74,-2.275 1.191,-1.944 2.439,-4.935 2.861,-9.3 -0.663,-0.229 -1.126,-0.868 -1.104,-1.604 0.026,-0.907 0.786,-1.622 1.694,-1.595 0.908,0.028 1.622,0.787 1.594,1.693 -0.023,0.776 -0.581,1.412 -1.309,1.563 -0.433,4.506 -1.729,7.644 -2.989,9.698 -0.716,1.166 -1.417,1.984 -1.941,2.513 2.752,3.437 5.941,6.611 9.542,8.954 1.569,-5.041 1.904,-9.865 1.904,-9.865 3.6,-40.543 -32.444,-52.921 -32.444,-52.921 z"
       id="path3-8" /><path
       fill="#3dbaff"
       d="m 57.288,73.593 c 0,0 -1.847,4.824 -2.855,10.158 4.126,-1.544 8.255,-3.825 11.972,-6.185 l -0.103,0.025 c -0.006,-0.028 -0.159,-0.679 -0.159,-1.759 0,-1.024 0.139,-2.437 0.673,-4.06 0.407,-1.232 1.042,-2.584 2.019,-3.979 -0.47,-0.621 -0.442,-1.508 0.102,-2.102 0.614,-0.669 1.655,-0.715 2.325,-0.1 0.669,0.613 0.714,1.654 0.101,2.324 -0.479,0.522 -1.217,0.663 -1.835,0.411 -0.91,1.311 -1.5,2.572 -1.879,3.719 -0.502,1.521 -0.63,2.839 -0.63,3.785 0,0.583 0.047,1.025 0.087,1.286 3.746,-2.419 9.367,-6.709 9.367,-6.709 0.942,-0.777 0.963,-1.261 2.688,-2.866 1.439,-1.339 3.419,-2.929 5.846,-4.26 -0.15,-0.747 0.236,-1.522 0.963,-1.834 0.834,-0.36 1.803,0.026 2.162,0.858 0.359,0.836 -0.024,1.803 -0.859,2.163 -0.663,0.284 -1.411,0.1 -1.869,-0.406 -2.29,1.261 -4.179,2.764 -5.566,4.047 -0.359,0.331 -0.687,0.646 -0.977,0.94 -1.416,1.602 -3.851,4.38 -7.429,7.842 0.415,0.093 0.992,0.178 1.699,0.178 0.999,0 2.257,-0.166 3.712,-0.72 1.095,-0.417 2.304,-1.052 3.594,-2.008 -0.271,-0.622 -0.139,-1.372 0.386,-1.861 0.665,-0.619 1.706,-0.583 2.326,0.082 0.619,0.664 0.583,1.705 -0.082,2.325 -0.583,0.543 -1.455,0.581 -2.079,0.134 -1.361,1.013 -2.651,1.696 -3.835,2.146 -1.556,0.59 -2.926,0.776 -4.021,0.776 -1.144,0 -1.99,-0.2 -2.44,-0.343 -3.146,2.993 -7.111,6.447 -11.975,10.068 0.708,-0.036 1.428,-0.102 2.15,-0.207 C 89.875,86.465 93.095,58.622 93.095,58.622 72.151,54.671 63.543,61.018 57.288,73.593 Z"
       id="path4" /></g></g><g
   id="g3"
   transform="matrix(0.29218258,0,0,0.40601179,-5.1151007,-7.1286931)"><g
     id="SvgjsG1537"
     featurekey="symbolContainer"
     transform="translate(20,20)"
     fill="#252a34"><rect
       width="120"
       height="74"
       rx="8"
       id="rect1"
       x="0"
       y="0" /></g><g
     id="SvgjsG1538"
     featurekey="symbolFeature-0"
     transform="matrix(0.88888889,0,0,0.88888889,35.555556,12.517334)"
     fill="#eaeaea"><path
       d="m 38.481,69.952 -1.83,3.17 H 63.35 l -1.83,-3.17 H 38.481 M 63.35,26.878 H 36.651 l 1.83,3.17 h 23.038 l 1.831,-3.17 M 40.311,33.218 30.622,50 40.311,66.782 H 59.689 L 69.378,50 59.689,33.218 H 40.311 M 35.736,74.707 21.471,50 35.735,25.293 H 64.264 L 78.529,50 64.265,74.707 H 35.736"
       style="clip-rule:evenodd;fill-rule:evenodd"
       id="path1" /><polyline
       points="77.614,35.736 82.189,27.811 95,50 82.189,72.189 77.614,64.264 85.85,50 77.614,35.736 "
       style="clip-rule:evenodd;fill-rule:evenodd"
       id="polyline1" /><polyline
       points="17.811,72.189 5,50 17.811,27.811 22.386,35.736 14.151,50 22.386,64.264 17.811,72.189 "
       style="clip-rule:evenodd;fill-rule:evenodd"
       id="polyline2" /></g></g><g
   id="g5">&#10;		<path
   fill="#c6c6c5"
   d="M 106.008,51.563 C 97.955,46.196 88.597,42.978 78.944,42.257 l 0.077,-1.041 c 9.833,0.735 19.364,4.013 27.565,9.479 z"
   id="path3" />&#10;	</g><g
   id="g9">&#10;		<path
   fill="#c6c6c5"
   d="m 126.074,123.561 c -0.256,-0.129 -0.57,-0.023 -0.699,0.235 -4.35,8.763 -10.921,16.229 -19.021,21.72 0.224,0.268 0.413,0.561 0.575,0.869 8.255,-5.592 14.949,-13.198 19.381,-22.126 0.128,-0.257 0.022,-0.57 -0.236,-0.698 z"
   id="path7" />&#10;	</g><g
   id="g13">&#10;		<path
   fill="#c6c6c5"
   d="m 128.968,116.901 c -0.053,0 -0.108,-0.008 -0.162,-0.025 -0.272,-0.089 -0.423,-0.384 -0.334,-0.658 1.84,-5.647 2.772,-11.549 2.772,-17.543 0,-3.547 -0.331,-7.103 -0.985,-10.565 -0.055,-0.283 0.132,-0.556 0.415,-0.609 0.278,-0.052 0.557,0.132 0.609,0.416 0.667,3.526 1.004,7.146 1.004,10.759 0,6.104 -0.949,12.115 -2.823,17.866 -0.072,0.22 -0.276,0.359 -0.496,0.359 z"
   id="path11" />&#10;	</g><g
   id="g17">&#10;		<path
   fill="#c6c6c5"
   d="m 128.915,81.331 c -0.22,0 -0.423,-0.139 -0.495,-0.359 -3.143,-9.546 -8.813,-18.121 -16.402,-24.795 -0.217,-0.19 -0.237,-0.52 -0.047,-0.736 0.19,-0.216 0.52,-0.238 0.735,-0.048 7.729,6.797 13.505,15.53 16.704,25.253 0.091,0.273 -0.059,0.568 -0.332,0.659 -0.055,0.018 -0.109,0.026 -0.163,0.026 z"
   id="path15" />&#10;	</g><g
   id="g21">&#10;		<path
   fill="#c6c6c5"
   d="m 43.161,51.678 -0.582,-0.866 c 8.327,-5.593 18.018,-8.918 28.027,-9.615 l 0.073,1.041 c -9.828,0.684 -19.344,3.949 -27.518,9.44 z"
   id="path19" />&#10;	</g><g
   id="g25">&#10;		<path
   fill="#c6c6c5"
   d="m 21.02,80.667 -0.988,-0.333 c 3.163,-9.429 8.774,-17.938 16.225,-24.607 l 0.695,0.777 C 29.634,63.054 24.126,71.409 21.02,80.667 Z"
   id="path23" />&#10;	</g><g
   id="g29">&#10;		<path
   fill="#c6c6c5"
   d="m 20.214,117.558 c -2.101,-6.059 -3.166,-12.412 -3.166,-18.883 0,-3.743 0.362,-7.489 1.076,-11.133 l 1.023,0.201 c -0.7,3.579 -1.055,7.256 -1.055,10.932 0,6.355 1.045,12.593 3.108,18.542 z"
   id="path27" />&#10;	</g><g
   id="g33">&#10;		<path
   fill="#c6c6c5"
   d="m 43.151,146.918 c -8.913,-5.834 -16.029,-13.994 -20.58,-23.597 l 0.943,-0.446 c 4.467,9.429 11.455,17.441 20.208,23.17 z"
   id="path31" />&#10;	</g><g
   id="g39">&#10;		<path
   fill="#d83559"
   d="M 70.739,183.862 H 37.125 c -1.627,0 -2.958,1.331 -2.958,2.957 v 5.917 c 0,1.626 1.331,2.956 2.958,2.956 h 33.614 c 1.627,0 2.958,-1.33 2.958,-2.956 v -5.917 c 0,-1.627 -1.331,-2.957 -2.958,-2.957 z m -31.702,8.887 h -1.159 v -5.939 h 1.159 z m 5.932,0 h -1.035 l -2.352,-3.645 v 3.645 h -1.159 v -5.939 h 1.034 l 2.352,3.637 v -3.637 h 1.16 z m 5.208,-4.904 h -1.552 v 4.904 h -1.159 v -4.904 h -1.552 v -1.035 h 4.263 z m 2.062,4.904 h -1.243 v -1.234 h 1.243 z m 6.793,-0.601 c -0.417,0.417 -0.927,0.651 -1.602,0.651 -0.676,0 -1.194,-0.234 -1.61,-0.651 -0.6,-0.6 -0.584,-1.343 -0.584,-2.369 0,-1.026 -0.016,-1.768 0.584,-2.369 0.417,-0.417 0.934,-0.651 1.61,-0.651 0.675,0 1.184,0.234 1.602,0.651 0.6,0.601 0.591,1.343 0.591,2.369 0,1.026 0.009,1.77 -0.591,2.369 z m 3.414,0.652 c -0.901,0 -1.585,-0.191 -2.169,-0.784 l 0.751,-0.75 c 0.376,0.375 0.884,0.499 1.434,0.499 0.684,0 1.052,-0.259 1.052,-0.733 0,-0.208 -0.058,-0.383 -0.185,-0.501 -0.116,-0.108 -0.25,-0.167 -0.525,-0.208 l -0.718,-0.1 c -0.508,-0.075 -0.883,-0.234 -1.15,-0.493 -0.284,-0.283 -0.425,-0.667 -0.425,-1.167 0,-1.06 0.783,-1.802 2.068,-1.802 0.817,0 1.41,0.201 1.918,0.693 l -0.734,0.725 c -0.375,-0.358 -0.825,-0.408 -1.217,-0.408 -0.618,0 -0.918,0.342 -0.918,0.75 0,0.15 0.051,0.309 0.175,0.425 0.117,0.109 0.31,0.201 0.55,0.234 l 0.701,0.1 c 0.542,0.075 0.884,0.225 1.135,0.458 0.317,0.301 0.458,0.735 0.458,1.261 10e-4,1.149 -0.959,1.801 -2.201,1.801 z m 4.549,-1.343 c 0.175,0.208 0.426,0.308 0.742,0.308 0.56,0 0.876,-0.334 1.001,-0.841 h 1.177 c -0.201,1.208 -1.051,1.876 -2.187,1.876 -0.633,0 -1.167,-0.218 -1.602,-0.651 -0.259,-0.257 -0.417,-0.559 -0.483,-0.893 -0.067,-0.333 -0.101,-0.825 -0.101,-1.476 0,-0.65 0.034,-1.142 0.101,-1.476 0.066,-0.342 0.224,-0.634 0.483,-0.893 0.434,-0.434 0.968,-0.651 1.602,-0.651 1.143,0 1.986,0.667 2.187,1.877 h -1.177 c -0.125,-0.509 -0.442,-0.842 -1.001,-0.842 -0.316,0 -0.566,0.1 -0.742,0.309 -0.242,0.258 -0.292,0.525 -0.292,1.676 0,1.152 0.05,1.418 0.292,1.677 z"
   id="path35" />&#10;		<path
   fill="#d83559"
   d="m 57.431,187.795 c -0.318,0 -0.584,0.124 -0.751,0.317 -0.224,0.25 -0.283,0.525 -0.283,1.667 0,1.144 0.059,1.418 0.283,1.669 0.167,0.191 0.434,0.315 0.751,0.315 0.316,0 0.575,-0.124 0.742,-0.315 0.225,-0.251 0.292,-0.526 0.292,-1.669 0,-1.142 -0.066,-1.418 -0.292,-1.667 -0.168,-0.193 -0.426,-0.317 -0.742,-0.317 z"
   id="path37" />&#10;	</g><g
   id="g53">&#10;		<path
   fill="#1d1d1b"
   d="m 102.142,221.797 v 4.905 h -1.16 v -4.905 h -1.55 v -1.035 h 4.262 v 1.035 z"
   id="path41" />&#10;		<path
   fill="#1d1d1b"
   d="m 104.639,226.702 v -5.94 h 1.159 v 5.94 z"
   id="path43" />&#10;		<path
   fill="#1d1d1b"
   d="m 111.404,226.702 v -3.462 l -1.134,2.253 h -0.784 l -1.143,-2.253 v 3.462 h -1.159 v -5.94 h 1.142 l 1.552,3.214 1.543,-3.214 h 1.143 v 5.94 z"
   id="path45" />&#10;		<path
   fill="#1d1d1b"
   d="m 116.438,226.702 h -2.485 v -5.94 h 2.385 c 1.16,0 1.836,0.652 1.836,1.669 0,0.66 -0.435,1.084 -0.733,1.227 0.358,0.167 0.816,0.542 0.816,1.335 -0.001,1.108 -0.76,1.709 -1.819,1.709 z m -0.193,-4.905 h -1.134 v 1.367 h 1.134 c 0.493,0 0.769,-0.274 0.769,-0.683 0,-0.409 -0.276,-0.684 -0.769,-0.684 z m 0.075,2.411 h -1.209 v 1.461 h 1.209 c 0.526,0 0.776,-0.335 0.776,-0.736 10e-4,-0.399 -0.249,-0.725 -0.776,-0.725 z"
   id="path47" />&#10;		<path
   fill="#1d1d1b"
   d="m 122.597,226.702 -1.16,-2.368 h -0.833 v 2.368 h -1.159 v -5.94 h 2.327 c 1.209,0 1.926,0.828 1.926,1.82 0,0.833 -0.508,1.351 -1.084,1.559 l 1.326,2.562 h -1.343 z m -0.902,-4.905 h -1.092 v 1.569 h 1.092 c 0.51,0 0.843,-0.326 0.843,-0.784 0,-0.459 -0.333,-0.785 -0.843,-0.785 z"
   id="path49" />&#10;		<path
   fill="#1d1d1b"
   d="m 124.901,226.702 v -5.94 h 3.912 v 1.035 h -2.752 v 1.395 h 2.344 v 1.032 h -2.344 v 1.445 h 2.752 v 1.033 z"
   id="path51" />&#10;	</g><rect
   x="6.4790001"
   y="351.54099"
   fill="#c6c6c5"
   width="136.679"
   height="2.0910001"
   id="rect55" /><g
   id="g241">&#10;		<path
   fill="#1d1d1b"
   d="m 55.812,163.545 -0.351,-1.052 h -2.11 l -0.358,1.052 h -1.21 l 2.161,-5.939 h 0.91 l 2.168,5.939 z m -1.385,-4.187 -0.75,2.16 h 1.476 z"
   id="path223" />&#10;		<path
   fill="#1d1d1b"
   d="m 57.759,163.545 v -5.939 h 1.16 v 4.905 h 2.693 v 1.034 z"
   id="path225" />&#10;		<path
   fill="#1d1d1b"
   d="m 66.003,162.92 c -0.459,0.466 -1.011,0.675 -1.677,0.675 -0.634,0 -1.168,-0.217 -1.602,-0.651 -0.259,-0.258 -0.418,-0.559 -0.484,-0.893 -0.066,-0.333 -0.101,-0.825 -0.101,-1.476 0,-0.65 0.035,-1.142 0.101,-1.477 0.066,-0.342 0.225,-0.633 0.484,-0.892 0.434,-0.434 0.968,-0.651 1.602,-0.651 1.351,0 2.076,0.868 2.235,1.902 h -1.167 c -0.143,-0.576 -0.493,-0.867 -1.067,-0.867 -0.31,0 -0.56,0.108 -0.743,0.317 -0.217,0.275 -0.285,0.492 -0.285,1.668 0,1.168 0.051,1.402 0.285,1.677 0.175,0.209 0.425,0.309 0.743,0.309 0.342,0 0.617,-0.109 0.825,-0.334 0.175,-0.2 0.267,-0.467 0.267,-0.792 v -0.225 h -1.092 v -0.968 h 2.243 v 0.867 c -10e-4,0.869 -0.16,1.377 -0.567,1.811 z"
   id="path227" />&#10;		<path
   fill="#1d1d1b"
   d="m 71.251,162.944 c -0.417,0.417 -0.926,0.651 -1.602,0.651 -0.676,0 -1.193,-0.233 -1.609,-0.651 -0.601,-0.6 -0.585,-1.343 -0.585,-2.369 0,-1.026 -0.016,-1.768 0.585,-2.369 0.417,-0.417 0.933,-0.651 1.609,-0.651 0.676,0 1.184,0.234 1.602,0.651 0.601,0.601 0.592,1.343 0.592,2.369 0,1.026 0.01,1.769 -0.592,2.369 z m -0.859,-4.036 c -0.166,-0.192 -0.425,-0.317 -0.742,-0.317 -0.318,0 -0.584,0.125 -0.75,0.317 -0.225,0.25 -0.284,0.526 -0.284,1.668 0,1.143 0.059,1.418 0.284,1.668 0.166,0.192 0.433,0.317 0.75,0.317 0.317,0 0.576,-0.125 0.742,-0.317 0.227,-0.25 0.292,-0.525 0.292,-1.668 0,-1.142 -0.066,-1.419 -0.292,-1.668 z"
   id="path229" />&#10;		<path
   fill="#1d1d1b"
   d="m 76.185,163.545 -1.159,-2.369 H 74.19 v 2.369 h -1.16 v -5.939 h 2.328 c 1.209,0 1.927,0.826 1.927,1.818 0,0.834 -0.51,1.352 -1.084,1.56 l 1.326,2.562 h -1.342 z m -0.902,-4.904 H 74.19 v 1.568 h 1.093 c 0.508,0 0.843,-0.325 0.843,-0.785 0,-0.458 -0.334,-0.783 -0.843,-0.783 z"
   id="path231" />&#10;		<path
   fill="#1d1d1b"
   d="m 78.489,163.545 v -5.939 h 1.159 v 5.939 z"
   id="path233" />&#10;		<path
   fill="#1d1d1b"
   d="m 83.304,158.641 v 4.905 h -1.159 v -4.905 h -1.553 v -1.035 h 4.263 v 1.035 z"
   id="path235" />&#10;		<path
   fill="#1d1d1b"
   d="m 88.971,163.545 v -2.486 h -2.012 v 2.486 H 85.8 v -5.939 h 1.159 v 2.428 h 2.012 v -2.428 h 1.159 v 5.939 z"
   id="path237" />&#10;		<path
   fill="#1d1d1b"
   d="m 95.737,163.545 v -3.462 l -1.134,2.252 h -0.784 l -1.143,-2.252 v 3.462 h -1.159 v -5.939 h 1.143 l 1.551,3.212 1.544,-3.212 h 1.142 v 5.939 z"
   id="path239" />&#10;	</g><path
   fill="none"
   stroke="#af2053"
   stroke-width="0.7087"
   stroke-linecap="round"
   stroke-miterlimit="10"
   d="m 14.32,231.616 c -2.284,-2.388 -3.686,-5.626 -3.686,-9.191 0,-7.346 5.954,-13.301 13.301,-13.301 7.346,0 13.301,5.955 13.301,13.301 0,3.563 -1.399,6.8 -3.682,9.188"
   id="path243" /><path
   fill="none"
   stroke="#287c7d"
   stroke-width="0.7087"
   stroke-linecap="round"
   stroke-miterlimit="10"
   d="m 52.813,231.616 c -2.284,-2.388 -3.686,-5.626 -3.686,-9.191 0,-7.346 5.954,-13.301 13.301,-13.301 7.345,0 13.301,5.955 13.301,13.301 0,3.563 -1.4,6.8 -3.682,9.188"
   id="path245" /><path
   fill="#d83559"
   d="m 14.32,231.616 c 0,0 -0.164,-0.18 -0.471,-0.516 -0.319,-0.324 -0.728,-0.854 -1.216,-1.553 -0.453,-0.719 -0.996,-1.615 -1.391,-2.744 -0.417,-1.117 -0.754,-2.443 -0.817,-3.925 -0.079,-1.469 0.062,-3.093 0.562,-4.739 0.494,-1.636 1.345,-3.274 2.548,-4.723 1.199,-1.449 2.75,-2.702 4.54,-3.589 1.786,-0.888 3.811,-1.396 5.857,-1.444 0.562,0.019 0.983,0.017 1.499,0.049 0.517,0.073 1.055,0.112 1.558,0.223 1.001,0.212 1.991,0.501 2.917,0.923 1.865,0.817 3.521,2.031 4.834,3.48 1.318,1.444 2.291,3.121 2.893,4.826 0.607,1.718 0.839,3.415 0.827,5.043 -0.018,0.375 0.002,0.693 -0.047,1.093 -0.049,0.396 -0.097,0.782 -0.144,1.159 -0.155,0.717 -0.273,1.397 -0.5,2.011 -0.375,1.251 -0.922,2.26 -1.387,3.073 -0.499,0.794 -0.927,1.399 -1.263,1.776 -0.324,0.387 -0.497,0.593 -0.497,0.593 -0.524,0.628 -1.457,0.709 -2.083,0.186 -0.625,-0.525 -0.709,-1.457 -0.185,-2.084 0.012,-0.015 0.025,-0.029 0.039,-0.045 l 0.092,-0.1 c 0,0 0.146,-0.159 0.418,-0.457 0.288,-0.287 0.65,-0.76 1.087,-1.379 0.401,-0.641 0.892,-1.433 1.242,-2.438 0.214,-0.486 0.329,-1.049 0.488,-1.615 0.05,-0.279 0.101,-0.566 0.154,-0.86 0.059,-0.289 0.06,-0.687 0.095,-1.035 0.069,-1.275 -0.05,-2.755 -0.491,-4.205 -0.437,-1.459 -1.192,-2.922 -2.264,-4.218 -1.069,-1.296 -2.452,-2.421 -4.049,-3.216 -0.792,-0.409 -1.649,-0.7 -2.526,-0.933 -0.435,-0.118 -0.866,-0.165 -1.303,-0.257 -0.448,-0.053 -0.999,-0.077 -1.404,-0.114 -1.835,-0.045 -3.681,0.324 -5.349,1.058 -1.671,0.728 -3.159,1.813 -4.341,3.109 -1.186,1.296 -2.062,2.797 -2.604,4.325 -0.547,1.524 -0.757,3.075 -0.752,4.51 -0.008,1.432 0.258,2.738 0.613,3.849 0.333,1.125 0.826,2.031 1.24,2.765 0.449,0.714 0.831,1.262 1.135,1.602 0.291,0.349 0.446,0.536 0.446,0.536 z"
   id="path247" /><path
   fill="#0094a0"
   d="m 52.783,231.616 c 0,0 -0.164,-0.18 -0.471,-0.516 -0.319,-0.324 -0.729,-0.854 -1.216,-1.553 -0.454,-0.719 -0.997,-1.615 -1.391,-2.744 -0.417,-1.117 -0.754,-2.443 -0.817,-3.925 -0.078,-1.469 0.062,-3.093 0.562,-4.739 0.494,-1.636 1.345,-3.274 2.548,-4.723 1.199,-1.449 2.75,-2.702 4.54,-3.589 1.786,-0.888 3.81,-1.396 5.857,-1.444 0.562,0.019 0.983,0.017 1.499,0.049 0.517,0.073 1.054,0.112 1.558,0.223 1.001,0.212 1.991,0.501 2.918,0.923 1.864,0.817 3.521,2.031 4.834,3.48 1.318,1.444 2.292,3.121 2.893,4.826 0.607,1.718 0.84,3.415 0.827,5.043 -0.018,0.375 0.003,0.693 -0.047,1.093 -0.049,0.396 -0.097,0.782 -0.144,1.159 -0.154,0.717 -0.272,1.397 -0.5,2.011 -0.375,1.251 -0.922,2.26 -1.386,3.073 -0.5,0.794 -0.927,1.399 -1.264,1.776 -0.324,0.387 -0.497,0.593 -0.497,0.593 -0.523,0.628 -1.457,0.709 -2.083,0.186 -0.625,-0.525 -0.709,-1.457 -0.184,-2.084 0.012,-0.015 0.025,-0.029 0.039,-0.045 l 0.092,-0.1 c 0,0 0.146,-0.159 0.417,-0.457 0.289,-0.287 0.65,-0.76 1.087,-1.379 0.402,-0.641 0.892,-1.433 1.242,-2.438 0.214,-0.486 0.329,-1.049 0.488,-1.615 0.05,-0.279 0.101,-0.566 0.154,-0.86 0.059,-0.289 0.06,-0.687 0.095,-1.035 0.069,-1.275 -0.05,-2.755 -0.491,-4.205 -0.437,-1.459 -1.192,-2.922 -2.264,-4.218 -1.069,-1.296 -2.453,-2.421 -4.049,-3.216 -0.792,-0.409 -1.649,-0.7 -2.527,-0.933 -0.435,-0.118 -0.866,-0.165 -1.303,-0.257 -0.448,-0.053 -1,-0.077 -1.404,-0.114 -1.835,-0.045 -3.681,0.324 -5.349,1.058 -1.671,0.728 -3.159,1.813 -4.341,3.109 -1.186,1.296 -2.062,2.797 -2.604,4.325 -0.547,1.524 -0.757,3.075 -0.751,4.51 -0.008,1.432 0.257,2.738 0.613,3.849 0.333,1.125 0.826,2.031 1.24,2.765 0.449,0.714 0.83,1.262 1.135,1.602 0.29,0.349 0.445,0.536 0.445,0.536 z"
   id="path249" /><path
   fill="#d83559"
   d="M 32.983,257.772 H 9.068 c -1.627,0 -2.958,1.331 -2.958,2.957 v 5.915 c 0,1.628 1.331,2.958 2.958,2.958 h 23.915 c 1.627,0 2.958,-1.33 2.958,-2.958 v -5.915 c -0.001,-1.625 -1.331,-2.957 -2.958,-2.957 z m -19.684,9.126 H 9.446 v -5.939 h 1.159 v 4.906 h 2.694 z m 4.858,-4.904 h -2.753 v 1.394 h 2.344 v 1.033 h -2.344 v 1.444 h 2.753 v 1.033 h -3.912 v -5.939 h 3.912 z m 3.297,4.904 h -0.867 l -1.96,-5.939 h 1.201 l 1.193,3.872 1.193,-3.872 h 1.209 z m 6.601,-4.904 h -2.752 v 1.394 h 2.343 v 1.033 h -2.343 v 1.444 h 2.752 v 1.033 h -3.912 v -5.939 h 3.912 z m 4.99,4.904 h -3.853 v -5.939 h 1.159 v 4.906 h 2.694 z"
   id="path251" /><path
   fill="#0094a0"
   d="M 68.736,257.772 H 44.821 c -1.627,0 -2.958,1.331 -2.958,2.957 v 5.915 c 0,1.628 1.331,2.958 2.958,2.958 h 23.915 c 1.627,0 2.958,-1.33 2.958,-2.958 v -5.915 c 0,-1.625 -1.331,-2.957 -2.958,-2.957 z m -19.684,9.126 h -3.854 v -5.939 h 1.16 v 4.906 h 2.694 z m 4.858,-4.904 h -2.753 v 1.394 H 53.5 v 1.033 h -2.343 v 1.444 h 2.753 v 1.033 h -3.912 v -5.939 h 3.912 z m 3.297,4.904 h -0.868 l -1.96,-5.939 h 1.202 l 1.192,3.872 1.193,-3.872 h 1.209 z m 6.601,-4.904 h -2.753 v 1.394 h 2.344 v 1.033 h -2.344 v 1.444 h 2.753 v 1.033 h -3.912 v -5.939 h 3.912 z m 4.99,4.904 h -3.854 v -5.939 h 1.159 v 4.906 h 2.695 z"
   id="path253" /><g
   id="g267">&#10;		<path
   fill="#1d1d1b"
   d="m 116.072,261.98 v 4.904 h -1.159 v -4.904 h -1.551 v -1.035 h 4.263 v 1.035 z"
   id="path255" />&#10;		<path
   fill="#1d1d1b"
   d="m 118.569,266.885 v -5.939 h 1.159 v 5.939 z"
   id="path257" />&#10;		<path
   fill="#1d1d1b"
   d="m 125.335,266.885 v -3.462 l -1.134,2.253 h -0.784 l -1.143,-2.253 v 3.462 h -1.159 v -5.939 h 1.142 l 1.552,3.213 1.544,-3.213 h 1.142 v 5.939 z"
   id="path259" />&#10;		<path
   fill="#1d1d1b"
   d="m 130.368,266.885 h -2.485 v -5.939 h 2.385 c 1.16,0 1.836,0.651 1.836,1.668 0,0.661 -0.434,1.084 -0.733,1.228 0.358,0.167 0.817,0.542 0.817,1.334 0,1.107 -0.76,1.709 -1.82,1.709 z m -0.192,-4.905 h -1.134 v 1.367 h 1.134 c 0.493,0 0.769,-0.275 0.769,-0.683 -0.001,-0.409 -0.276,-0.684 -0.769,-0.684 z m 0.075,2.411 h -1.209 v 1.461 h 1.209 c 0.526,0 0.776,-0.334 0.776,-0.735 0,-0.4 -0.25,-0.726 -0.776,-0.726 z"
   id="path261" />&#10;		<path
   fill="#1d1d1b"
   d="m 136.527,266.885 -1.159,-2.368 h -0.834 v 2.368 h -1.159 v -5.939 h 2.327 c 1.209,0 1.927,0.827 1.927,1.819 0,0.833 -0.509,1.351 -1.084,1.559 l 1.325,2.562 h -1.343 z m -0.9,-4.905 h -1.093 v 1.568 h 1.093 c 0.509,0 0.842,-0.326 0.842,-0.784 0,-0.458 -0.333,-0.784 -0.842,-0.784 z"
   id="path263" />&#10;		<path
   fill="#1d1d1b"
   d="m 138.833,266.885 v -5.939 h 3.912 v 1.035 h -2.753 v 1.394 h 2.344 v 1.033 h -2.344 v 1.444 h 2.753 v 1.033 z"
   id="path265" />&#10;	</g><rect
   x="6.4790001"
   y="244.64301"
   fill="#c6c6c5"
   width="136.679"
   height="2.0880001"
   id="rect269" /><g
   id="g279">&#10;		<path
   fill="#1d1d1b"
   d="m 86.367,266.898 -0.351,-1.051 h -2.109 l -0.358,1.051 h -1.211 l 2.161,-5.939 h 0.909 l 2.168,5.939 z m -1.385,-4.186 -0.75,2.159 h 1.476 z"
   id="path271" />&#10;		<path
   fill="#1d1d1b"
   d="m 88.314,266.898 v -5.939 h 1.159 v 4.906 h 2.693 v 1.033 z"
   id="path273" />&#10;		<path
   fill="#1d1d1b"
   d="m 96.559,266.273 c -0.46,0.467 -1.011,0.677 -1.678,0.677 -0.633,0 -1.167,-0.219 -1.601,-0.652 -0.259,-0.257 -0.418,-0.559 -0.484,-0.893 -0.066,-0.332 -0.101,-0.825 -0.101,-1.476 0,-0.649 0.034,-1.143 0.101,-1.477 0.066,-0.343 0.226,-0.634 0.484,-0.893 0.434,-0.435 0.968,-0.65 1.601,-0.65 1.352,0 2.077,0.868 2.235,1.901 h -1.167 c -0.143,-0.574 -0.493,-0.866 -1.068,-0.866 -0.31,0 -0.559,0.108 -0.742,0.316 -0.217,0.274 -0.284,0.492 -0.284,1.668 0,1.168 0.051,1.402 0.284,1.678 0.175,0.207 0.425,0.308 0.742,0.308 0.343,0 0.618,-0.108 0.825,-0.335 0.176,-0.199 0.268,-0.466 0.268,-0.79 v -0.227 h -1.093 v -0.968 h 2.244 v 0.868 c 0,0.87 -0.159,1.377 -0.566,1.811 z"
   id="path275" />&#10;		<path
   fill="#1d1d1b"
   d="m 101.807,266.298 c -0.417,0.418 -0.926,0.652 -1.602,0.652 -0.676,0 -1.192,-0.234 -1.609,-0.652 -0.601,-0.6 -0.585,-1.343 -0.585,-2.368 0,-1.026 -0.016,-1.769 0.585,-2.369 0.417,-0.416 0.934,-0.65 1.609,-0.65 0.675,0 1.185,0.234 1.602,0.65 0.602,0.601 0.592,1.343 0.592,2.369 -0.001,1.025 0.009,1.768 -0.592,2.368 z m -0.86,-4.036 c -0.166,-0.192 -0.425,-0.316 -0.742,-0.316 -0.317,0 -0.584,0.124 -0.75,0.316 -0.226,0.25 -0.285,0.525 -0.285,1.668 0,1.144 0.06,1.419 0.285,1.669 0.166,0.191 0.433,0.316 0.75,0.316 0.317,0 0.576,-0.125 0.742,-0.316 0.226,-0.25 0.292,-0.525 0.292,-1.669 0,-1.143 -0.066,-1.418 -0.292,-1.668 z"
   id="path277" />&#10;	</g><g
   id="g285">&#10;		<polygon
   fill="#d83559"
   points="20.778,306.917 20.43,306.917 20.312,306.951 20.265,307.024 20.265,307.685 20.297,307.771 20.405,307.817 20.753,307.817 20.953,307.817 21.206,307.817 21.257,307.795 21.257,307.735 21.257,307.024 21.212,306.988 21.175,306.951 20.953,306.917 "
   id="polygon281" />&#10;		<path
   fill="#d83559"
   d="m 21.024,304.183 c -2.879,0 -5.214,2.335 -5.214,5.216 0,2.881 2.335,5.216 5.214,5.216 2.881,0 5.216,-2.335 5.216,-5.216 0,-2.881 -2.334,-5.216 -5.216,-5.216 z m 1.197,8.147 h -0.964 v -3.861 h -0.518 c -0.204,0 -0.391,-0.021 -0.568,-0.071 -0.171,-0.042 -0.334,-0.124 -0.489,-0.233 -0.152,-0.11 -0.261,-0.232 -0.334,-0.367 -0.069,-0.133 -0.11,-0.273 -0.11,-0.418 0,-0.13 0.041,-0.259 0.11,-0.383 0.073,-0.129 0.175,-0.244 0.32,-0.351 0.139,-0.105 0.295,-0.188 0.479,-0.24 0.102,-0.024 0.202,-0.045 0.283,-0.058 0.096,-0.018 0.198,-0.021 0.31,-0.021 0.139,0 0.238,0.002 0.297,0.01 0.063,0.008 0.169,0.034 0.32,0.081 0.153,0.045 0.295,0.114 0.43,0.212 0.139,0.094 0.25,0.206 0.322,0.337 0.076,0.13 0.112,0.267 0.112,0.411 z"
   id="path283" />&#10;	</g><path
   fill="#0094a0"
   d="m 56.779,304.183 c -2.881,0 -5.216,2.335 -5.216,5.216 0,2.881 2.335,5.216 5.216,5.216 2.881,0 5.216,-2.335 5.216,-5.216 0,-2.881 -2.335,-5.216 -5.216,-5.216 z m 1.595,5.227 c 0,0.146 -0.047,0.283 -0.136,0.422 -0.092,0.114 -0.226,0.219 -0.396,0.306 -0.169,0.094 -0.365,0.165 -0.583,0.219 -0.216,0.055 -0.453,0.081 -0.711,0.081 l 1.146,1.579 -0.711,0.477 -1.756,-2.307 0.583,-0.546 0.898,0.191 h 0.32 c 0.114,-0.014 0.206,-0.036 0.273,-0.062 0.069,-0.026 0.118,-0.058 0.149,-0.088 l 0.065,-0.148 v -2.295 c -0.02,-0.055 -0.037,-0.087 -0.057,-0.105 -0.039,-0.039 -0.088,-0.071 -0.157,-0.103 l -0.057,-0.012 -0.055,-0.024 H 57.13 l -0.055,-0.022 h -0.151 -0.146 c -0.145,0 -0.249,0 -0.31,0 -0.084,0 -0.155,0.015 -0.22,0.041 -0.069,0.028 -0.118,0.062 -0.157,0.102 l -0.041,0.139 v 1.078 h -0.866 v -1.07 c 0,-0.12 0.039,-0.236 0.118,-0.342 0.075,-0.106 0.189,-0.208 0.348,-0.304 0.149,-0.096 0.293,-0.161 0.434,-0.193 0.149,-0.037 0.267,-0.062 0.358,-0.076 0.102,-0.016 0.208,-0.022 0.322,-0.022 0.22,0 0.426,0.022 0.617,0.067 0.188,0.047 0.363,0.114 0.52,0.206 0.155,0.092 0.269,0.193 0.347,0.308 0.037,0.053 0.067,0.112 0.089,0.173 0.022,0.062 0.037,0.127 0.037,0.196 z"
   id="path287" /><g
   id="g297">&#10;		<polygon
   fill="#6f6f6e"
   points="123.13,308.429 122.379,310.588 123.855,310.588 "
   id="polygon289" />&#10;		<polygon
   fill="#6f6f6e"
   points="86.616,306.876 86.24,306.876 86.103,306.914 86.053,306.992 86.053,307.722 86.091,307.813 86.206,307.864 86.591,307.864 86.809,307.864 87.091,307.864 87.142,307.838 87.142,307.774 87.142,306.99 87.092,306.951 87.054,306.914 86.816,306.876 "
   id="polygon291" />&#10;		<path
   fill="#6f6f6e"
   d="M 140.24,303.324 H 80.75 c -1.627,0 -2.958,1.331 -2.958,2.957 v 35.547 c 0,1.628 1.331,2.959 2.958,2.959 h 59.49 c 1.627,0 2.958,-1.331 2.958,-2.959 v -35.547 c 0,-1.626 -1.331,-2.957 -2.958,-2.957 z m -52.034,9.497 h -1.064 v -4.244 h -0.563 c -0.225,0 -0.434,-0.024 -0.625,-0.075 -0.193,-0.049 -0.372,-0.137 -0.539,-0.257 -0.166,-0.122 -0.29,-0.257 -0.369,-0.403 -0.079,-0.146 -0.119,-0.3 -0.119,-0.461 0,-0.141 0.04,-0.283 0.119,-0.42 0.079,-0.138 0.195,-0.267 0.351,-0.385 0.154,-0.116 0.332,-0.206 0.531,-0.265 0.109,-0.024 0.214,-0.045 0.313,-0.062 0.101,-0.018 0.213,-0.026 0.338,-0.026 0.151,0 0.259,0.004 0.326,0.013 0.066,0.008 0.184,0.038 0.351,0.09 0.167,0.049 0.325,0.126 0.476,0.231 0.149,0.104 0.267,0.229 0.351,0.371 0.083,0.141 0.125,0.291 0.125,0.452 v 5.441 z m 4.248,-0.281 c -1.58,0 -2.864,-1.283 -2.864,-2.864 0,-1.579 1.284,-2.865 2.864,-2.865 1.581,0 2.865,1.286 2.865,2.865 0,1.581 -1.284,2.864 -2.865,2.864 z m 7.811,-2.928 c 0,0.161 -0.05,0.315 -0.15,0.465 -0.101,0.126 -0.244,0.238 -0.433,0.34 -0.188,0.1 -0.4,0.18 -0.638,0.238 -0.238,0.06 -0.498,0.088 -0.782,0.088 l 1.258,1.736 -0.782,0.521 -1.929,-2.533 0.639,-0.601 0.989,0.214 h 0.351 c 0.126,-0.019 0.226,-0.041 0.301,-0.071 0.074,-0.028 0.129,-0.062 0.162,-0.094 l 0.075,-0.165 v -2.522 c -0.024,-0.06 -0.046,-0.096 -0.062,-0.114 -0.041,-0.041 -0.101,-0.079 -0.175,-0.114 l -0.063,-0.012 -0.062,-0.024 h -0.063 l -0.062,-0.027 h -0.163 -0.161 c -0.159,0 -0.272,0 -0.339,0 -0.093,0 -0.173,0.017 -0.244,0.045 -0.071,0.031 -0.128,0.067 -0.169,0.11 l -0.05,0.155 v 1.182 h -0.952 v -1.172 c 0,-0.135 0.044,-0.261 0.132,-0.379 0.087,-0.116 0.215,-0.229 0.382,-0.332 0.167,-0.106 0.327,-0.178 0.481,-0.214 0.155,-0.039 0.287,-0.065 0.395,-0.082 0.109,-0.018 0.226,-0.026 0.351,-0.026 0.242,0 0.468,0.026 0.677,0.075 0.208,0.052 0.398,0.127 0.569,0.227 0.171,0.1 0.299,0.214 0.382,0.338 0.042,0.06 0.074,0.123 0.1,0.189 0.025,0.067 0.038,0.139 0.038,0.212 v 2.347 z m 24.25,3.003 -0.351,-1.051 h -2.109 l -0.359,1.051 h -1.21 l 2.161,-5.939 h 0.909 l 2.168,5.939 z m 6.225,-2.035 c 0,1.262 -0.968,2.087 -2.187,2.087 -1.216,0 -2.184,-0.825 -2.184,-2.087 v -3.904 h 1.159 v 3.863 c 0,0.685 0.399,1.093 1.024,1.093 0.626,0 1.035,-0.408 1.035,-1.093 v -3.863 h 1.151 v 3.904 z m 4.266,2.035 -1.151,-2.067 -1.142,2.067 h -1.326 l 1.843,-3.044 -1.727,-2.896 h 1.317 l 1.034,1.92 1.043,-1.92 h 1.31 l -1.727,2.896 1.851,3.044 z"
   id="path293" />&#10;		<path
   fill="#6f6f6e"
   d="m 92.454,307.846 c -1.008,0 -1.829,0.821 -1.829,1.83 0,1.008 0.821,1.829 1.829,1.829 1.009,0 1.83,-0.821 1.83,-1.829 0,-1.009 -0.821,-1.83 -1.83,-1.83 z m 0.478,3.038 -0.478,-0.477 -0.477,0.477 -0.731,-0.731 0.477,-0.477 -0.477,-0.475 0.731,-0.732 0.476,0.476 0.478,-0.478 0.731,0.731 -0.476,0.478 0.477,0.477 z"
   id="path295" />&#10;	</g><g
   id="g301">&#10;		<path
   fill="#1d1d1b"
   d="m 23.999,180.849 c -0.289,0 -0.521,-0.233 -0.521,-0.521 v -0.521 c 0,-0.289 0.233,-0.521 0.521,-0.521 0.288,0 0.521,0.233 0.521,0.521 v 0.521 c 0,0.288 -0.233,0.521 -0.521,0.521 z m 0,-2.608 c -0.289,0 -0.521,-0.233 -0.521,-0.521 v -0.522 c 0,-0.288 0.233,-0.521 0.521,-0.521 0.288,0 0.521,0.233 0.521,0.521 v 0.522 c 0,0.287 -0.233,0.521 -0.521,0.521 z"
   id="path299" />&#10;	</g><path
   fill="none"
   stroke="#000000"
   stroke-linecap="round"
   stroke-miterlimit="10"
   stroke-dasharray="0.5, 2"
   d="M 23.963,170.797"
   id="path303" /><g
   id="g325">&#10;		<g
   id="g307">&#10;			<circle
   fill="#6f6f6e"
   cx="126.123"
   cy="120.35"
   r="0.57499999"
   id="circle305" />&#10;		</g>&#10;		<g
   id="g311">&#10;			<rect
   x="125.789"
   y="121.696"
   fill="#6f6f6e"
   width="3.4260001"
   height="0.338"
   id="rect309" />&#10;		</g>&#10;		<g
   id="g315">&#10;			<rect
   x="125.789"
   y="122.403"
   fill="#6f6f6e"
   width="3.4260001"
   height="0.338"
   id="rect313" />&#10;		</g>&#10;		<g
   id="g319">&#10;			<circle
   fill="#6f6f6e"
   cx="128.717"
   cy="120.351"
   r="0.59200001"
   id="circle317" />&#10;		</g>&#10;		<g
   id="g323">&#10;			<path
   fill="#6f6f6e"
   d="m 127.503,114.46 c -3.268,0 -5.914,2.647 -5.914,5.914 0,3.266 2.646,5.914 5.914,5.914 3.266,0 5.914,-2.648 5.914,-5.914 0,-3.267 -2.648,-5.914 -5.914,-5.914 z m 3.436,6.802 h -0.58 v 2.175 h -5.72 v -2.175 h -0.58 v -1.542 h 0.627 c 0,-1.375 1.108,-2.493 2.521,-2.632 -0.121,-0.09 -0.205,-0.228 -0.205,-0.391 0,-0.274 0.224,-0.495 0.496,-0.495 0.275,0 0.497,0.221 0.497,0.495 0,0.163 -0.083,0.3 -0.204,0.391 1.414,0.14 2.52,1.257 2.52,2.632 h 0.628 z"
   id="path321" />&#10;		</g>&#10;	</g><g
   id="g329">&#10;		<path
   fill="#6f6f6e"
   d="m 46.296,142.309 c -3.266,0 -5.914,2.648 -5.914,5.914 0,3.266 2.648,5.914 5.914,5.914 3.267,0 5.914,-2.648 5.914,-5.914 0,-3.266 -2.647,-5.914 -5.914,-5.914 z m 4.047,7.233 h -3.972 -3.972 v -2.637 l 3.972,2.637 3.972,-2.637 z"
   id="path327" />&#10;	</g><g
   id="g341">&#10;		<path
   fill="#6f6f6e"
   d="m 75.202,40.797 h 2.372 c -0.218,-1.2 -1.169,-2.14 -2.372,-2.346 z"
   id="path331" />&#10;		<path
   fill="#6f6f6e"
   d="m 74.158,41.84 h -2.313 c 0.215,1.18 1.137,2.113 2.313,2.34 z"
   id="path333" />&#10;		<path
   fill="#6f6f6e"
   d="m 74.158,40.797 v -2.34 c -1.177,0.227 -2.099,1.16 -2.313,2.34 z"
   id="path335" />&#10;		<path
   fill="#6f6f6e"
   d="m 74.709,35.406 c -3.266,0 -5.913,2.647 -5.913,5.913 0,3.266 2.647,5.914 5.913,5.914 3.266,0 5.913,-2.647 5.913,-5.914 0,-3.266 -2.646,-5.913 -5.913,-5.913 z m 0,9.872 c -2.185,0 -3.961,-1.776 -3.961,-3.96 0,-2.184 1.776,-3.96 3.961,-3.96 2.183,0 3.959,1.776 3.959,3.96 10e-4,2.184 -1.775,3.96 -3.959,3.96 z"
   id="path337" />&#10;		<path
   fill="#6f6f6e"
   d="m 75.202,41.84 v 2.345 c 1.203,-0.206 2.154,-1.146 2.372,-2.345 z"
   id="path339" />&#10;	</g><g
   id="g347">&#10;		<polygon
   fill="#6f6f6e"
   points="110.655,51.893 108.987,51.893 108.103,55.2 109.77,55.2 "
   id="polygon343" />&#10;		<path
   fill="#6f6f6e"
   d="m 109.379,47.632 c -3.268,0 -5.914,2.647 -5.914,5.914 0,3.266 2.646,5.914 5.914,5.914 3.266,0 5.914,-2.648 5.914,-5.914 0,-3.266 -2.648,-5.914 -5.914,-5.914 z m 3.305,4.261 h -0.948 l -1.165,4.351 h -3.147 -0.68 -0.67 c -0.288,0 -0.521,-0.233 -0.521,-0.522 0,-0.288 0.233,-0.521 0.521,-0.521 h 0.949 l 1.164,-4.35 h 3.148 0.68 0.669 c 0.288,0 0.521,0.233 0.521,0.521 0,0.288 -0.233,0.521 -0.521,0.521 z"
   id="path345" />&#10;	</g><g
   id="g361">&#10;		<rect
   x="129.20599"
   y="84.300003"
   fill="#6f6f6e"
   width="0.78200001"
   height="0.324"
   id="rect349" />&#10;		<rect
   x="129.20599"
   y="84.890999"
   fill="#6f6f6e"
   width="0.78200001"
   height="0.32600001"
   id="rect351" />&#10;		<circle
   fill="#6f6f6e"
   cx="128.00101"
   cy="83.708"
   r="0.61900002"
   id="circle353" />&#10;		<rect
   x="129.20599"
   y="83.708"
   fill="#6f6f6e"
   width="0.78200001"
   height="0.32600001"
   id="rect355" />&#10;		<path
   fill="#6f6f6e"
   d="m 129.598,78.007 c -3.268,0 -5.914,2.648 -5.914,5.914 0,3.266 2.646,5.914 5.914,5.914 3.266,0 5.914,-2.648 5.914,-5.914 0,-3.266 -2.649,-5.914 -5.914,-5.914 z m -3.338,6.525 h -0.717 V 82.61 h 0.717 z m 4.268,2.346 h -1.863 v -0.913 h 1.863 z m 1.935,-1.77 c 0,0.326 -0.266,0.592 -0.592,0.592 h -4.548 c -0.326,0 -0.592,-0.266 -0.592,-0.592 v -2.801 c 0,-0.326 0.266,-0.591 0.592,-0.591 h 4.548 c 0.326,0 0.592,0.266 0.592,0.591 z m 1.189,-0.576 h -0.718 V 82.61 h 0.718 z"
   id="path357" />&#10;		<circle
   fill="#6f6f6e"
   cx="131.19299"
   cy="83.708"
   r="0.61900002"
   id="circle359" />&#10;	</g><path
   fill="#6f6f6e"
   d="m 103.121,142.877 c -3.269,0 -5.914,2.647 -5.914,5.914 0,3.267 2.646,5.915 5.914,5.915 3.266,0 5.914,-2.647 5.914,-5.915 0,-3.267 -2.648,-5.914 -5.914,-5.914 z m 4.21,6.305 h -1.111 l 0.425,0.736 c 0.107,0.187 0.044,0.426 -0.144,0.534 -0.062,0.036 -0.129,0.053 -0.196,0.053 -0.134,0 -0.266,-0.07 -0.339,-0.196 l -0.65,-1.126 h -1.506 l 0.707,1.225 1.393,0.001 c 0.217,0 0.392,0.176 0.392,0.392 0,0.216 -0.175,0.391 -0.392,0.391 l -0.845,-0.001 0.554,0.962 c 0.108,0.188 0.044,0.427 -0.144,0.534 -0.062,0.036 -0.129,0.053 -0.195,0.053 -0.135,0 -0.268,-0.07 -0.34,-0.196 l -0.554,-0.961 -0.424,0.735 c -0.073,0.125 -0.205,0.195 -0.34,0.195 -0.065,0 -0.133,-0.017 -0.195,-0.052 -0.188,-0.108 -0.252,-0.347 -0.144,-0.534 l 0.604,-1.044 -0.754,-1.306 -0.661,1.144 0.696,1.207 c 0.108,0.187 0.044,0.426 -0.144,0.534 -0.062,0.036 -0.129,0.052 -0.195,0.052 -0.135,0 -0.267,-0.07 -0.34,-0.195 l -0.424,-0.734 -0.554,0.961 c -0.072,0.125 -0.205,0.196 -0.34,0.196 -0.065,0 -0.133,-0.017 -0.195,-0.053 -0.188,-0.108 -0.252,-0.347 -0.144,-0.534 l 0.556,-0.962 h -0.849 c -0.217,0 -0.392,-0.175 -0.392,-0.391 0,-0.216 0.175,-0.391 0.392,-0.391 h 1.206 l 0.708,-1.226 h -1.32 l -0.654,1.127 c -0.072,0.125 -0.204,0.195 -0.338,0.195 -0.067,0 -0.135,-0.017 -0.197,-0.053 -0.187,-0.108 -0.25,-0.347 -0.142,-0.534 l 0.427,-0.735 h -1.114 c -0.216,0 -0.391,-0.175 -0.391,-0.391 0,-0.216 0.175,-0.392 0.391,-0.392 h 1.114 l -0.427,-0.735 c -0.108,-0.187 -0.045,-0.426 0.142,-0.534 0.186,-0.11 0.426,-0.046 0.535,0.142 l 0.654,1.127 h 1.32 l -0.707,-1.225 -1.207,0.001 c -0.217,0 -0.392,-0.174 -0.392,-0.391 0,-0.217 0.175,-0.392 0.392,-0.392 h 0.85 l -0.557,-0.962 c -0.109,-0.187 -0.045,-0.426 0.143,-0.534 0.184,-0.108 0.425,-0.045 0.534,0.143 l 0.555,0.961 0.425,-0.736 c 0.108,-0.187 0.347,-0.25 0.535,-0.143 0.188,0.108 0.252,0.347 0.144,0.534 l -0.696,1.208 0.661,1.145 0.754,-1.305 -0.605,-1.048 c -0.108,-0.188 -0.044,-0.426 0.144,-0.534 0.189,-0.107 0.427,-0.044 0.535,0.143 l 0.424,0.735 0.556,-0.962 c 0.108,-0.189 0.35,-0.25 0.534,-0.143 0.188,0.108 0.252,0.347 0.143,0.534 l -0.558,0.963 h 0.851 c 0.217,0 0.392,0.175 0.392,0.391 0,0.216 -0.175,0.391 -0.392,0.391 h -1.391 l -0.708,1.226 h 1.504 l 0.652,-1.127 c 0.107,-0.189 0.35,-0.25 0.534,-0.144 0.188,0.108 0.251,0.348 0.143,0.535 l -0.425,0.735 h 1.112 c 0.216,0 0.391,0.175 0.391,0.391 -0.001,0.215 -0.176,0.39 -0.392,0.39 z"
   id="path363" /><g
   id="g369">&#10;		<path
   fill="#6f6f6e"
   d="m 39.821,50.599 c -1.609,0 -2.917,1.309 -2.917,2.917 0,1.609 1.308,2.917 2.917,2.917 1.608,0 2.917,-1.309 2.917,-2.917 0,-1.608 -1.308,-2.917 -2.917,-2.917 z m 1.692,3.901 -0.737,0.737 -0.984,-0.984 -0.984,0.984 -0.738,-0.737 0.984,-0.984 -0.985,-0.984 0.738,-0.738 0.985,0.985 0.984,-0.984 0.737,0.738 -0.984,0.984 z"
   id="path365" />&#10;		<path
   fill="#6f6f6e"
   d="m 39.821,47.604 c -3.266,0 -5.914,2.647 -5.914,5.913 0,3.267 2.648,5.914 5.914,5.914 3.266,0 5.914,-2.647 5.914,-5.914 0,-3.266 -2.648,-5.913 -5.914,-5.913 z m 0,9.873 c -2.184,0 -3.96,-1.776 -3.96,-3.96 0,-2.184 1.776,-3.961 3.96,-3.961 2.183,0 3.96,1.777 3.96,3.961 0,2.184 -1.777,3.96 -3.96,3.96 z"
   id="path367" />&#10;	</g><g
   id="g375">&#10;		&#10;			<rect
   x="17.913"
   y="82.305"
   transform="matrix(-0.707,-0.7072,0.7072,-0.707,-26.0115,157.0659)"
   fill="#6f6f6e"
   width="3.2320001"
   height="3.2309999"
   id="rect371" />&#10;		<path
   fill="#6f6f6e"
   d="m 19.525,78.008 c -3.266,0 -5.914,2.647 -5.914,5.913 0,3.267 2.648,5.914 5.914,5.914 3.266,0 5.914,-2.647 5.914,-5.914 0,-3.266 -2.648,-5.913 -5.914,-5.913 z m 0.004,9.674 -3.761,-3.761 3.761,-3.761 3.759,3.761 z"
   id="path373" />&#10;	</g><path
   fill="#6f6f6e"
   d="m 21.915,114.756 c -3.266,0 -5.914,2.647 -5.914,5.913 0,3.267 2.648,5.914 5.914,5.914 3.266,0 5.914,-2.647 5.914,-5.914 0,-3.266 -2.648,-5.913 -5.914,-5.913 z m 3.785,8.276 -1.909,-0.785 0.447,-1.236 -1.235,0.016 -0.206,-1.104 -0.863,0.689 -0.82,-0.668 -0.173,1.059 -1.188,0.012 0.503,1.167 -1.867,0.872 -0.442,-0.945 0.951,-0.443 -0.723,-1.678 1.878,-0.019 0.322,-1.972 1.566,1.275 1.564,-1.248 0.363,1.949 1.864,-0.025 -0.621,1.714 0.986,0.405 z"
   id="path377" />&#10;<g
   id="decoupe"
   display="none">&#10;	&#10;		<path
   display="inline"
   fill="none"
   stroke="#E42320"
   stroke-width="0.2835"
   stroke-linecap="round"
   stroke-linejoin="round"
   stroke-miterlimit="10"
   d="   M17.414,371.108c0.07,2.6,2.19,4.719,4.805,4.719s4.733-2.119,4.733-4.733s-2.119-4.731-4.733-4.731s-4.734,2.117-4.734,4.731"
   id="path408" />&#10;	&#10;		<path
   display="inline"
   fill="none"
   stroke="#E42320"
   stroke-width="0.2835"
   stroke-linecap="round"
   stroke-linejoin="round"
   stroke-miterlimit="10"
   d="   M17.414,8.768c0.07,2.602,2.19,4.721,4.805,4.721s4.733-2.119,4.733-4.732c0-2.614-2.119-4.733-4.733-4.733   s-4.734,2.119-4.734,4.733"
   id="path410" />&#10;	&#10;		<path
   display="inline"
   fill="none"
   stroke="#E42320"
   stroke-width="0.2835"
   stroke-linecap="round"
   stroke-linejoin="round"
   stroke-miterlimit="10"
   d="   M63.519,98.695c0.107,6.105,5.074,11.071,11.203,11.071c6.128,0,11.095-4.966,11.095-11.092c0-6.126-4.967-11.092-11.095-11.092   c-6.129,0-11.096,4.966-11.096,11.092"
   id="path412" />&#10;	&#10;		<path
   display="inline"
   fill="none"
   stroke="#E42320"
   stroke-width="0.2835"
   stroke-linecap="round"
   stroke-linejoin="round"
   stroke-miterlimit="10"
   d="   M14.409,222.689c0.117,5.147,4.355,9.386,9.584,9.386c5.229,0,9.469-4.238,9.469-9.465c0-5.229-4.239-9.467-9.469-9.467   c-5.229,0-9.467,4.238-9.467,9.467"
   id="path414" />&#10;	&#10;		<path
   display="inline"
   fill="none"
   stroke="#E42320"
   stroke-width="0.2835"
   stroke-linecap="round"
   stroke-linejoin="round"
   stroke-miterlimit="10"
   d="   M52.871,222.689c0.118,5.147,4.357,9.386,9.585,9.386c5.231,0,9.47-4.238,9.47-9.465c0-5.229-4.238-9.467-9.47-9.467   c-5.228,0-9.467,4.238-9.467,9.467"
   id="path416" />&#10;	&#10;		<path
   display="inline"
   fill="none"
   stroke="#E42320"
   stroke-width="0.2835"
   stroke-linecap="round"
   stroke-linejoin="round"
   stroke-miterlimit="10"
   d="   M103.108,193.381c0.03,6.072,4.999,11.038,11.126,11.038c6.128,0,11.097-4.966,11.097-11.093c0-6.126-4.969-11.092-11.097-11.092   c-6.127,0-11.096,4.966-11.096,11.092"
   id="path418" />&#10;	&#10;		<path
   display="inline"
   fill="none"
   stroke="#E42320"
   stroke-width="0.2835"
   stroke-linecap="round"
   stroke-linejoin="round"
   stroke-miterlimit="10"
   d="   M67.153,70.389c0.024,4.056,3.4,7.433,7.568,7.433c4.166,0,7.545-3.377,7.545-7.542c0-4.166-3.379-7.542-7.545-7.542   c-4.168,0-7.544,3.377-7.544,7.542"
   id="path420" />&#10;	&#10;		<path
   display="inline"
   fill="none"
   stroke="#E42320"
   stroke-width="0.2835"
   stroke-linecap="round"
   stroke-linejoin="round"
   stroke-miterlimit="10"
   d="   M16.298,189.875c0.015,4.149,3.459,7.593,7.707,7.593c4.25,0,7.693-3.443,7.693-7.691c0-4.247-3.443-7.69-7.693-7.69   c-4.248,0-7.692,3.443-7.692,7.69"
   id="path422" />&#10;	&#10;		<path
   display="inline"
   fill="none"
   stroke="#E42320"
   stroke-width="0.2835"
   stroke-linecap="round"
   stroke-linejoin="round"
   stroke-miterlimit="10"
   d="   M19.294,170.962c0.113,2.416,2.167,4.469,4.699,4.469c2.534,0,4.587-2.053,4.587-4.585c0-2.532-2.053-4.584-4.587-4.584   c-2.533,0-4.586,2.053-4.586,4.584"
   id="path424" />&#10;	&#10;		<path
   display="inline"
   fill="none"
   stroke="#E42320"
   stroke-width="0.2835"
   stroke-linecap="round"
   stroke-linejoin="round"
   stroke-miterlimit="10"
   d="   M11.401,285.438c0.018,5.186,4.323,9.491,9.632,9.491c5.312,0,9.616-4.306,9.616-9.613c0-5.31-4.304-9.613-9.616-9.613   c-5.31,0-9.614,4.304-9.614,9.613"
   id="path426" />&#10;	&#10;		<path
   display="inline"
   fill="none"
   stroke="#E42320"
   stroke-width="0.2835"
   stroke-linecap="round"
   stroke-linejoin="round"
   stroke-miterlimit="10"
   d="   M47.106,285.438c0.113,5.186,4.417,9.491,9.729,9.491c5.31,0,9.615-4.306,9.615-9.613c0-5.31-4.305-9.613-9.615-9.613   c-5.312,0-9.616,4.304-9.616,9.613"
   id="path428" />&#10;	&#10;		<path
   display="inline"
   fill="none"
   stroke="#E42320"
   stroke-width="0.2835"
   stroke-linecap="round"
   stroke-linejoin="round"
   stroke-miterlimit="10"
   d="   M82.938,285.438c0.082,5.186,4.388,9.491,9.696,9.491c5.313,0,9.617-4.306,9.617-9.613c0-5.31-4.304-9.613-9.617-9.613   c-5.309,0-9.614,4.304-9.614,9.613"
   id="path430" />&#10;	&#10;		<path
   display="inline"
   fill="none"
   stroke="#E42320"
   stroke-width="0.2835"
   stroke-linecap="round"
   stroke-linejoin="round"
   stroke-miterlimit="10"
   d="   M118.769,285.438c0.052,5.186,4.357,9.491,9.668,9.491s9.616-4.306,9.616-9.613c0-5.31-4.306-9.613-9.616-9.613   s-9.616,4.304-9.616,9.613"
   id="path432" />&#10;	&#10;		<path
   display="inline"
   fill="none"
   stroke="#E42320"
   stroke-width="0.2835"
   stroke-linecap="round"
   stroke-linejoin="round"
   stroke-miterlimit="10"
   d="   M11.401,328.525c0.018,5.285,4.323,9.588,9.632,9.588c5.312,0,9.616-4.303,9.616-9.612c0-5.309-4.304-9.611-9.616-9.611   c-5.31,0-9.614,4.303-9.614,9.611"
   id="path434" />&#10;	&#10;		<path
   display="inline"
   fill="none"
   stroke="#E42320"
   stroke-width="0.2835"
   stroke-linecap="round"
   stroke-linejoin="round"
   stroke-miterlimit="10"
   d="   M47.106,328.525c0.113,5.285,4.417,9.588,9.729,9.588c5.31,0,9.615-4.303,9.615-9.612c0-5.309-4.305-9.611-9.615-9.611   c-5.312,0-9.616,4.303-9.616,9.611"
   id="path436" />&#10;	<g
   display="inline"
   id="g442">&#10;		&#10;			<path
   fill="none"
   stroke="#E42320"
   stroke-width="0.2835"
   stroke-linecap="round"
   stroke-linejoin="round"
   stroke-miterlimit="10"
   d="    M82.938,328.525c0.082,5.285,4.388,9.588,9.696,9.588c5.313,0,9.617-4.303,9.617-9.612c0-5.309-4.304-9.611-9.617-9.611    c-5.309,0-9.614,4.303-9.614,9.611"
   id="path438" />&#10;		&#10;			<path
   fill="none"
   stroke="#E42320"
   stroke-width="0.2835"
   stroke-linecap="round"
   stroke-linejoin="round"
   stroke-miterlimit="10"
   d="    M118.769,328.525c0.052,5.285,4.357,9.588,9.668,9.588s9.616-4.303,9.616-9.612c0-5.309-4.306-9.611-9.616-9.611    s-9.616,4.303-9.616,9.611"
   id="path440" />&#10;	</g>&#10;	&#10;		<path
   display="inline"
   fill="none"
   stroke="#E42320"
   stroke-width="0.2835"
   stroke-linecap="round"
   stroke-linejoin="round"
   stroke-miterlimit="10"
   d="   M122.653,8.768c0.043,2.602,2.164,4.721,4.777,4.721c2.615,0,4.735-2.119,4.735-4.732c0-2.614-2.12-4.733-4.735-4.733   c-2.613,0-4.734,2.119-4.734,4.733"
   id="path444" />&#10;	&#10;		<path
   display="inline"
   fill="none"
   stroke="#E42320"
   stroke-width="0.2835"
   stroke-linecap="round"
   stroke-linejoin="round"
   stroke-miterlimit="10"
   d="   M122.653,371.108c0.043,2.6,2.164,4.719,4.777,4.719c2.615,0,4.735-2.119,4.735-4.733s-2.12-4.731-4.735-4.731   c-2.613,0-4.734,2.117-4.734,4.731"
   id="path446" />&#10;	&#10;		<rect
   display="inline"
   fill="none"
   stroke="#E42320"
   stroke-width="0.2835"
   stroke-linecap="round"
   stroke-linejoin="round"
   stroke-miterlimit="10"
   width="149.635"
   height="380"
   id="rect448" />&#10;</g>&#10;<g
   id="widgets"
   display="none">&#10;	&#10;		<rect
   id="PJ301_6_"
   x="9.761"
   y="273.818"
   display="inline"
   fill="none"
   stroke="#000000"
   stroke-miterlimit="10"
   width="22.992"
   height="22.996" />&#10;	&#10;		<rect
   id="PJ301_1_"
   x="45.283"
   y="273.818"
   display="inline"
   fill="none"
   stroke="#000000"
   stroke-miterlimit="10"
   width="22.992"
   height="22.996" />&#10;	&#10;		<rect
   id="PJ301_2_"
   x="81.199"
   y="273.818"
   display="inline"
   fill="none"
   stroke="#000000"
   stroke-miterlimit="10"
   width="22.992"
   height="22.996" />&#10;	&#10;		<rect
   id="PJ301_3_"
   x="116.914"
   y="273.818"
   display="inline"
   fill="none"
   stroke="#000000"
   stroke-miterlimit="10"
   width="22.992"
   height="22.996" />&#10;	&#10;		<rect
   id="PJ301_8_"
   x="9.761"
   y="317.004"
   display="inline"
   fill="none"
   stroke="#000000"
   stroke-miterlimit="10"
   width="22.992"
   height="22.996" />&#10;	&#10;		<rect
   id="PJ301_7_"
   x="45.283"
   y="317.004"
   display="inline"
   fill="none"
   stroke="#000000"
   stroke-miterlimit="10"
   width="22.992"
   height="22.996" />&#10;	&#10;		<rect
   id="PJ301_5_"
   x="81.199"
   y="317.004"
   display="inline"
   fill="none"
   stroke="#000000"
   stroke-miterlimit="10"
   width="22.992"
   height="22.996" />&#10;	&#10;		<rect
   id="PJ301_4_"
   x="116.914"
   y="317.004"
   display="inline"
   fill="none"
   stroke="#000000"
   stroke-miterlimit="10"
   width="22.992"
   height="22.996" />&#10;	&#10;		<rect
   id="TrimPot_1_"
   x="14.938"
   y="213.449"
   display="inline"
   fill="none"
   stroke="#000000"
   stroke-miterlimit="10"
   width="17.994"
   height="17.997" />&#10;	&#10;		<rect
   id="TrimPot_2_"
   x="53.432"
   y="213.449"
   display="inline"
   fill="none"
   stroke="#000000"
   stroke-miterlimit="10"
   width="17.994"
   height="17.997" />&#10;	&#10;		<rect
   id="Rogan6"
   x="29.668"
   y="53.675"
   display="inline"
   fill="none"
   stroke="#000000"
   stroke-miterlimit="10"
   width="90"
   height="90" />&#10;	&#10;		<rect
   id="Rogan_5_"
   x="94.726"
   y="173.328"
   display="inline"
   fill="none"
   stroke="#000000"
   stroke-miterlimit="10"
   width="38.987"
   height="39.996" />&#10;	&#10;		<rect
   id="TL1105_2_"
   x="15.999"
   y="181.781"
   display="inline"
   fill="none"
   stroke="#000000"
   stroke-miterlimit="10"
   width="16"
   height="15.999" />&#10;	&#10;		<rect
   id="SmallLight_1_"
   x="20.499"
   y="167.347"
   display="inline"
   fill="none"
   stroke="#000000"
   stroke-miterlimit="10"
   width="7"
   height="7" />&#10;</g>&#10;<g
   id="SvgjsG1539"
   featurekey="nameFeature-0"
   transform="matrix(0.93832313,0,0,0.71198864,36.021255,-7.0890368)"
   fill="#252a34"><path
     d="m 22.28,12.04 h 5.88 V 33.2 c 0,2.04 -0.8,3.92 -2.2,5.32 -1.44,1.44 -3.32,2.2 -5.32,2.2 H 19.28 C 17.6,40.72 16,40.2 14.72,39.16 13.4,40.2 11.8,40.72 10.16,40.72 h -1.4 c -2,0 -3.88,-0.76 -5.32,-2.2 -1.4,-1.4 -2.2,-3.28 -2.2,-5.32 V 12.04 H 7.16 V 33.2 c 0,0.44 0.16,0.84 0.48,1.16 0.28,0.32 0.68,0.48 1.12,0.48 h 1.4 c 0.4,0 0.84,-0.16 1.12,-0.48 0.28,-0.28 0.44,-0.6 0.48,-1 v -0.16 -21.16 0 h 5.88 v 0 21.16 0.16 c 0.04,0.4 0.2,0.72 0.48,1 0.32,0.32 0.72,0.48 1.16,0.48 h 1.36 c 0.44,0 0.84,-0.16 1.16,-0.48 0.28,-0.32 0.48,-0.72 0.48,-1.16 z M 27.4,33.2 V 12.8 h -4.36 v 20.4 c 0,0.64 -0.28,1.24 -0.72,1.72 -0.44,0.44 -1.04,0.68 -1.68,0.68 H 19.28 C 18.64,35.6 18.04,35.36 17.6,34.92 17.2,34.52 16.96,34 16.88,33.44 V 33.4 33.2 12.8 h -4.36 v 20.4 0.2 0.04 C 12.48,34 12.2,34.52 11.84,34.92 11.36,35.36 10.76,35.6 10.16,35.6 H 8.76 C 8.12,35.6 7.52,35.36 7.08,34.92 6.64,34.44 6.4,33.84 6.4,33.2 V 12.8 H 2 v 20.4 c 0,1.8 0.72,3.52 2,4.8 1.28,1.28 2.96,1.96 4.76,1.96 h 1.4 c 1.48,0 2.88,-0.48 4.08,-1.36 l 0.48,-0.36 0.44,0.36 c 1.2,0.88 2.6,1.36 4.12,1.36 h 1.36 c 1.8,0 3.48,-0.68 4.76,-1.96 1.28,-1.28 2,-3 2,-4.8 z M 51.708,13.92 c 1.44,1.44 2.24,3.32 2.24,5.36 v 21.48 h -5.96 V 36.8 h -6.96 v 3.96 h -5.96 V 19.28 c 0,-2.04 0.8,-3.92 2.24,-5.36 1.44,-1.44 3.36,-2.24 5.4,-2.24 h 3.64 c 2,0 3.92,0.8 5.36,2.24 z M 53.188,40 V 19.28 c 0,-1.8 -0.72,-3.52 -2,-4.84 -1.32,-1.28 -3.04,-2 -4.84,-2 h -3.64 c -1.84,0 -3.56,0.72 -4.84,2 -1.32,1.32 -2.04,3.04 -2.04,4.84 V 40 h 4.44 v -3.96 h 8.48 V 40 Z m -6.84,-23.12 c 0.64,0 1.24,0.24 1.68,0.72 0.48,0.44 0.72,1.04 0.72,1.68 V 31.6 h -8.48 V 19.28 c 0,-0.64 0.28,-1.24 0.72,-1.68 0.44,-0.48 1.08,-0.72 1.72,-0.72 z m 1.64,13.96 V 19.28 c 0,-0.44 -0.2,-0.84 -0.48,-1.16 -0.32,-0.32 -0.72,-0.48 -1.16,-0.48 h -3.64 c -0.44,0 -0.88,0.16 -1.16,0.48 -0.32,0.32 -0.52,0.72 -0.52,1.16 v 11.56 z m 31.548,-9.76 h -5.92 V 19.6 c 0,-0.44 -0.16,-0.84 -0.48,-1.16 -0.28,-0.32 -0.72,-0.48 -1.16,-0.48 h -3.56 c -0.44,0 -0.88,0.16 -1.16,0.48 -0.32,0.32 -0.48,0.72 -0.48,1.16 v 2.24 c 0,0.44 0.16,0.88 0.48,1.16 0.28,0.32 0.72,0.48 1.16,0.48 h 3.56 c 2.04,0 3.92,0.8 5.36,2.24 1.4,1.4 2.2,3.32 2.2,5.32 v 2.28 c 0,2 -0.8,3.88 -2.2,5.32 -1.44,1.44 -3.32,2.2 -5.36,2.2 h -3.56 c -2.04,0 -3.92,-0.76 -5.36,-2.2 -1.44,-1.44 -2.2,-3.32 -2.2,-5.32 v -1.48 h 5.92 v 1.48 c 0,0.44 0.16,0.84 0.48,1.16 0.28,0.28 0.72,0.48 1.16,0.48 h 3.56 c 0.44,0 0.88,-0.2 1.16,-0.48 0.32,-0.32 0.48,-0.72 0.48,-1.16 v -2.28 c 0,-0.44 -0.16,-0.84 -0.48,-1.16 -0.28,-0.32 -0.72,-0.48 -1.16,-0.48 h -3.56 c -2.04,0 -3.92,-0.8 -5.36,-2.2 -1.44,-1.44 -2.2,-3.32 -2.2,-5.36 V 19.6 c 0,-2.04 0.76,-3.92 2.2,-5.36 1.44,-1.4 3.32,-2.2 5.36,-2.2 h 3.56 c 2.04,0 3.92,0.8 5.36,2.2 1.4,1.44 2.2,3.32 2.2,5.36 z m -7.56,-3.88 c 0.64,0 1.24,0.24 1.72,0.68 0.44,0.48 0.68,1.08 0.68,1.72 v 0.72 h 4.4 V 19.6 c 0,-1.84 -0.72,-3.52 -2,-4.8 -1.28,-1.28 -2.96,-2 -4.8,-2 h -3.56 c -1.84,0 -3.52,0.72 -4.8,2 -1.32,1.28 -2,2.96 -2,4.8 v 2.24 c 0,1.84 0.68,3.52 2,4.8 1.28,1.28 2.96,2 4.8,2 h 3.56 c 0.64,0 1.24,0.24 1.72,0.72 0.44,0.44 0.68,1.04 0.68,1.68 v 2.28 c 0,0.64 -0.24,1.24 -0.68,1.68 -0.48,0.44 -1.08,0.72 -1.72,0.72 h -3.56 c -0.68,0 -1.28,-0.28 -1.72,-0.72 -0.44,-0.44 -0.68,-1.04 -0.68,-1.68 V 32.6 h -4.4 v 0.72 c 0,1.8 0.68,3.52 2,4.8 1.28,1.28 2.96,1.96 4.8,1.96 h 3.56 c 1.84,0 3.52,-0.68 4.8,-1.96 1.28,-1.28 2,-3 2,-4.8 v -2.28 c 0,-1.8 -0.72,-3.52 -2,-4.8 -1.28,-1.28 -2.96,-2 -4.8,-2 h -3.56 c -0.68,0 -1.28,-0.24 -1.72,-0.68 -0.44,-0.48 -0.68,-1.08 -0.68,-1.72 V 19.6 c 0,-0.64 0.24,-1.24 0.68,-1.72 0.44,-0.44 1.04,-0.68 1.72,-0.68 z m 25.628,0 c 0.6,0 1.24,0.24 1.68,0.68 0.44,0.48 0.72,1.08 0.72,1.72 v 2.24 c 0,0.64 -0.28,1.24 -0.72,1.72 -0.44,0.44 -1.08,0.68 -1.68,0.68 h -6 V 17.2 Z m 1.64,4.64 V 19.6 c 0,-0.44 -0.2,-0.84 -0.48,-1.16 -0.32,-0.32 -0.76,-0.48 -1.16,-0.48 h -5.24 v 5.52 h 5.24 c 0.4,0 0.84,-0.16 1.16,-0.48 0.28,-0.28 0.48,-0.72 0.48,-1.16 z m 3.68,-7.6 c 1.44,1.44 2.2,3.32 2.2,5.36 v 2.24 c 0,2.04 -0.76,3.92 -2.2,5.36 -1.44,1.4 -3.32,2.2 -5.32,2.2 h -5.24 v 11.44 h -5.92 v -28.8 h 11.16 c 2,0 3.88,0.8 5.32,2.2 z m 1.44,7.6 V 19.6 c 0,-1.84 -0.68,-3.52 -1.96,-4.8 -1.28,-1.28 -3,-2 -4.8,-2 h -10.4 v 27.28 h 4.4 V 28.64 h 6 c 1.8,0 3.52,-0.72 4.8,-2 1.28,-1.28 1.96,-2.96 1.96,-4.8 z"
     id="path2-4" /></g><g
   id="SvgjsG1595"
   featurekey="sloganFeature-0"
   transform="matrix(0.62989364,0,0,0.59038577,37.352254,19.030846)"
   fill="#137dc5"
   style="fill:#252a34;fill-opacity:1"><path
     d="m 1.9,17 v 2.98 H 0 V 5.72 h 2.96 c 1.32,0 2.38,1.08 2.38,2.4 v 6.5 C 5.34,15.94 4.28,17 2.96,17 Z m 0,-9.38 v 7.48 h 1.06 c 0.28,0 0.48,-0.2 0.48,-0.48 v -6.5 c 0,-0.28 -0.2,-0.5 -0.48,-0.5 z M 12.948,20 12.228,15.06 h -2.02 L 9.548,20 H 7.628 L 9.788,5.7 h 2.58 l 2.5,14.3 z m -2.48,-6.84 h 1.48 l -0.76,-5.2 z m 12.628,6.88 h -2.04 l -1.1,-3.02 h -0.44 v 3.02 h -1.9 V 5.72 h 2.98 c 1.32,0 2.38,1.06 2.38,2.38 v 6.54 c 0,0.86 -0.44,1.6 -1.12,2.02 z M 19.516,7.62 v 7.5 h 1.08 c 0.26,0 0.48,-0.22 0.48,-0.48 V 8.1 c 0,-0.26 -0.22,-0.48 -0.48,-0.48 z M 31.124,20 30.404,15.06 h -2.02 L 27.724,20 h -1.92 l 2.16,-14.3 h 2.58 l 2.5,14.3 z m -2.48,-6.84 h 1.48 l -0.76,-5.2 z m 9.428,6.96 c -1.52,0 -2.74,-1.24 -2.74,-2.74 V 15.2 h 1.94 v 2.18 c 0,0.44 0.36,0.8 0.8,0.8 0.44,0 0.78,-0.36 0.78,-0.8 v -1.9 l -3.52,-4.86 V 8.14 c 0,-1.52 1.22,-2.76 2.74,-2.76 1.5,0 2.72,1.24 2.72,2.76 v 2.16 h -1.94 V 8.14 c 0,-0.46 -0.34,-0.8 -0.78,-0.8 -0.44,0 -0.8,0.34 -0.8,0.8 v 1.82 l 3.52,4.86 v 2.56 c 0,1.5 -1.22,2.74 -2.72,2.74 z M 45.72,5.68 v 14.24 h -1.9 V 5.68 Z m 9.948,0 V 7.6 h -2.38 v 12.42 h -1.92 V 7.6 h -2.62 V 5.68 Z m 4.688,0 v 14.24 h -1.9 V 5.68 Z m 5.708,14.28 c -1.48,0 -2.68,-1.2 -2.68,-2.68 V 8.4 c 0,-1.48 1.2,-2.68 2.68,-2.68 1.48,0 2.68,1.2 2.68,2.68 v 0.8 h -1.9 V 8.4 c 0,-0.42 -0.36,-0.78 -0.78,-0.78 -0.42,0 -0.78,0.36 -0.78,0.78 v 8.88 c 0,0.42 0.36,0.78 0.78,0.78 0.42,0 0.78,-0.36 0.78,-0.78 V 16 h 1.9 v 1.28 c 0,1.48 -1.2,2.68 -2.68,2.68 z M 83.6,5.68 h 3.34 V 19.96 H 85.06 V 8.66 L 83.28,20 H 82.54 L 82.36,19.96 82.2,20 H 81.46 L 79.7,8.66 v 11.3 H 77.8 V 5.68 h 3.36 l 1.22,8.08 z m 9.068,14.34 c -1.5,0 -2.7,-1.22 -2.7,-2.7 V 8.34 c 0,-1.48 1.2,-2.68 2.7,-2.68 1.48,0 2.68,1.2 2.68,2.68 v 8.98 c 0,1.48 -1.2,2.7 -2.68,2.7 z m 0,-12.46 c -0.44,0 -0.78,0.36 -0.78,0.78 v 8.98 c 0,0.44 0.34,0.78 0.78,0.78 0.42,0 0.78,-0.34 0.78,-0.78 V 8.34 c 0,-0.42 -0.36,-0.78 -0.78,-0.78 z m 8.208,12.46 h -2.5 V 5.76 h 2.5 c 1.7,0 3.06,1.38 3.06,3.08 v 8.1 c 0,0.82 -0.32,1.6 -0.9,2.18 -0.58,0.58 -1.34,0.9 -2.16,0.9 z m -0.6,-12.34 V 18.1 h 0.6 c 0.3,0 0.6,-0.12 0.82,-0.34 0.22,-0.22 0.34,-0.5 0.34,-0.82 v -8.1 c 0,-0.64 -0.52,-1.16 -1.16,-1.16 z m 9.628,12.36 c -1.62,0 -2.94,-1.32 -2.94,-2.94 V 5.74 h 1.9 V 17.1 c 0,0.58 0.46,1.06 1.04,1.06 0.58,0 1.04,-0.48 1.04,-1.06 V 5.74 h 1.9 V 17.1 c 0,1.62 -1.32,2.94 -2.94,2.94 z m 7.848,-1.92 h 2.76 V 20 h -4.64 V 5.64 h 1.88 z M 128.54,20 127.82,15.06 H 125.8 L 125.14,20 h -1.92 l 2.16,-14.3 h 2.58 l 2.5,14.3 z m -2.48,-6.84 h 1.48 l -0.76,-5.2 z M 138.388,5.68 V 7.6 h -2.38 v 12.42 h -1.92 V 7.6 h -2.62 V 5.68 Z m 5.148,14.34 c -1.5,0 -2.7,-1.22 -2.7,-2.7 V 8.34 c 0,-1.48 1.2,-2.68 2.7,-2.68 1.48,0 2.68,1.2 2.68,2.68 v 8.98 c 0,1.48 -1.2,2.7 -2.68,2.7 z m 0,-12.46 c -0.44,0 -0.78,0.36 -0.78,0.78 v 8.98 c 0,0.44 0.34,0.78 0.78,0.78 0.42,0 0.78,-0.34 0.78,-0.78 V 8.34 c 0,-0.42 -0.36,-0.78 -0.78,-0.78 z m 11.188,12.48 h -2.04 l -1.1,-3.02 h -0.44 v 3.02 h -1.9 V 5.72 h 2.98 c 1.32,0 2.38,1.06 2.38,2.38 v 6.54 c 0,0.86 -0.44,1.6 -1.12,2.02 z m -3.58,-12.42 v 7.5 h 1.08 c 0.26,0 0.48,-0.22 0.48,-0.48 V 8.1 c 0,-0.26 -0.22,-0.48 -0.48,-0.48 z"
     id="path1-1"
     style="fill:#252a34;fill-opacity:1" /></g></svg>
